<?xml version="1.0" encoding="UTF-8" standalone="no"?>
<!-- Created with Inkscape (http://www.inkscape.org/) -->

<svg
   xmlns:dc="http://purl.org/dc/elements/1.1/"
   xmlns:cc="http://creativecommons.org/ns#"
   xmlns:rdf="http://www.w3.org/1999/02/22-rdf-syntax-ns#"
   xmlns:svg="http://www.w3.org/2000/svg"
   xmlns="http://www.w3.org/2000/svg"
   xmlns:sodipodi="http://sodipodi.sourceforge.net/DTD/sodipodi-0.dtd"
   xmlns:inkscape="http://www.inkscape.org/namespaces/inkscape"
   id="svg3055"
   version="1.1"
   inkscape:version="0.48.2 r9819"
   width="210"
   height="180"
   sodipodi:docname="click.svg">
  <metadata
     id="metadata3061">
    <rdf:RDF>
      <cc:Work
         rdf:about="">
        <dc:format>image/svg+xml</dc:format>
        <dc:type
           rdf:resource="http://purl.org/dc/dcmitype/StillImage" />
        <dc:title></dc:title>
      </cc:Work>
    </rdf:RDF>
  </metadata>
  <defs
     id="defs3059" />
  <sodipodi:namedview
     pagecolor="#ffffff"
     bordercolor="#666666"
     borderopacity="1"
     objecttolerance="10"
     gridtolerance="10"
     guidetolerance="10"
     inkscape:pageopacity="0"
     inkscape:pageshadow="2"
     inkscape:window-width="1920"
     inkscape:window-height="1018"
     id="namedview3057"
     showgrid="false"
     inkscape:zoom="2"
     inkscape:cx="116.34087"
     inkscape:cy="62.626041"
     inkscape:window-x="-8"
     inkscape:window-y="-8"
     inkscape:window-maximized="1"
     inkscape:current-layer="text3003"
     showguides="true">
    <inkscape:grid
       type="xygrid"
       id="grid4709"
       empspacing="5"
       visible="true"
       enabled="true"
       snapvisiblegridlinesonly="true" />
  </sodipodi:namedview>
  <g
     inkscape:groupmode="layer"
     id="layer1"
     inkscape:label="Layer"
     style="display:inline"
     transform="translate(0,-8)" />
  <path
     style="fill:none;stroke:#e64b00;stroke-width:5.30000019000000040;stroke-linecap:round;stroke-linejoin:miter;stroke-miterlimit:4;stroke-opacity:1;stroke-dasharray:none;"
     d="m 195.61665,42.20041 c 0,0 -58.53764,-5.69106 -108.93981,-4.53741 -39.088611,0.894695 -49.817397,2.040803 -49.817397,2.040803"
     id="path3070"
     inkscape:connector-curvature="0"
     sodipodi:nodetypes="csc" />
  <path
     style="fill:none;stroke:#e64b00;stroke-width:3.66785431000000010;stroke-linecap:round;stroke-linejoin:round;stroke-miterlimit:4;stroke-opacity:1;stroke-dasharray:none;"
     d="M 35.453288,66.809688 C 20.661315,52.715227 14.382335,51.376591 15.287197,51.197231 c 0.06096,0.01859 12.066558,-8.817217 20.864127,-16.004823"
     id="path4532"
     inkscape:connector-curvature="0"
     sodipodi:nodetypes="ccc"
     transform="matrix(-1.189312,0,0,1,218.22612,-8.5)" />
  <g
     transform="matrix(0.96829484,-0.12059712,0.12665922,1.0169684,0,0)"
     style="font-size:20px;font-style:normal;font-variant:normal;font-weight:normal;font-stretch:normal;line-height:125%;letter-spacing:0px;word-spacing:0px;fill:#e64b00;fill-opacity:1;stroke:none;font-family:MV Boli;-inkscape-font-specification:MV Boli"
     id="text3003">
    <path
       d="m 31.184754,71.333992 c -2e-6,-0.3776 0.04557,-0.805659 0.136719,-1.28418 0.09114,-0.478509 0.250648,-0.942376 0.478516,-1.391601 0.312497,-0.624993 0.660803,-1.228833 1.044922,-1.811524 0.38411,-0.582673 0.77799,-1.119782 1.18164,-1.611328 0.403641,-0.491526 0.807286,-0.927723 1.210938,-1.308594 0.403639,-0.380847 0.787753,-0.678698 1.152343,-0.893554 l -0.0098,0.0098 c 0.227857,-0.143216 0.468742,-0.292956 0.722656,-0.449218 0.253898,-0.156237 0.514314,-0.299466 0.78125,-0.429688 0.266918,-0.130195 0.5371,-0.237617 0.810547,-0.322265 0.273427,-0.08462 0.543609,-0.12694 0.810547,-0.126954 0.273426,1.4e-5 0.533843,0.05535 0.78125,0.166016 0.247384,0.110691 0.463855,0.262058 0.649414,0.454102 0.185535,0.19207 0.332019,0.415051 0.439453,0.668945 0.107409,0.253918 0.16112,0.5241 0.161133,0.810547 -1.3e-5,0.201834 -0.01141,0.359712 -0.03418,0.473633 -0.0228,0.113943 -0.05861,0.200206 -0.107422,0.258789 -0.04884,0.0586 -0.110689,0.09441 -0.185547,0.107422 -0.07488,0.01303 -0.161145,0.01954 -0.258789,0.01953 -0.143241,1.1e-5 -0.255545,-0.03091 -0.336914,-0.09277 -0.08139,-0.06184 -0.146496,-0.136707 -0.195312,-0.224609 -0.04884,-0.08788 -0.08627,-0.185536 -0.112305,-0.292969 -0.02605,-0.10741 -0.05698,-0.205066 -0.09277,-0.292969 -0.03582,-0.08788 -0.08139,-0.162748 -0.136719,-0.224609 -0.05535,-0.06184 -0.131847,-0.09276 -0.229492,-0.09277 -0.260428,1.2e-5 -0.542003,0.05861 -0.844727,0.175781 -0.302744,0.117199 -0.611988,0.273449 -0.927734,0.46875 -0.315764,0.195324 -0.631519,0.418305 -0.947266,0.668945 -0.315763,0.250662 -0.616869,0.506195 -0.90332,0.766602 -0.286466,0.260426 -0.551765,0.517587 -0.795899,0.771484 -0.244146,0.253915 -0.454107,0.48178 -0.629882,0.683594 -0.260423,0.332039 -0.498053,0.668953 -0.712891,1.010742 -0.214849,0.341804 -0.400395,0.690111 -0.556641,1.044922 -0.156254,0.354824 -0.276697,0.719407 -0.361328,1.09375 -0.08464,0.374354 -0.126957,0.763351 -0.126953,1.166992 -4e-6,0.312504 0.04394,0.585941 0.131836,0.820313 0.08789,0.234378 0.183915,0.4362 0.288086,0.605468 0.123693,0.195315 0.276688,0.330406 0.458984,0.405274 0.182287,0.07487 0.400386,0.112307 0.654297,0.112305 0.553379,2e-6 1.064447,-0.05208 1.533203,-0.15625 0.468743,-0.104165 0.917961,-0.244138 1.347657,-0.419922 0.429678,-0.175779 0.8496,-0.384112 1.259765,-0.625 0.410146,-0.240882 0.833323,-0.498043 1.269531,-0.771485 l 0.253907,0 c 0.08462,4e-6 0.170887,0.02279 0.258789,0.06836 0.08788,0.04558 0.166004,0.10417 0.234375,0.175781 0.06835,0.07162 0.123686,0.152998 0.166015,0.244141 0.04231,0.09115 0.06347,0.18555 0.06348,0.283203 -1.2e-5,0.214847 -0.08465,0.428063 -0.253906,0.639648 -0.169283,0.211591 -0.385754,0.413414 -0.649414,0.605469 -0.263683,0.192059 -0.561534,0.372723 -0.893555,0.541992 -0.332041,0.169272 -0.659189,0.319012 -0.981445,0.449219 -0.322275,0.130209 -0.623381,0.240886 -0.903321,0.332031 -0.279956,0.09115 -0.504565,0.152996 -0.673828,0.185547 -0.143237,0.03255 -0.281583,0.06348 -0.415039,0.09277 -0.133471,0.0293 -0.291348,0.05859 -0.473633,0.08789 -0.182298,0.0293 -0.400397,0.05208 -0.654297,0.06836 -0.253912,0.01628 -0.572922,0.02441 -0.957031,0.02441 -0.23438,10e-7 -0.449223,-0.03743 -0.644531,-0.112304 -0.195317,-0.07487 -0.36947,-0.16276 -0.522461,-0.263672 -0.152999,-0.100911 -0.283207,-0.206705 -0.390625,-0.317383 -0.107425,-0.110676 -0.193688,-0.205077 -0.258789,-0.283203 -0.384118,-0.449217 -0.664065,-0.891925 -0.839844,-1.328125 -0.175783,-0.436195 -0.263674,-0.91471 -0.263672,-1.435547 z"
       style=""
       id="path3915" />
    <path
       d="m 43.967957,70.455086 c 0.292966,-0.898432 0.572913,-1.761061 0.839844,-2.587891 0.266923,-0.826814 0.502925,-1.591788 0.708008,-2.294922 0.205073,-0.703114 0.367834,-1.324858 0.488281,-1.865234 0.120438,-0.540352 0.187169,-0.970039 0.200196,-1.289063 0.07812,-0.305976 0.216465,-0.550116 0.415039,-0.732421 0.198561,-0.182278 0.428053,-0.273424 0.688476,-0.273438 0.156244,1.4e-5 0.289707,0.03582 0.400391,0.107422 0.11067,0.07163 0.200188,0.166029 0.268555,0.283203 0.06835,0.117201 0.118807,0.249037 0.151367,0.395508 0.03254,0.146497 0.04882,0.294609 0.04883,0.444336 -8e-6,0.11069 -0.0065,0.211601 -0.01953,0.302734 -0.01303,0.09116 -0.02931,0.179049 -0.04883,0.263672 -0.149746,0.59897 -0.328783,1.217459 -0.537109,1.855469 -0.20834,0.63803 -0.421556,1.284189 -0.639648,1.938476 -0.218105,0.654305 -0.434576,1.310229 -0.649414,1.967774 -0.214849,0.657558 -0.406907,1.302088 -0.576172,1.933594 l -0.175782,0.664062 c -0.09115,0.338545 -0.169275,0.660811 -0.234375,0.966797 -0.06511,0.305992 -0.09766,0.553388 -0.09766,0.742187 -4e-6,0.104169 0.01953,0.187177 0.05859,0.249024 0.03906,0.06185 0.113928,0.09278 0.224609,0.09277 0.266923,2e-6 0.579422,-0.04394 0.9375,-0.131836 0.358067,-0.08789 0.729161,-0.19531 1.113282,-0.322265 0.384107,-0.126951 0.766594,-0.266925 1.147461,-0.419922 0.380851,-0.152992 0.730785,-0.297849 1.049804,-0.43457 0.169262,-0.07161 0.314119,-0.133461 0.434571,-0.185547 0.120433,-0.05208 0.270172,-0.115557 0.449218,-0.19043 0.179027,-0.07487 0.418284,-0.17415 0.717774,-0.297852 0.299468,-0.123694 0.712879,-0.296219 1.240234,-0.517578 0.09113,-0.03255 0.170887,-0.06022 0.239258,-0.08301 0.06835,-0.02278 0.131824,-0.03418 0.19043,-0.03418 0.104154,4e-6 0.193672,0.01954 0.268554,0.05859 0.07486,0.03907 0.133451,0.09115 0.175782,0.15625 0.0423,0.06511 0.07323,0.139978 0.09277,0.224609 0.01952,0.08464 0.02928,0.169275 0.0293,0.253906 -1.3e-5,0.143233 -0.01141,0.268558 -0.03418,0.375977 -0.0228,0.107425 -0.04721,0.196943 -0.07324,0.268554 -0.07814,0.123701 -0.179049,0.236006 -0.302734,0.336914 -0.123711,0.100915 -0.253919,0.188805 -0.390625,0.263672 -0.136731,0.07487 -0.270194,0.138349 -0.400391,0.19043 -0.13022,0.05209 -0.237642,0.09115 -0.322266,0.117188 -0.104177,0.03906 -0.242524,0.09115 -0.415039,0.15625 -0.172536,0.06511 -0.359711,0.13672 -0.561523,0.214843 -0.201833,0.07813 -0.410166,0.15788 -0.625,0.239258 -0.214853,0.08138 -0.416676,0.157879 -0.605469,0.229492 -0.188811,0.07162 -0.356454,0.135093 -0.50293,0.19043 -0.146492,0.05534 -0.249031,0.09278 -0.307617,0.112305 -0.279956,0.104167 -0.590828,0.221355 -0.932617,0.351562 -0.341804,0.130209 -0.681973,0.253907 -1.020508,0.371094 -0.338547,0.117188 -0.659185,0.216471 -0.961914,0.297851 -0.302739,0.08138 -0.555018,0.122071 -0.756836,0.122071 -0.2474,0 -0.441085,-0.01953 -0.581054,-0.05859 -0.139978,-0.03906 -0.265304,-0.09277 -0.375977,-0.161133 -0.110681,-0.06836 -0.222985,-0.151367 -0.336914,-0.249023 -0.113936,-0.09766 -0.265303,-0.205078 -0.454102,-0.322266 -0.169273,-0.104166 -0.289716,-0.247395 -0.361328,-0.429687 -0.07162,-0.182291 -0.107424,-0.377603 -0.107422,-0.585938 -2e-6,-0.104165 0.0081,-0.224607 0.02441,-0.361328 0.01627,-0.136716 0.03743,-0.279946 0.06348,-0.429687 0.02604,-0.149737 0.05534,-0.296222 0.08789,-0.439454 0.03255,-0.143226 0.06836,-0.270179 0.107421,-0.380859 z"
       style=""
       id="path3917" />
    <path
       d="m 56.214051,69.88868 c 0.05859,-0.253901 0.128577,-0.535476 0.209961,-0.844727 0.08138,-0.309238 0.169267,-0.629876 0.263672,-0.961914 0.0944,-0.332024 0.190426,-0.66731 0.288086,-1.005859 0.09765,-0.338533 0.193681,-0.664054 0.288086,-0.976563 0.0944,-0.31249 0.180659,-0.603831 0.258789,-0.874023 0.07812,-0.270172 0.14648,-0.499664 0.205078,-0.688477 0.123693,-0.423166 0.24088,-0.84797 0.351563,-1.274414 0.110671,-0.42642 0.218093,-0.87401 0.322265,-1.342773 0.130203,-0.253893 0.305984,-0.434557 0.527344,-0.541993 0.221348,-0.107407 0.462233,-0.161118 0.722656,-0.161132 0.208327,0.110691 0.372714,0.262058 0.493164,0.454101 0.120436,0.192071 0.180657,0.408542 0.180664,0.649414 -7e-6,0.169284 -0.02768,0.362969 -0.08301,0.581055 -0.05535,0.218111 -0.125333,0.452486 -0.209961,0.703125 -0.08464,0.250662 -0.179044,0.514334 -0.283204,0.791015 -0.104173,0.276704 -0.205084,0.561534 -0.302734,0.854493 -0.182298,0.533864 -0.364589,1.067717 -0.546875,1.601562 -0.182297,0.533862 -0.361334,1.097013 -0.537109,1.689453 -0.04558,0.156257 -0.09441,0.312507 -0.146485,0.46875 -0.05209,0.156257 -0.105799,0.325527 -0.161132,0.507813 -0.05534,0.182297 -0.115565,0.385748 -0.180665,0.610351 -0.06511,0.224615 -0.130213,0.483404 -0.195312,0.776368 -0.07813,0.345056 -0.146489,0.691735 -0.205078,1.040039 -0.0586,0.34831 -0.113937,0.698245 -0.166016,1.049804 -0.05209,0.351565 -0.110681,0.706382 -0.175781,1.064453 -0.06511,0.358074 -0.143233,0.719402 -0.234375,1.083985 -0.03256,0.130208 -0.08952,0.245768 -0.170898,0.346679 -0.08138,0.100912 -0.174158,0.187175 -0.278321,0.25879 -0.10417,0.07161 -0.214847,0.126952 -0.332031,0.166015 -0.117191,0.03906 -0.227868,0.05859 -0.332031,0.05859 -0.10417,-10e-7 -0.203453,-0.0081 -0.297852,-0.02441 -0.0944,-0.01628 -0.167645,-0.05371 -0.219726,-0.112305 -0.07813,-0.08464 -0.139977,-0.179036 -0.185547,-0.283203 -0.04557,-0.104167 -0.06836,-0.214844 -0.06836,-0.332031 -2e-6,-0.03255 0.0016,-0.06348 0.0049,-0.09277 0.0033,-0.0293 0.0081,-0.06022 0.01465,-0.09277 z"
       style=""
       id="path3919" />
    <path
       d="m 61.028504,71.333992 c -2e-6,-0.3776 0.04557,-0.805659 0.136719,-1.28418 0.09114,-0.478509 0.250648,-0.942376 0.478516,-1.391601 0.312497,-0.624993 0.660803,-1.228833 1.044922,-1.811524 0.38411,-0.582673 0.77799,-1.119782 1.18164,-1.611328 0.403641,-0.491526 0.807286,-0.927723 1.210938,-1.308594 0.403639,-0.380847 0.787753,-0.678698 1.152343,-0.893554 l -0.0098,0.0098 c 0.227857,-0.143216 0.468742,-0.292956 0.722656,-0.449218 0.253898,-0.156237 0.514314,-0.299466 0.78125,-0.429688 0.266918,-0.130195 0.5371,-0.237617 0.810547,-0.322265 0.273427,-0.08462 0.543609,-0.12694 0.810547,-0.126954 0.273426,1.4e-5 0.533843,0.05535 0.78125,0.166016 0.247384,0.110691 0.463855,0.262058 0.649414,0.454102 0.185535,0.19207 0.332019,0.415051 0.439453,0.668945 0.107409,0.253918 0.16112,0.5241 0.161133,0.810547 -1.3e-5,0.201834 -0.01141,0.359712 -0.03418,0.473633 -0.0228,0.113943 -0.05861,0.200206 -0.107422,0.258789 -0.04884,0.0586 -0.110689,0.09441 -0.185547,0.107422 -0.07488,0.01303 -0.161145,0.01954 -0.258789,0.01953 -0.143241,1.1e-5 -0.255545,-0.03091 -0.336914,-0.09277 -0.08139,-0.06184 -0.146496,-0.136707 -0.195312,-0.224609 -0.04884,-0.08788 -0.08628,-0.185536 -0.112305,-0.292969 -0.02605,-0.10741 -0.05698,-0.205066 -0.09277,-0.292969 -0.03582,-0.08788 -0.08139,-0.162748 -0.136719,-0.224609 -0.05535,-0.06184 -0.131847,-0.09276 -0.229492,-0.09277 -0.260428,1.2e-5 -0.542003,0.05861 -0.844727,0.175781 -0.302744,0.117199 -0.611988,0.273449 -0.927734,0.46875 -0.315764,0.195324 -0.631519,0.418305 -0.947266,0.668945 -0.315763,0.250662 -0.616869,0.506195 -0.90332,0.766602 -0.286466,0.260426 -0.551765,0.517587 -0.795899,0.771484 -0.244146,0.253915 -0.454107,0.48178 -0.629882,0.683594 -0.260423,0.332039 -0.498053,0.668953 -0.712891,1.010742 -0.214849,0.341804 -0.400395,0.690111 -0.556641,1.044922 -0.156254,0.354824 -0.276697,0.719407 -0.361328,1.09375 -0.08464,0.374354 -0.126957,0.763351 -0.126953,1.166992 -4e-6,0.312504 0.04394,0.585941 0.131836,0.820313 0.08789,0.234378 0.183915,0.4362 0.288086,0.605468 0.123693,0.195315 0.276688,0.330406 0.458984,0.405274 0.182287,0.07487 0.400386,0.112307 0.654297,0.112305 0.553379,2e-6 1.064447,-0.05208 1.533203,-0.15625 0.468743,-0.104165 0.917961,-0.244138 1.347657,-0.419922 0.429678,-0.175779 0.8496,-0.384112 1.259765,-0.625 0.410146,-0.240882 0.833323,-0.498043 1.269531,-0.771485 l 0.253907,0 c 0.08462,4e-6 0.170887,0.02279 0.258789,0.06836 0.08788,0.04558 0.166004,0.10417 0.234375,0.175781 0.06835,0.07162 0.123686,0.152998 0.166015,0.244141 0.04231,0.09115 0.06346,0.18555 0.06348,0.283203 -1.2e-5,0.214847 -0.08465,0.428063 -0.253906,0.639648 -0.169283,0.211591 -0.385754,0.413414 -0.649414,0.605469 -0.263683,0.192059 -0.561534,0.372723 -0.893555,0.541992 -0.332041,0.169272 -0.659189,0.319012 -0.981445,0.449219 -0.322275,0.130209 -0.623381,0.240886 -0.903321,0.332031 -0.279956,0.09115 -0.504565,0.152996 -0.673828,0.185547 -0.143237,0.03255 -0.281583,0.06348 -0.415039,0.09277 -0.133471,0.0293 -0.291348,0.05859 -0.473633,0.08789 -0.182298,0.0293 -0.400397,0.05208 -0.654297,0.06836 -0.253912,0.01628 -0.572922,0.02441 -0.957031,0.02441 -0.23438,10e-7 -0.449223,-0.03743 -0.644531,-0.112304 -0.195317,-0.07487 -0.36947,-0.16276 -0.522461,-0.263672 -0.152999,-0.100911 -0.283207,-0.206705 -0.390625,-0.317383 -0.107425,-0.110676 -0.193688,-0.205077 -0.258789,-0.283203 -0.384118,-0.449217 -0.664065,-0.891925 -0.839844,-1.328125 -0.175783,-0.436195 -0.263674,-0.91471 -0.263672,-1.435547 z"
       style=""
       id="path3921" />
    <path
       d="m 76.66327,62.00782 c 0.169265,1.4e-5 0.307611,0.01792 0.415039,0.05371 0.107415,0.03582 0.190423,0.09279 0.249023,0.170899 0.05859,0.07814 0.09928,0.179049 0.122071,0.302734 0.02278,0.123711 0.03417,0.270195 0.03418,0.439453 -6e-6,0.149752 -0.0049,0.291353 -0.01465,0.424805 -0.0098,0.133475 -0.02605,0.268566 -0.04883,0.405273 -0.02279,0.13673 -0.05046,0.279959 -0.08301,0.429688 -0.03256,0.14975 -0.06837,0.312511 -0.107422,0.488281 -0.123704,0.520843 -0.271816,1.040049 -0.444336,1.557617 -0.172532,0.517587 -0.34343,1.049813 -0.512695,1.59668 l -0.361328,1.191406 c 0.371088,-0.09765 0.721023,-0.234368 1.049805,-0.410156 0.328769,-0.175774 0.649407,-0.380852 0.961914,-0.615235 0.312492,-0.234367 0.618481,-0.496411 0.917968,-0.786132 0.299471,-0.289705 0.60546,-0.594067 0.917969,-0.913086 0.488272,-0.501293 0.973297,-1.020498 1.455078,-1.557618 0.48176,-0.537098 0.947254,-1.0856 1.396485,-1.645507 0.0716,-0.09113 0.146472,-0.221342 0.224609,-0.390625 0.07811,-0.169258 0.170886,-0.338529 0.27832,-0.507813 0.10741,-0.169257 0.232735,-0.315742 0.375977,-0.439453 0.143216,-0.123684 0.315742,-0.185533 0.517578,-0.185547 0.130195,1.4e-5 0.245755,0.04233 0.34668,0.126953 0.100897,0.08465 0.183905,0.190444 0.249023,0.317383 0.06509,0.126966 0.113918,0.26694 0.146484,0.419922 0.03254,0.153008 0.04881,0.294609 0.04883,0.424805 -1.5e-5,0.110689 -0.0098,0.20509 -0.0293,0.283203 -0.364597,0.546887 -0.755222,1.072602 -1.171875,1.577148 -0.416679,0.504568 -0.851249,0.991221 -1.303711,1.459961 -0.452485,0.468759 -0.91798,0.926115 -1.396485,1.37207 -0.478525,0.445971 -0.961923,0.883797 -1.450195,1.313477 0.670564,0.227871 1.28417,0.524095 1.84082,0.888672 0.55663,0.364589 1.048166,0.805669 1.47461,1.323242 0.42642,0.517582 0.78612,1.118167 1.079101,1.801758 0.292956,0.683596 0.507799,1.455079 0.644532,2.314453 -0.03908,0.117188 -0.09441,0.229492 -0.166016,0.336914 -0.07163,0.107422 -0.156264,0.201823 -0.253906,0.283203 -0.09767,0.08138 -0.208347,0.148112 -0.332032,0.200196 -0.12371,0.05208 -0.257174,0.07812 -0.40039,0.07813 -0.227877,-10e-7 -0.405286,-0.0472 -0.532227,-0.141602 -0.126965,-0.0944 -0.224621,-0.213216 -0.292968,-0.356445 -0.06837,-0.14323 -0.1172,-0.302735 -0.146485,-0.478516 -0.02931,-0.175781 -0.05698,-0.341796 -0.08301,-0.498047 l -0.03906,-0.24414 C 82.167816,73.983733 82.03598,73.575205 81.843934,73.194344 81.651866,72.813487 81.427257,72.473318 81.170106,72.173836 80.912934,71.87436 80.632987,71.618827 80.330262,71.407234 80.027518,71.19565 79.729667,71.034517 79.436707,70.923836 l -0.283203,-0.107422 c -0.117196,-0.04557 -0.249031,-0.0944 -0.395507,-0.146484 -0.146493,-0.05208 -0.296232,-0.100907 -0.449219,-0.146485 -0.153003,-0.04557 -0.301114,-0.083 -0.444336,-0.112305 -0.143236,-0.02929 -0.270189,-0.04394 -0.38086,-0.04395 -0.06511,5e-6 -0.192063,0.03744 -0.380859,0.112305 -0.188808,0.07487 -0.395514,0.157882 -0.620117,0.249023 -0.224615,0.09115 -0.444341,0.179041 -0.65918,0.263672 -0.214848,0.08464 -0.374354,0.139978 -0.478515,0.166016 l -0.244141,0.996094 c -0.07162,0.292971 -0.122075,0.574547 -0.151367,0.844726 -0.0293,0.270185 -0.05046,0.525718 -0.06348,0.766602 -0.0065,0.201824 -0.01465,0.419923 -0.02441,0.654297 -0.0098,0.234375 -0.04395,0.452474 -0.102539,0.654296 -0.0586,0.201824 -0.157881,0.371094 -0.297851,0.507813 -0.139978,0.136718 -0.346684,0.205078 -0.620118,0.205078 -0.169273,0 -0.304365,-0.04883 -0.405273,-0.146484 -0.100914,-0.09766 -0.177412,-0.219727 -0.229492,-0.366211 -0.05209,-0.146484 -0.08464,-0.302734 -0.09766,-0.46875 -0.01302,-0.166015 -0.01953,-0.317382 -0.01953,-0.454102 -2e-6,-0.169269 0.01139,-0.359699 0.03418,-0.571289 0.02278,-0.211587 0.05208,-0.428058 0.08789,-0.649414 0.0358,-0.221352 0.07649,-0.441078 0.12207,-0.65918 0.04557,-0.218095 0.09114,-0.418291 0.136719,-0.600586 l 2.27539,-9.160156 c 0.117183,-0.468737 0.423172,-0.703111 0.917969,-0.703125 z"
       style=""
       id="path3923" />
    <path
       d="m 95.813661,75.20118 c -2e-6,-0.07161 0.01139,-0.167643 0.03418,-0.288086 0.02278,-0.120442 0.05045,-0.24414 0.08301,-0.371094 0.03255,-0.126952 0.06673,-0.249022 0.102539,-0.366211 0.03581,-0.117186 0.06347,-0.211587 0.08301,-0.283203 L 100.07147,60.91407 c 0.0326,-0.04556 0.0684,-0.08462 0.10742,-0.117187 0.0326,-0.03254 0.0765,-0.06021 0.13184,-0.08301 0.0553,-0.02277 0.12207,-0.03417 0.2002,-0.03418 l 0.16601,0 c 0.14322,1.5e-5 0.26367,0.02443 0.36133,0.07324 0.0977,0.04884 0.17577,0.113947 0.23437,0.195313 0.0586,0.08139 0.0993,0.175795 0.12208,0.283203 0.0228,0.107436 0.0342,0.222996 0.0342,0.34668 0,0.10418 -0.008,0.213229 -0.0244,0.327148 -0.0163,0.113946 -0.0342,0.224623 -0.0537,0.332031 -0.0195,0.107435 -0.0407,0.206719 -0.0635,0.297852 -0.0228,0.09116 -0.0407,0.162773 -0.0537,0.214844 l -2.031248,6.933593 0.927738,-0.08789 c 1.03515,-0.227859 2.09146,-0.463861 3.16894,-0.708008 1.07747,-0.244134 2.13378,-0.480136 3.16895,-0.708008 0.11717,-0.05859 0.22134,-0.179029 0.3125,-0.361328 0.0911,-0.182284 0.18065,-0.419914 0.26855,-0.712891 0.0879,-0.29296 0.18391,-0.636384 0.28809,-1.030273 0.10415,-0.39387 0.2311,-0.831696 0.38086,-1.313477 l 0.20508,-0.673828 c 0.0846,-0.325509 0.16111,-0.659167 0.22949,-1.000976 0.0683,-0.341784 0.15135,-0.652657 0.24902,-0.932617 0.0976,-0.279935 0.22134,-0.509427 0.37109,-0.688477 0.14973,-0.179022 0.34179,-0.26854 0.57618,-0.268555 0.33201,1.5e-5 0.58917,0.105809 0.77148,0.317383 0.18228,0.211602 0.27342,0.476902 0.27344,0.795899 -2e-5,0.201835 -0.0765,0.540377 -0.22949,1.015625 -0.15301,0.475272 -0.34344,1.054698 -0.57129,1.738281 -0.0847,0.253916 -0.1758,0.514333 -0.27344,0.78125 -0.0977,0.266936 -0.18719,0.52247 -0.26855,0.766601 -0.0814,0.24415 -0.14813,0.468759 -0.2002,0.673828 -0.0521,0.205087 -0.0781,0.369474 -0.0781,0.493165 -10e-6,0.117195 0.0163,0.232754 0.0488,0.346679 0.0325,0.11394 0.0488,0.23601 0.0488,0.366211 -1e-5,0.292976 -0.0781,0.537116 -0.23437,0.732422 -0.15627,0.195319 -0.37111,0.393886 -0.64454,0.595703 -0.013,0.05209 -0.0309,0.133469 -0.0537,0.244141 -0.0228,0.110682 -0.0505,0.224614 -0.083,0.341797 l -0.12696,0.498047 c -0.0912,0.358077 -0.16765,0.716149 -0.22949,1.074218 -0.0619,0.358076 -0.1172,0.712894 -0.16601,1.064453 -0.0489,0.351565 -0.10093,0.703127 -0.15625,1.054688 -0.0554,0.351563 -0.12534,0.69987 -0.20997,1.044922 -0.0326,0.130208 -0.0895,0.245768 -0.17089,0.346679 -0.0814,0.100912 -0.1758,0.187175 -0.28321,0.25879 -0.10743,0.07161 -0.21974,0.126952 -0.33691,0.166015 -0.1172,0.03906 -0.22788,0.05859 -0.33203,0.05859 -0.15626,-10e-7 -0.28322,-0.03581 -0.38086,-0.107422 -0.0977,-0.07161 -0.17417,-0.15625 -0.22949,-0.253906 -0.0553,-0.09766 -0.0928,-0.198568 -0.11231,-0.302735 -0.0195,-0.104166 -0.0293,-0.192057 -0.0293,-0.263671 -10e-6,-0.07813 0.0114,-0.206706 0.0342,-0.385743 0.0228,-0.179035 0.0537,-0.388996 0.0928,-0.629882 0.039,-0.240884 0.0846,-0.501301 0.13672,-0.78125 0.0521,-0.279946 0.10415,-0.563149 0.15625,-0.84961 0.12368,-0.664059 0.26691,-1.389969 0.42968,-2.177734 l -0.0684,0 c -0.16928,5e-6 -0.35157,0.01791 -0.54687,0.05371 -0.19532,0.03581 -0.4297,0.08627 -0.70313,0.151367 -0.1237,0.03907 -0.30762,0.09115 -0.55175,0.15625 -0.24415,0.06511 -0.52247,0.139979 -0.83496,0.224609 -0.31251,0.08464 -0.64943,0.175786 -1.01075,0.273438 -0.36133,0.09766 -0.72103,0.195316 -1.0791,0.292969 l -2.646483,0.722656 c -0.123702,0.253909 -0.239261,0.528974 -0.346679,0.825195 -0.107426,0.296226 -0.20671,0.595705 -0.297852,0.898438 -0.09115,0.302735 -0.174157,0.600587 -0.249023,0.893554 -0.07487,0.292969 -0.14486,0.569662 -0.209961,0.830078 -0.01953,0.07162 -0.06023,0.14974 -0.12207,0.234375 -0.06185,0.08464 -0.133467,0.16276 -0.214844,0.234375 -0.08138,0.07161 -0.166019,0.130208 -0.253906,0.175782 -0.08789,0.04557 -0.170901,0.06836 -0.249024,0.06836 -0.143231,-10e-7 -0.262046,-0.03092 -0.356445,-0.09277 -0.0944,-0.06185 -0.1709,-0.14323 -0.229492,-0.244141 -0.0586,-0.100912 -0.09929,-0.214844 -0.122071,-0.341797 -0.02279,-0.126953 -0.03418,-0.252278 -0.03418,-0.375976 z"
       style=""
       id="path3925" />
    <path
       d="m 110.85272,74.771492 c 0,-0.227864 0.0326,-0.468749 0.0977,-0.722656 0.22135,-0.885415 0.48014,-1.752927 0.77637,-2.602539 0.29622,-0.849605 0.56477,-1.694331 0.80566,-2.53418 0.24088,-0.839836 0.44108,-1.547843 0.60059,-2.124023 0.1595,-0.576163 0.3011,-1.070954 0.4248,-1.484375 0.12369,-0.413401 0.23763,-0.769846 0.3418,-1.069336 0.10416,-0.299468 0.21809,-0.595692 0.34179,-0.888672 0.0781,-0.175769 0.16439,-0.358061 0.25879,-0.546875 0.0944,-0.188789 0.19694,-0.362943 0.30762,-0.522461 0.11067,-0.159492 0.22623,-0.2897 0.34668,-0.390625 0.12044,-0.100898 0.24576,-0.151354 0.37598,-0.151367 0.26692,1.3e-5 0.47037,0.04396 0.61035,0.131836 0.13997,0.0879 0.22623,0.167656 0.25879,0.239257 l 0.0879,0.400391 c 0.0977,-0.0065 0.2246,-0.0244 0.38086,-0.05371 0.15624,-0.02928 0.31412,-0.06021 0.47363,-0.09277 0.1595,-0.03254 0.30761,-0.06509 0.44434,-0.09766 0.13671,-0.03254 0.24087,-0.06184 0.3125,-0.08789 0.42967,-0.117174 0.82681,-0.218086 1.1914,-0.302735 0.36458,-0.08462 0.71125,-0.154608 1.04004,-0.209961 0.32877,-0.05532 0.64289,-0.09601 0.94238,-0.12207 0.29947,-0.02603 0.60221,-0.03905 0.90821,-0.03906 0.29946,1.4e-5 0.5436,0.01629 0.73242,0.04883 0.18879,0.03257 0.33853,0.07651 0.44922,0.131836 0.11066,0.05535 0.18716,0.120456 0.22949,0.195312 0.0423,0.07488 0.0635,0.154636 0.0635,0.239258 -2e-5,0.07814 -0.0212,0.161146 -0.0635,0.249023 -0.0423,0.0879 -0.11232,0.170912 -0.20996,0.249024 -0.0977,0.07814 -0.22462,0.146497 -0.38086,0.205078 -0.15626,0.05861 -0.35158,0.09767 -0.58594,0.117188 -0.0586,0.01303 -0.1937,0.03745 -0.40527,0.07324 -0.2116,0.03582 -0.44109,0.07488 -0.68848,0.117187 -0.24741,0.04233 -0.48178,0.08302 -0.70312,0.122071 -0.22137,0.03907 -0.37436,0.06837 -0.45899,0.08789 l 0.01,0 c -0.0391,0.0065 -0.13185,0.03094 -0.27832,0.07324 -0.1465,0.04233 -0.3239,0.09116 -0.53223,0.146485 -0.20834,0.05535 -0.43458,0.118827 -0.67871,0.190429 -0.24415,0.07163 -0.48503,0.141614 -0.72265,0.209961 -0.23764,0.06837 -0.45737,0.133475 -0.65918,0.195313 -0.20184,0.06186 -0.3646,0.112316 -0.48829,0.151367 -0.39714,0.156261 -0.70801,0.362967 -0.93261,0.620117 -0.22462,0.257172 -0.40203,0.545258 -0.53223,0.864258 -0.026,0.0586 -0.0651,0.157887 -0.11719,0.297852 -0.0521,0.139983 -0.10905,0.299488 -0.1709,0.478515 -0.0619,0.179045 -0.12858,0.369475 -0.20019,0.571289 -0.0716,0.201831 -0.13998,0.393888 -0.20508,0.576172 -0.0651,0.182299 -0.12207,0.348315 -0.1709,0.498047 -0.0488,0.149747 -0.083,0.260424 -0.10254,0.332031 -0.0195,0.06511 -0.0326,0.123705 -0.0391,0.175782 -0.007,0.05209 -0.01,0.09115 -0.01,0.117187 -1e-5,0.03907 0.01,0.0586 0.0293,0.05859 0.0977,6e-6 0.3011,-0.04394 0.61035,-0.131836 0.30924,-0.08788 0.67057,-0.196933 1.08399,-0.327149 0.4134,-0.130201 0.85611,-0.270175 1.32812,-0.419921 0.472,-0.149732 0.92447,-0.289706 1.35743,-0.419922 0.43293,-0.130201 0.81867,-0.23925 1.15722,-0.327149 0.33853,-0.08788 0.58267,-0.131827 0.73242,-0.131836 0.22786,9e-6 0.38085,0.03744 0.45899,0.112305 0.0781,0.07488 0.11717,0.157886 0.11719,0.249023 -2e-5,0.234383 -0.083,0.439461 -0.24903,0.615235 -0.16603,0.175788 -0.37273,0.328783 -0.62012,0.458984 -0.0781,0.03907 -0.22299,0.09604 -0.43457,0.170899 -0.21159,0.07488 -0.43946,0.151373 -0.68359,0.229492 -0.24415,0.07813 -0.4769,0.153001 -0.69824,0.224609 -0.22136,0.07162 -0.38087,0.123704 -0.47852,0.15625 -0.63803,0.247402 -1.15723,0.450852 -1.55761,0.610352 -0.4004,0.15951 -0.72429,0.289718 -0.97168,0.390625 -0.24741,0.100916 -0.43784,0.177414 -0.57129,0.229492 -0.13347,0.05209 -0.25717,0.09603 -0.3711,0.131836 -0.11393,0.03581 -0.23926,0.06999 -0.37597,0.102539 -0.13673,0.03256 -0.32553,0.07813 -0.56641,0.136719 -0.0586,0.136723 -0.12696,0.343428 -0.20508,0.620117 -0.0781,0.276696 -0.153,0.563154 -0.22461,0.859375 -0.0716,0.296227 -0.13184,0.571291 -0.18066,0.825195 -0.0488,0.253908 -0.0733,0.429689 -0.0732,0.527344 -1e-5,0.117189 0.0163,0.203452 0.0488,0.258789 0.0326,0.05534 0.0716,0.09278 0.11719,0.112305 0.0456,0.01953 0.0911,0.0293 0.13672,0.0293 0.0456,1e-6 0.0814,1e-6 0.10742,0 0.3125,1e-6 0.68847,-0.04557 1.12793,-0.136719 0.43945,-0.09114 0.87402,-0.211587 1.30371,-0.361328 0.41015,-0.143228 0.76823,-0.299477 1.07422,-0.46875 0.30598,-0.169269 0.59407,-0.327146 0.86426,-0.473633 0.27017,-0.146482 0.53384,-0.270179 0.79102,-0.371094 0.25715,-0.100908 0.53872,-0.154619 0.84472,-0.161133 0.0651,4e-6 0.14159,0.0065 0.22949,0.01953 0.0879,0.01302 0.17089,0.03744 0.24903,0.07324 0.0781,0.03581 0.14159,0.08301 0.19043,0.141601 0.0488,0.0586 0.0667,0.133467 0.0537,0.22461 -0.026,0.188804 -0.12046,0.374351 -0.2832,0.55664 -0.16278,0.182294 -0.36785,0.358075 -0.61524,0.527344 -0.2474,0.169272 -0.5241,0.332033 -0.83008,0.488281 -0.306,0.156251 -0.6185,0.304363 -0.9375,0.444336 -0.31902,0.139975 -0.63152,0.266928 -0.9375,0.38086 -0.30599,0.113932 -0.57943,0.213216 -0.82031,0.297851 -0.59896,0.208333 -1.18165,0.361328 -1.74805,0.458985 -0.56641,0.09766 -1.07422,0.146483 -1.52343,0.146484 -0.4948,-10e-7 -0.87403,-0.09277 -1.1377,-0.27832 -0.26367,-0.185547 -0.39551,-0.493164 -0.39551,-0.922852 z"
       style=""
       id="path3927" />
    <path
       d="m 123.15741,74.26368 c 0.37109,-1.490883 0.75521,-2.963863 1.15234,-4.418946 0.39714,-1.455071 0.78125,-2.928051 1.15235,-4.418945 0.0456,-0.195302 0.0911,-0.380849 0.13672,-0.556641 0.0456,-0.17577 0.0879,-0.351551 0.12695,-0.527343 0.0391,-0.17577 0.07,-0.353179 0.0928,-0.532227 0.0228,-0.179025 0.0342,-0.366199 0.0342,-0.561523 0,-0.149728 -0.01,-0.286446 -0.0293,-0.410157 -0.0195,-0.123685 -0.0293,-0.263659 -0.0293,-0.419922 -10e-6,-0.149726 0.0195,-0.309231 0.0586,-0.478515 0.0977,-0.397122 0.236,-0.693345 0.41504,-0.888672 0.17903,-0.195298 0.45084,-0.292954 0.81543,-0.292969 0.14974,1.5e-5 0.29459,0.01466 0.43457,0.04395 0.13997,0.02931 0.27832,0.06349 0.41504,0.10254 0.14973,0.04559 0.30436,0.08465 0.46387,0.117187 0.1595,0.03257 0.32063,0.04884 0.4834,0.04883 0.1302,1.5e-5 0.25715,-0.0065 0.38086,-0.01953 0.12369,-0.01301 0.26529,-0.02603 0.4248,-0.03906 0.1595,-0.01301 0.3483,-0.02603 0.56641,-0.03906 0.21809,-0.01301 0.49315,-0.01952 0.82519,-0.01953 0.18228,1.4e-5 0.39713,0.0065 0.64453,0.01953 0.24739,0.01303 0.50455,0.04233 0.77149,0.08789 0.26691,0.04559 0.5371,0.112319 0.81054,0.200195 0.27343,0.0879 0.52896,0.20672 0.76661,0.356445 0.23761,0.149753 0.44757,0.333673 0.62988,0.551758 0.18228,0.218112 0.319,0.480156 0.41016,0.786133 0.0456,0.149752 0.0765,0.28647 0.0928,0.410156 0.0163,0.12371 0.0244,0.244153 0.0244,0.361328 -1e-5,0.397147 -0.10092,0.787772 -0.30273,1.171875 -0.22788,0.436208 -0.5355,0.844736 -0.92285,1.225586 -0.38739,0.380868 -0.83823,0.740569 -1.35254,1.079102 -0.20184,0.136727 -0.43621,0.278328 -0.70313,0.424804 -0.26693,0.146492 -0.52898,0.286466 -0.78613,0.419922 -0.25717,0.133471 -0.48829,0.255541 -0.69336,0.366211 -0.20509,0.110684 -0.34669,0.19532 -0.4248,0.253906 0.22785,0.110684 0.45572,0.226244 0.68359,0.34668 0.22785,0.120449 0.4606,0.265306 0.69824,0.43457 0.23762,0.169277 0.47851,0.374355 0.72266,0.615235 0.24413,0.24089 0.49803,0.535486 0.76172,0.883789 0.26366,0.348311 0.53709,0.760095 0.82031,1.235351 0.28319,0.475264 0.57779,1.035159 0.88379,1.679688 0.0781,0.156251 0.11717,0.322267 0.11719,0.498047 -2e-5,0.13672 -0.0277,0.273438 -0.083,0.410156 -0.0554,0.136719 -0.13022,0.260417 -0.22461,0.371094 -0.0944,0.110677 -0.20672,0.200195 -0.33692,0.268554 -0.13022,0.06836 -0.27019,0.102539 -0.41992,0.10254 -0.22787,-10e-7 -0.41668,-0.08464 -0.5664,-0.253907 -0.14975,-0.16927 -0.29298,-0.390624 -0.42969,-0.664062 -0.13673,-0.273437 -0.27833,-0.582681 -0.42481,-0.927735 -0.14649,-0.34505 -0.32715,-0.693356 -0.54199,-1.044921 -0.23438,-0.377601 -0.49317,-0.735674 -0.77636,-1.074219 -0.28322,-0.338538 -0.58432,-0.631506 -0.90333,-0.878906 -0.31901,-0.247391 -0.64779,-0.444331 -0.98632,-0.590821 -0.33855,-0.146479 -0.67709,-0.219721 -1.01563,-0.219726 l -0.14648,0 c -0.20183,5e-6 -0.3825,0.01791 -0.54199,0.05371 -0.15952,0.03581 -0.31414,0.06674 -0.46387,0.09277 -0.20183,-0.07161 -0.34831,-0.188796 -0.43946,-0.351562 -0.0911,-0.162755 -0.13672,-0.345046 -0.13671,-0.546875 l 0,-0.136719 -0.78125,3.076172 c -0.026,0.09766 -0.0619,0.231123 -0.10743,0.40039 -0.0456,0.169274 -0.0977,0.354821 -0.15625,0.556641 -0.0586,0.201825 -0.11882,0.413413 -0.18066,0.634766 -0.0619,0.221355 -0.12045,0.429688 -0.17578,0.625 -0.0553,0.195313 -0.10417,0.371094 -0.14649,0.527343 -0.0423,0.156251 -0.0732,0.273438 -0.0928,0.351563 -0.0911,0.16276 -0.20671,0.291341 -0.34668,0.385742 -0.13998,0.0944 -0.29134,0.141601 -0.4541,0.141602 -0.28646,-10e-7 -0.48503,-0.08626 -0.5957,-0.25879 -0.11068,-0.172525 -0.16602,-0.37272 -0.16602,-0.600585 0,-0.09115 0.007,-0.183919 0.0195,-0.278321 0.013,-0.0944 0.0293,-0.183918 0.0488,-0.268554 z m 4.79492,-11.015625 c -0.0391,0.13022 -0.096,0.319022 -0.1709,0.566406 -0.0749,0.247407 -0.15788,0.527355 -0.24902,0.839844 -0.0911,0.31251 -0.18881,0.647796 -0.29297,1.005859 -0.10417,0.358082 -0.20834,0.717782 -0.3125,1.079101 -0.10417,0.361337 -0.20508,0.711272 -0.30273,1.049805 -0.0977,0.338549 -0.18555,0.641283 -0.26367,0.908203 0.1302,-0.169264 0.32551,-0.320631 0.58593,-0.454101 0.26041,-0.133456 0.55338,-0.258782 0.87891,-0.375977 0.2539,-0.09114 0.5664,-0.219719 0.9375,-0.385742 0.37108,-0.166008 0.76008,-0.356437 1.16699,-0.571289 0.40689,-0.214835 0.81379,-0.447582 1.2207,-0.698242 0.4069,-0.250642 0.77148,-0.507803 1.09375,-0.771485 0.32226,-0.263661 0.5843,-0.527333 0.78614,-0.791015 0.20181,-0.263661 0.30272,-0.519195 0.30273,-0.766602 -1e-5,-0.240873 -0.0847,-0.431303 -0.2539,-0.571289 -0.16929,-0.139962 -0.38088,-0.245756 -0.63477,-0.317383 -0.25392,-0.0716 -0.53224,-0.118802 -0.83496,-0.141601 -0.30275,-0.02277 -0.58432,-0.03417 -0.84473,-0.03418 -0.46876,1.3e-5 -0.93751,0.02931 -1.40625,0.08789 -0.46876,0.05861 -0.93751,0.172538 -1.40625,0.341797 z"
       style=""
       id="path3929" />
    <path
       d="m 136.86835,74.771492 c 0,-0.227864 0.0326,-0.468749 0.0977,-0.722656 0.22136,-0.885415 0.48014,-1.752927 0.77637,-2.602539 0.29622,-0.849605 0.56478,-1.694331 0.80567,-2.53418 0.24088,-0.839836 0.44107,-1.547843 0.60058,-2.124023 0.1595,-0.576163 0.3011,-1.070954 0.42481,-1.484375 0.12369,-0.413401 0.23762,-0.769846 0.34179,-1.069336 0.10416,-0.299468 0.2181,-0.595692 0.3418,-0.888672 0.0781,-0.175769 0.16438,-0.358061 0.25879,-0.546875 0.0944,-0.188789 0.19693,-0.362943 0.30762,-0.522461 0.11067,-0.159492 0.22623,-0.2897 0.34668,-0.390625 0.12043,-0.100898 0.24576,-0.151354 0.37597,-0.151367 0.26692,1.3e-5 0.47037,0.04396 0.61035,0.131836 0.13997,0.0879 0.22623,0.167656 0.25879,0.239257 l 0.0879,0.400391 c 0.0977,-0.0065 0.22461,-0.0244 0.38086,-0.05371 0.15624,-0.02928 0.31412,-0.06021 0.47364,-0.09277 0.15949,-0.03254 0.3076,-0.06509 0.44433,-0.09766 0.13671,-0.03254 0.24088,-0.06184 0.3125,-0.08789 0.42968,-0.117174 0.82681,-0.218086 1.19141,-0.302735 0.36457,-0.08462 0.71125,-0.154608 1.04004,-0.209961 0.32876,-0.05532 0.64289,-0.09601 0.94238,-0.12207 0.29947,-0.02603 0.6022,-0.03905 0.9082,-0.03906 0.29947,1.4e-5 0.54361,0.01629 0.73242,0.04883 0.18879,0.03257 0.33853,0.07651 0.44922,0.131836 0.11067,0.05535 0.18716,0.120456 0.2295,0.195312 0.0423,0.07488 0.0635,0.154636 0.0635,0.239258 -1e-5,0.07814 -0.0212,0.161146 -0.0635,0.249023 -0.0423,0.0879 -0.11232,0.170912 -0.20997,0.249024 -0.0977,0.07814 -0.22462,0.146497 -0.38085,0.205078 -0.15627,0.05861 -0.35158,0.09767 -0.58594,0.117188 -0.0586,0.01303 -0.1937,0.03745 -0.40528,0.07324 -0.2116,0.03582 -0.44109,0.07488 -0.68847,0.117187 -0.24741,0.04233 -0.48178,0.08302 -0.70313,0.122071 -0.22136,0.03907 -0.37436,0.06837 -0.45898,0.08789 l 0.01,0 c -0.0391,0.0065 -0.13184,0.03094 -0.27832,0.07324 -0.14649,0.04233 -0.3239,0.09116 -0.53222,0.146485 -0.20835,0.05535 -0.43458,0.118827 -0.67871,0.190429 -0.24415,0.07163 -0.48504,0.141614 -0.72266,0.209961 -0.23764,0.06837 -0.45737,0.133475 -0.65918,0.195313 -0.20183,0.06186 -0.36459,0.112316 -0.48828,0.151367 -0.39714,0.156261 -0.70802,0.362967 -0.93262,0.620117 -0.22461,0.257172 -0.40202,0.545258 -0.53222,0.864258 -0.026,0.0586 -0.0651,0.157887 -0.11719,0.297852 -0.0521,0.139983 -0.10906,0.299488 -0.1709,0.478515 -0.0619,0.179045 -0.12859,0.369475 -0.2002,0.571289 -0.0716,0.201831 -0.13998,0.393888 -0.20507,0.576172 -0.0651,0.182299 -0.12208,0.348315 -0.1709,0.498047 -0.0488,0.149747 -0.083,0.260424 -0.10254,0.332031 -0.0195,0.06511 -0.0326,0.123705 -0.0391,0.175782 -0.007,0.05209 -0.01,0.09115 -0.01,0.117187 0,0.03907 0.01,0.0586 0.0293,0.05859 0.0976,6e-6 0.3011,-0.04394 0.61035,-0.131836 0.30924,-0.08788 0.67057,-0.196933 1.08398,-0.327149 0.41341,-0.130201 0.85612,-0.270175 1.32813,-0.419921 0.47199,-0.149732 0.92447,-0.289706 1.35742,-0.419922 0.43293,-0.130201 0.81867,-0.23925 1.15723,-0.327149 0.33853,-0.08788 0.58267,-0.131827 0.73242,-0.131836 0.22785,9e-6 0.38085,0.03744 0.45898,0.112305 0.0781,0.07488 0.11718,0.157886 0.11719,0.249023 -1e-5,0.234383 -0.083,0.439461 -0.24902,0.615235 -0.16603,0.175788 -0.37274,0.328783 -0.62012,0.458984 -0.0781,0.03907 -0.22299,0.09604 -0.43457,0.170899 -0.2116,0.07488 -0.43946,0.151373 -0.68359,0.229492 -0.24415,0.07813 -0.4769,0.153001 -0.69825,0.224609 -0.22136,0.07162 -0.38087,0.123704 -0.47851,0.15625 -0.63803,0.247402 -1.15724,0.450852 -1.55762,0.610352 -0.4004,0.15951 -0.72429,0.289718 -0.97168,0.390625 -0.2474,0.100916 -0.43783,0.177414 -0.57129,0.229492 -0.13347,0.05209 -0.25717,0.09603 -0.37109,0.131836 -0.11394,0.03581 -0.23926,0.06999 -0.37598,0.102539 -0.13672,0.03256 -0.32552,0.07813 -0.5664,0.136719 -0.0586,0.136723 -0.12696,0.343428 -0.20508,0.620117 -0.0781,0.276696 -0.153,0.563154 -0.22461,0.859375 -0.0716,0.296227 -0.13184,0.571291 -0.18067,0.825195 -0.0488,0.253908 -0.0732,0.429689 -0.0732,0.527344 0,0.117189 0.0163,0.203452 0.0488,0.258789 0.0325,0.05534 0.0716,0.09278 0.11719,0.112305 0.0456,0.01953 0.0911,0.0293 0.13672,0.0293 0.0456,1e-6 0.0814,1e-6 0.10742,0 0.31249,1e-6 0.68847,-0.04557 1.12793,-0.136719 0.43944,-0.09114 0.87401,-0.211587 1.30371,-0.361328 0.41015,-0.143228 0.76822,-0.299477 1.07422,-0.46875 0.30598,-0.169269 0.59406,-0.327146 0.86426,-0.473633 0.27017,-0.146482 0.53384,-0.270179 0.79101,-0.371094 0.25715,-0.100908 0.53873,-0.154619 0.84473,-0.161133 0.0651,4e-6 0.14159,0.0065 0.22949,0.01953 0.0879,0.01302 0.17089,0.03744 0.24902,0.07324 0.0781,0.03581 0.14159,0.08301 0.19043,0.141601 0.0488,0.0586 0.0667,0.133467 0.0537,0.22461 -0.026,0.188804 -0.12045,0.374351 -0.2832,0.55664 -0.16277,0.182294 -0.36785,0.358075 -0.61523,0.527344 -0.24741,0.169272 -0.5241,0.332033 -0.83008,0.488281 -0.306,0.156251 -0.6185,0.304363 -0.9375,0.444336 -0.31902,0.139975 -0.63152,0.266928 -0.9375,0.38086 -0.306,0.113932 -0.57944,0.213216 -0.82031,0.297851 -0.59897,0.208333 -1.18165,0.361328 -1.74805,0.458985 -0.56641,0.09766 -1.07422,0.146483 -1.52344,0.146484 -0.49479,-10e-7 -0.87402,-0.09277 -1.13769,-0.27832 -0.26368,-0.185547 -0.39551,-0.493164 -0.39551,-0.922852 z"
       style=""
       id="path3931" />
    <path
       d="m 39.553895,125.60157 c -0.136729,0 -0.257172,-0.026 -0.361328,-0.0781 -0.104177,-0.0521 -0.19044,-0.12045 -0.258789,-0.20508 -0.06837,-0.0846 -0.120453,-0.18229 -0.15625,-0.29297 -0.03582,-0.11068 -0.05372,-0.22136 -0.05371,-0.33203 -10e-6,-0.0977 0.02603,-0.23275 0.07813,-0.40528 0.05207,-0.17252 0.118805,-0.36621 0.200195,-0.58105 0.08137,-0.21484 0.170888,-0.43945 0.268555,-0.67383 0.09765,-0.23437 0.192047,-0.45898 0.283203,-0.67383 0.09114,-0.21484 0.16926,-0.41341 0.234375,-0.5957 0.06509,-0.18229 0.110666,-0.32552 0.136719,-0.42969 0.02603,-0.11718 0.05858,-0.25716 0.09766,-0.41992 0.03905,-0.16276 0.083,-0.34016 0.131836,-0.53223 0.04882,-0.19205 0.09764,-0.39387 0.146484,-0.60547 0.04882,-0.21158 0.09927,-0.42479 0.151367,-0.63964 -0.09116,0.0195 -0.203461,0.0374 -0.336914,0.0537 -0.133474,0.0163 -0.275076,0.0309 -0.424804,0.0439 -0.214855,0.0195 -0.426443,0.0488 -0.634766,0.0879 -0.208343,0.0391 -0.421559,0.083 -0.639648,0.13184 -0.218109,0.0488 -0.444345,0.10092 -0.678711,0.15625 -0.234384,0.0553 -0.485035,0.11231 -0.751953,0.1709 -0.390633,0.0846 -0.781258,0.17904 -1.171875,0.2832 -0.390632,0.10417 -0.797533,0.15626 -1.220704,0.15625 -0.130213,1e-5 -0.250656,-0.0342 -0.361328,-0.10254 -0.110682,-0.0684 -0.23438,-0.11881 -0.371093,-0.15137 -0.130214,0.20834 -0.253911,0.43132 -0.371094,0.66895 -0.117192,0.23763 -0.224614,0.48178 -0.322266,0.73242 -0.09766,0.25066 -0.185551,0.49805 -0.263672,0.74219 -0.07813,0.24414 -0.146488,0.47363 -0.205078,0.68848 -0.03256,0.11719 -0.06022,0.26855 -0.08301,0.4541 -0.02279,0.18555 -0.04395,0.37435 -0.06348,0.5664 -0.01953,0.19206 -0.03907,0.37598 -0.05859,0.55176 -0.01953,0.17578 -0.03907,0.31576 -0.05859,0.41992 -0.01953,0.0977 -0.0586,0.19369 -0.117187,0.28809 -0.0586,0.0944 -0.130212,0.18066 -0.214844,0.25879 -0.08464,0.0781 -0.179039,0.1416 -0.283203,0.19043 -0.10417,0.0488 -0.208336,0.0732 -0.3125,0.0732 -0.182294,0 -0.330406,-0.0537 -0.444336,-0.16113 -0.113934,-0.10742 -0.20508,-0.24089 -0.273437,-0.40039 -0.06836,-0.15951 -0.115562,-0.33366 -0.141602,-0.52246 -0.02604,-0.18881 -0.03906,-0.36133 -0.03906,-0.51758 -10e-7,-0.39714 0.04883,-0.80892 0.146485,-1.23535 0.09765,-0.42643 0.22949,-0.85938 0.395508,-1.29883 0.166013,-0.43945 0.361325,-0.88216 0.585937,-1.32813 0.224606,-0.44595 0.467119,-0.89029 0.727539,-1.333 0.21484,-0.39713 0.481767,-0.85612 0.800781,-1.37696 0.319006,-0.52082 0.675451,-1.0563 1.069336,-1.60644 0.393875,-0.55012 0.820307,-1.08886 1.279297,-1.61621 0.458977,-0.52734 0.935865,-0.99771 1.430664,-1.41114 0.494783,-0.4134 1.002595,-0.74705 1.523438,-1.00097 0.520823,-0.2539 1.038401,-0.38085 1.552734,-0.38086 0.540353,1e-5 0.991199,0.0977 1.352539,0.29297 0.361315,0.19532 0.649401,0.45899 0.864258,0.79101 0.21483,0.33205 0.366197,0.71941 0.454102,1.16211 0.08788,0.44272 0.131822,0.91147 0.131836,1.40625 -1.4e-5,0.43621 -0.02768,0.88543 -0.08301,1.34766 -0.05535,0.46225 -0.123712,0.91472 -0.205078,1.35742 -0.08139,0.44271 -0.169285,0.86915 -0.263672,1.2793 -0.09441,0.41016 -0.180678,0.78125 -0.258789,1.11328 l -0.341797,1.32812 c -0.01303,0.0391 -0.03745,0.11719 -0.07324,0.23438 -0.03582,0.11719 -0.08139,0.25879 -0.136719,0.4248 -0.05535,0.16602 -0.1172,0.34506 -0.185547,0.53711 -0.06837,0.19206 -0.136731,0.38086 -0.205078,0.56641 -0.06837,0.18555 -0.133476,0.35644 -0.195313,0.51269 -0.06186,0.15625 -0.115571,0.28321 -0.161132,0.38086 l 0.0098,-0.01 c -0.04558,0.16927 -0.09441,0.34179 -0.146484,0.51757 -0.05209,0.17579 -0.12371,0.33366 -0.214844,0.47364 -0.09116,0.13997 -0.208345,0.2539 -0.351562,0.34179 -0.143241,0.0879 -0.328787,0.13184 -0.556641,0.13184 z m 0.498047,-12.22656 c -0.29298,1e-5 -0.584321,0.0602 -0.874024,0.18066 -0.289723,0.12046 -0.574554,0.27833 -0.854492,0.47363 -0.279957,0.19533 -0.551766,0.42319 -0.815429,0.6836 -0.263681,0.26043 -0.514331,0.52735 -0.751954,0.80078 -0.237637,0.27345 -0.460619,0.54851 -0.668945,0.82519 -0.20834,0.27671 -0.397142,0.53224 -0.566406,0.76661 -0.02605,0.0391 -0.06023,0.0895 -0.102539,0.15136 -0.04232,0.0619 -0.08464,0.13022 -0.126953,0.20508 -0.04232,0.0749 -0.08301,0.153 -0.122071,0.23438 -0.03907,0.0814 -0.07162,0.15463 -0.09766,0.21972 l 1.005859,0 c 0.364576,1e-5 0.781243,-0.026 1.25,-0.0781 0.468742,-0.0521 0.932608,-0.11393 1.391602,-0.18555 0.458974,-0.0716 0.880523,-0.14485 1.264648,-0.21973 0.384104,-0.0749 0.673817,-0.13182 0.869141,-0.17089 0.02603,-0.0846 0.05044,-0.19856 0.07324,-0.3418 0.02278,-0.14322 0.04393,-0.30273 0.06348,-0.47852 0.01952,-0.17577 0.03417,-0.36294 0.04395,-0.56152 0.0098,-0.19856 0.01464,-0.40201 0.01465,-0.61035 -1.3e-5,-0.16926 -0.0065,-0.36295 -0.01953,-0.58106 -0.01303,-0.21808 -0.0521,-0.42479 -0.117187,-0.62011 -0.06512,-0.1953 -0.1644,-0.35969 -0.297852,-0.49317 -0.133475,-0.13345 -0.320649,-0.20018 -0.561523,-0.20019 z"
       style=""
       id="path3953" />
    <path
       d="m 45.032411,124.26368 c 0.371091,-1.49088 0.755205,-2.96386 1.152343,-4.41895 0.397132,-1.45507 0.781246,-2.92805 1.152344,-4.41894 0.04557,-0.1953 0.09114,-0.38085 0.136719,-0.55664 0.04557,-0.17577 0.08789,-0.35155 0.126953,-0.52735 0.03906,-0.17577 0.06998,-0.35317 0.09277,-0.53222 0.02278,-0.17903 0.03418,-0.3662 0.03418,-0.56153 -5e-6,-0.14972 -0.0098,-0.28644 -0.0293,-0.41015 -0.01954,-0.12369 -0.0293,-0.26366 -0.0293,-0.41992 -5e-6,-0.14973 0.01953,-0.30924 0.05859,-0.47852 0.09765,-0.39712 0.235997,-0.69334 0.415039,-0.88867 0.179031,-0.1953 0.450841,-0.29296 0.81543,-0.29297 0.149733,1e-5 0.29459,0.0147 0.43457,0.044 0.139967,0.0293 0.278314,0.0635 0.415039,0.10253 0.149733,0.0456 0.304355,0.0846 0.463867,0.11719 0.159498,0.0326 0.320631,0.0488 0.483399,0.0488 0.1302,1e-5 0.257153,-0.006 0.380859,-0.0195 0.12369,-0.013 0.265291,-0.026 0.424805,-0.0391 0.159496,-0.013 0.348298,-0.026 0.566406,-0.0391 0.21809,-0.013 0.493154,-0.0195 0.825195,-0.0195 0.182282,2e-5 0.397125,0.007 0.644532,0.0195 0.247384,0.013 0.504546,0.0423 0.771484,0.0879 0.266915,0.0456 0.537097,0.11232 0.810547,0.2002 0.273425,0.0879 0.528958,0.20672 0.766602,0.35645 0.237616,0.14975 0.447577,0.33367 0.629882,0.55175 0.182278,0.21812 0.318997,0.48016 0.410157,0.78614 0.04556,0.14975 0.07648,0.28647 0.09277,0.41015 0.01626,0.12371 0.0244,0.24415 0.02441,0.36133 -1.4e-5,0.39715 -0.100926,0.78777 -0.302734,1.17188 -0.227879,0.4362 -0.535496,0.84473 -0.922852,1.22558 -0.387382,0.38087 -0.838228,0.74057 -1.352539,1.0791 -0.201834,0.13673 -0.436209,0.27833 -0.703125,0.42481 -0.266938,0.14649 -0.528982,0.28646 -0.786133,0.41992 -0.257171,0.13347 -0.488291,0.25554 -0.693359,0.36621 -0.205088,0.11068 -0.346689,0.19532 -0.424805,0.25391 0.227855,0.11068 0.45572,0.22624 0.683594,0.34668 0.227854,0.12045 0.460602,0.2653 0.698242,0.43457 0.23762,0.16927 0.478505,0.37435 0.722656,0.61523 0.24413,0.24089 0.498035,0.53549 0.761719,0.88379 0.26366,0.34831 0.537097,0.76009 0.820313,1.23535 0.28319,0.47526 0.577786,1.03516 0.883789,1.67969 0.07811,0.15625 0.117173,0.32227 0.117187,0.49805 -1.4e-5,0.13672 -0.02768,0.27343 -0.08301,0.41015 -0.05535,0.13672 -0.130222,0.26042 -0.224609,0.3711 -0.09441,0.11067 -0.206719,0.20019 -0.336914,0.26855 -0.130221,0.0684 -0.270195,0.10254 -0.419922,0.10254 -0.227877,0 -0.416679,-0.0846 -0.566406,-0.25391 -0.149752,-0.16927 -0.292981,-0.39062 -0.429688,-0.66406 -0.13673,-0.27344 -0.278331,-0.58268 -0.424804,-0.92773 -0.146496,-0.34505 -0.32716,-0.69336 -0.541993,-1.04493 -0.234385,-0.3776 -0.493174,-0.73567 -0.776367,-1.07421 -0.283213,-0.33854 -0.584319,-0.63151 -0.90332,-0.87891 -0.319019,-0.24739 -0.647795,-0.44433 -0.986328,-0.59082 -0.33855,-0.14648 -0.677091,-0.21972 -1.015625,-0.21973 l -0.146485,0 c -0.201829,1e-5 -0.382493,0.0179 -0.541992,0.0537 -0.159511,0.0358 -0.314133,0.0667 -0.463867,0.0928 -0.201829,-0.0716 -0.348313,-0.1888 -0.439453,-0.35157 -0.09115,-0.16275 -0.136724,-0.34504 -0.136719,-0.54687 l 0,-0.13672 -0.78125,3.07617 c -0.02605,0.0977 -0.06185,0.23113 -0.107422,0.40039 -0.04558,0.16928 -0.09766,0.35482 -0.15625,0.55664 -0.0586,0.20183 -0.118819,0.41342 -0.180664,0.63477 -0.06185,0.22136 -0.120447,0.42969 -0.175781,0.625 -0.05534,0.19531 -0.104171,0.37109 -0.146484,0.52734 -0.04232,0.15625 -0.07325,0.27344 -0.09277,0.35157 -0.09115,0.16276 -0.206709,0.29134 -0.346679,0.38574 -0.139978,0.0944 -0.291345,0.1416 -0.454102,0.1416 -0.286461,0 -0.485029,-0.0863 -0.595703,-0.25879 -0.11068,-0.17253 -0.166018,-0.37272 -0.166016,-0.60059 -2e-6,-0.0911 0.0065,-0.18391 0.01953,-0.27832 0.01302,-0.0944 0.0293,-0.18391 0.04883,-0.26855 z m 4.794921,-11.01563 c -0.03907,0.13022 -0.09604,0.31903 -0.170898,0.56641 -0.07488,0.24741 -0.157884,0.52736 -0.249023,0.83984 -0.09115,0.31252 -0.188809,0.6478 -0.292969,1.00586 -0.104173,0.35809 -0.20834,0.71779 -0.3125,1.07911 -0.104173,0.36133 -0.205084,0.71127 -0.302735,1.0498 -0.09766,0.33855 -0.185552,0.64128 -0.263671,0.9082 0.130202,-0.16926 0.325515,-0.32063 0.585937,-0.4541 0.26041,-0.13345 0.553379,-0.25878 0.878906,-0.37597 0.253899,-0.0911 0.566399,-0.21972 0.9375,-0.38575 0.371086,-0.166 0.760083,-0.35643 1.166993,-0.57129 0.406891,-0.21483 0.813792,-0.44758 1.220703,-0.69824 0.40689,-0.25064 0.771473,-0.5078 1.09375,-0.77148 0.322254,-0.26366 0.584298,-0.52734 0.786132,-0.79102 0.201811,-0.26366 0.302722,-0.51919 0.302735,-0.7666 -1.3e-5,-0.24087 -0.08465,-0.4313 -0.253906,-0.57129 -0.169283,-0.13996 -0.380872,-0.24575 -0.634766,-0.31738 -0.253918,-0.0716 -0.532238,-0.1188 -0.834961,-0.1416 -0.302745,-0.0228 -0.58432,-0.0342 -0.844727,-0.0342 -0.468759,1e-5 -0.937508,0.0293 -1.40625,0.0879 -0.468758,0.0586 -0.937507,0.17254 -1.40625,0.34179 z"
       style=""
       id="path3955" />
    <path
       d="m 58.977723,124.26368 c 0.371091,-1.49088 0.755205,-2.96386 1.152344,-4.41895 0.397131,-1.45507 0.781246,-2.92805 1.152344,-4.41894 0.04557,-0.1953 0.09114,-0.38085 0.136718,-0.55664 0.04557,-0.17577 0.08789,-0.35155 0.126953,-0.52735 0.03906,-0.17577 0.06998,-0.35317 0.09277,-0.53222 0.02278,-0.17903 0.03418,-0.3662 0.03418,-0.56153 -5e-6,-0.14972 -0.0098,-0.28644 -0.0293,-0.41015 -0.01954,-0.12369 -0.0293,-0.26366 -0.0293,-0.41992 -5e-6,-0.14973 0.01953,-0.30924 0.05859,-0.47852 0.09765,-0.39712 0.235997,-0.69334 0.415039,-0.88867 0.179031,-0.1953 0.45084,-0.29296 0.815429,-0.29297 0.149734,1e-5 0.29459,0.0147 0.434571,0.044 0.139967,0.0293 0.278313,0.0635 0.415039,0.10253 0.149732,0.0456 0.304354,0.0846 0.463867,0.11719 0.159497,0.0326 0.32063,0.0488 0.483398,0.0488 0.130201,1e-5 0.257154,-0.006 0.38086,-0.0195 0.123689,-0.013 0.265291,-0.026 0.424804,-0.0391 0.159497,-0.013 0.348299,-0.026 0.566407,-0.0391 0.218089,-0.013 0.493154,-0.0195 0.825195,-0.0195 0.182281,2e-5 0.397125,0.007 0.644531,0.0195 0.247385,0.013 0.504546,0.0423 0.771485,0.0879 0.266915,0.0456 0.537097,0.11232 0.810546,0.2002 0.273425,0.0879 0.528959,0.20672 0.766602,0.35645 0.237617,0.14975 0.447578,0.33367 0.629883,0.55175 0.182277,0.21812 0.318996,0.48016 0.410156,0.78614 0.04556,0.14975 0.07648,0.28647 0.09277,0.41015 0.01626,0.12371 0.0244,0.24415 0.02441,0.36133 -1.5e-5,0.39715 -0.100926,0.78777 -0.302735,1.17188 -0.227878,0.4362 -0.535495,0.84473 -0.922851,1.22558 -0.387383,0.38087 -0.838229,0.74057 -1.352539,1.0791 -0.201835,0.13673 -0.43621,0.27833 -0.703125,0.42481 -0.266938,0.14649 -0.528982,0.28646 -0.786133,0.41992 -0.257172,0.13347 -0.488291,0.25554 -0.69336,0.36621 -0.205087,0.11068 -0.346689,0.19532 -0.424804,0.25391 0.227855,0.11068 0.455719,0.22624 0.683593,0.34668 0.227855,0.12045 0.460602,0.2653 0.698243,0.43457 0.237619,0.16927 0.478504,0.37435 0.722656,0.61523 0.244129,0.24089 0.498035,0.53549 0.761719,0.88379 0.263659,0.34831 0.537096,0.76009 0.820312,1.23535 0.28319,0.47526 0.577786,1.03516 0.883789,1.67969 0.07811,0.15625 0.117174,0.32227 0.117188,0.49805 -1.4e-5,0.13672 -0.02768,0.27343 -0.08301,0.41015 -0.05535,0.13672 -0.130222,0.26042 -0.224609,0.3711 -0.09441,0.11067 -0.20672,0.20019 -0.336915,0.26855 -0.130221,0.0684 -0.270195,0.10254 -0.419921,0.10254 -0.227878,0 -0.416679,-0.0846 -0.566407,-0.25391 -0.149751,-0.16927 -0.29298,-0.39062 -0.429687,-0.66406 -0.136731,-0.27344 -0.278332,-0.58268 -0.424805,-0.92773 -0.146495,-0.34505 -0.327159,-0.69336 -0.541992,-1.04493 -0.234386,-0.3776 -0.493174,-0.73567 -0.776367,-1.07421 -0.283213,-0.33854 -0.58432,-0.63151 -0.903321,-0.87891 -0.319019,-0.24739 -0.647795,-0.44433 -0.986328,-0.59082 -0.338549,-0.14648 -0.67709,-0.21972 -1.015625,-0.21973 l -0.146484,0 c -0.20183,1e-5 -0.382494,0.0179 -0.541992,0.0537 -0.159512,0.0358 -0.314134,0.0667 -0.463867,0.0928 -0.201829,-0.0716 -0.348313,-0.1888 -0.439454,-0.35157 -0.09115,-0.16275 -0.136724,-0.34504 -0.136718,-0.54687 l 0,-0.13672 -0.78125,3.07617 c -0.02605,0.0977 -0.06185,0.23113 -0.107422,0.40039 -0.04558,0.16928 -0.09766,0.35482 -0.15625,0.55664 -0.0586,0.20183 -0.11882,0.41342 -0.180664,0.63477 -0.06185,0.22136 -0.120447,0.42969 -0.175781,0.625 -0.05534,0.19531 -0.104171,0.37109 -0.146485,0.52734 -0.04232,0.15625 -0.07325,0.27344 -0.09277,0.35157 -0.09115,0.16276 -0.20671,0.29134 -0.34668,0.38574 -0.139977,0.0944 -0.291344,0.1416 -0.454102,0.1416 -0.286461,0 -0.485028,-0.0863 -0.595703,-0.25879 -0.110679,-0.17253 -0.166018,-0.37272 -0.166015,-0.60059 -3e-6,-0.0911 0.0065,-0.18391 0.01953,-0.27832 0.01302,-0.0944 0.0293,-0.18391 0.04883,-0.26855 z m 4.794922,-11.01563 c -0.03907,0.13022 -0.09604,0.31903 -0.170898,0.56641 -0.07488,0.24741 -0.157885,0.52736 -0.249024,0.83984 -0.09115,0.31252 -0.188808,0.6478 -0.292969,1.00586 -0.104173,0.35809 -0.208339,0.71779 -0.3125,1.07911 -0.104172,0.36133 -0.205084,0.71127 -0.302734,1.0498 -0.09766,0.33855 -0.185552,0.64128 -0.263672,0.9082 0.130203,-0.16926 0.325515,-0.32063 0.585938,-0.4541 0.26041,-0.13345 0.553378,-0.25878 0.878906,-0.37597 0.253899,-0.0911 0.566399,-0.21972 0.9375,-0.38575 0.371085,-0.166 0.760082,-0.35643 1.166992,-0.57129 0.406892,-0.21483 0.813792,-0.44758 1.220703,-0.69824 0.406891,-0.25064 0.771473,-0.5078 1.09375,-0.77148 0.322254,-0.26366 0.584298,-0.52734 0.786133,-0.79102 0.201811,-0.26366 0.302722,-0.51919 0.302734,-0.7666 -1.2e-5,-0.24087 -0.08465,-0.4313 -0.253906,-0.57129 -0.169283,-0.13996 -0.380871,-0.24575 -0.634766,-0.31738 -0.253917,-0.0716 -0.532237,-0.1188 -0.83496,-0.1416 -0.302745,-0.0228 -0.584321,-0.0342 -0.844727,-0.0342 -0.468759,1e-5 -0.937509,0.0293 -1.40625,0.0879 -0.468758,0.0586 -0.937508,0.17254 -1.40625,0.34179 z"
       style=""
       id="path3957" />
    <path
       d="m 81.272645,125.60157 c -0.136729,0 -0.257172,-0.026 -0.361328,-0.0781 -0.104177,-0.0521 -0.19044,-0.12045 -0.258789,-0.20508 -0.06837,-0.0846 -0.120453,-0.18229 -0.15625,-0.29297 -0.03582,-0.11068 -0.05372,-0.22136 -0.05371,-0.33203 -1e-5,-0.0977 0.02603,-0.23275 0.07813,-0.40528 0.05207,-0.17252 0.118805,-0.36621 0.200195,-0.58105 0.08137,-0.21484 0.170888,-0.43945 0.268555,-0.67383 0.09765,-0.23437 0.192047,-0.45898 0.283203,-0.67383 0.09114,-0.21484 0.16926,-0.41341 0.234375,-0.5957 0.06509,-0.18229 0.110666,-0.32552 0.136719,-0.42969 0.02603,-0.11718 0.05858,-0.25716 0.09766,-0.41992 0.03905,-0.16276 0.083,-0.34016 0.131836,-0.53223 0.04882,-0.19205 0.09764,-0.39387 0.146484,-0.60547 0.04882,-0.21158 0.09927,-0.42479 0.151367,-0.63964 -0.09116,0.0195 -0.203461,0.0374 -0.336914,0.0537 -0.133474,0.0163 -0.275076,0.0309 -0.424804,0.0439 -0.214855,0.0195 -0.426443,0.0488 -0.634766,0.0879 -0.208343,0.0391 -0.421559,0.083 -0.639648,0.13184 -0.218109,0.0488 -0.444345,0.10092 -0.678711,0.15625 -0.234384,0.0553 -0.485035,0.11231 -0.751953,0.1709 -0.390633,0.0846 -0.781258,0.17904 -1.171875,0.2832 -0.390632,0.10417 -0.797533,0.15626 -1.220704,0.15625 -0.130213,1e-5 -0.250656,-0.0342 -0.361328,-0.10254 -0.110682,-0.0684 -0.23438,-0.11881 -0.371093,-0.15137 -0.130214,0.20834 -0.253911,0.43132 -0.371094,0.66895 -0.117192,0.23763 -0.224614,0.48178 -0.322266,0.73242 -0.09766,0.25066 -0.185551,0.49805 -0.263672,0.74219 -0.07813,0.24414 -0.146488,0.47363 -0.205078,0.68848 -0.03256,0.11719 -0.06023,0.26855 -0.08301,0.4541 -0.02279,0.18555 -0.04395,0.37435 -0.06348,0.5664 -0.01953,0.19206 -0.03907,0.37598 -0.05859,0.55176 -0.01953,0.17578 -0.03907,0.31576 -0.05859,0.41992 -0.01953,0.0977 -0.0586,0.19369 -0.117187,0.28809 -0.0586,0.0944 -0.130212,0.18066 -0.214844,0.25879 -0.08464,0.0781 -0.179039,0.1416 -0.283203,0.19043 -0.10417,0.0488 -0.208336,0.0732 -0.3125,0.0732 -0.182294,0 -0.330406,-0.0537 -0.444336,-0.16113 -0.113934,-0.10742 -0.20508,-0.24089 -0.273437,-0.40039 -0.06836,-0.15951 -0.115562,-0.33366 -0.141602,-0.52246 -0.02604,-0.18881 -0.03906,-0.36133 -0.03906,-0.51758 -10e-7,-0.39714 0.04883,-0.80892 0.146485,-1.23535 0.09765,-0.42643 0.22949,-0.85938 0.395508,-1.29883 0.166013,-0.43945 0.361325,-0.88216 0.585937,-1.32813 0.224606,-0.44595 0.467119,-0.89029 0.727539,-1.333 0.21484,-0.39713 0.481767,-0.85612 0.800781,-1.37696 0.319006,-0.52082 0.675451,-1.0563 1.069336,-1.60644 0.393875,-0.55012 0.820307,-1.08886 1.279297,-1.61621 0.458977,-0.52734 0.935865,-0.99771 1.430664,-1.41114 0.494783,-0.4134 1.002595,-0.74705 1.523438,-1.00097 0.520823,-0.2539 1.038401,-0.38085 1.552734,-0.38086 0.540353,1e-5 0.991199,0.0977 1.352539,0.29297 0.361315,0.19532 0.649401,0.45899 0.864258,0.79101 0.21483,0.33205 0.366197,0.71941 0.454102,1.16211 0.08788,0.44272 0.131822,0.91147 0.131836,1.40625 -1.4e-5,0.43621 -0.02768,0.88543 -0.08301,1.34766 -0.05535,0.46225 -0.123712,0.91472 -0.205078,1.35742 -0.08139,0.44271 -0.169285,0.86915 -0.263672,1.2793 -0.09441,0.41016 -0.180678,0.78125 -0.258789,1.11328 l -0.341797,1.32812 c -0.01303,0.0391 -0.03745,0.11719 -0.07324,0.23438 -0.03582,0.11719 -0.08139,0.25879 -0.136719,0.4248 -0.05535,0.16602 -0.1172,0.34506 -0.185547,0.53711 -0.06837,0.19206 -0.136731,0.38086 -0.205078,0.56641 -0.06837,0.18555 -0.133476,0.35644 -0.195313,0.51269 -0.06186,0.15625 -0.115571,0.28321 -0.161132,0.38086 l 0.0098,-0.01 c -0.04559,0.16927 -0.09441,0.34179 -0.146484,0.51757 -0.05209,0.17579 -0.12371,0.33366 -0.214844,0.47364 -0.09116,0.13997 -0.208345,0.2539 -0.351562,0.34179 -0.143241,0.0879 -0.328787,0.13184 -0.556641,0.13184 z m 0.498047,-12.22656 c -0.29298,1e-5 -0.584321,0.0602 -0.874024,0.18066 -0.289723,0.12046 -0.574554,0.27833 -0.854492,0.47363 -0.279957,0.19533 -0.551766,0.42319 -0.815429,0.6836 -0.263681,0.26043 -0.514331,0.52735 -0.751954,0.80078 -0.237637,0.27345 -0.460619,0.54851 -0.668945,0.82519 -0.20834,0.27671 -0.397142,0.53224 -0.566406,0.76661 -0.02605,0.0391 -0.06023,0.0895 -0.102539,0.15136 -0.04232,0.0619 -0.08464,0.13022 -0.126953,0.20508 -0.04232,0.0749 -0.08301,0.153 -0.122071,0.23438 -0.03907,0.0814 -0.07162,0.15463 -0.09766,0.21972 l 1.005859,0 c 0.364576,1e-5 0.781243,-0.026 1.25,-0.0781 0.468742,-0.0521 0.932608,-0.11393 1.391602,-0.18555 0.458974,-0.0716 0.880523,-0.14485 1.264648,-0.21973 0.384104,-0.0749 0.673817,-0.13182 0.869141,-0.17089 0.02603,-0.0846 0.05044,-0.19856 0.07324,-0.3418 0.02277,-0.14322 0.04393,-0.30273 0.06348,-0.47852 0.01952,-0.17577 0.03417,-0.36294 0.04395,-0.56152 0.0098,-0.19856 0.01464,-0.40201 0.01465,-0.61035 -1.3e-5,-0.16926 -0.0065,-0.36295 -0.01953,-0.58106 -0.01303,-0.21808 -0.05209,-0.42479 -0.117187,-0.62011 -0.06512,-0.1953 -0.1644,-0.35969 -0.297852,-0.49317 -0.133475,-0.13345 -0.320649,-0.20018 -0.561523,-0.20019 z"
       style=""
       id="path3959" />
    <path
       d="m 89.544129,113.67774 c 0.03906,-0.16926 0.08789,-0.34992 0.146485,-0.54199 0.05859,-0.19204 0.136713,-0.36783 0.234375,-0.52734 0.09765,-0.1595 0.224603,-0.29296 0.380859,-0.40039 0.156244,-0.10741 0.354812,-0.16112 0.595703,-0.16114 0.227858,2e-5 0.431308,0.0635 0.610352,0.19043 0.179029,0.12697 0.340162,0.25555 0.483398,0.38574 0.169263,0.11069 0.332024,0.3353 0.488281,0.67383 0.156242,0.33856 0.317375,0.75522 0.483399,1.25 0.166007,0.4948 0.345043,1.0547 0.537109,1.67969 0.192048,0.62501 0.403637,1.2793 0.634766,1.96289 0.23111,0.6836 0.489899,1.38184 0.776367,2.09473 0.286448,0.71289 0.611968,1.40788 0.976563,2.08496 0.05858,0.10417 0.126941,0.22624 0.205078,0.36621 0.07811,0.13998 0.157866,0.27181 0.239258,0.39551 0.08137,0.1237 0.156237,0.22786 0.224609,0.3125 0.06835,0.0846 0.118803,0.12695 0.151367,0.12695 0.01952,0 0.04231,-0.0488 0.06836,-0.14648 0.02603,-0.0977 0.05533,-0.21485 0.08789,-0.35157 0.03254,-0.13671 0.06672,-0.27669 0.102539,-0.41992 0.03579,-0.14322 0.06997,-0.26041 0.102539,-0.35156 0.123685,-0.29948 0.258776,-0.6429 0.405274,-1.03027 0.146471,-0.38737 0.309231,-0.85612 0.488281,-1.40625 0.179023,-0.55013 0.375963,-1.2028 0.59082,-1.95801 0.21483,-0.7552 0.45246,-1.65038 0.712891,-2.68555 0.06509,-0.25389 0.135076,-0.54198 0.209961,-0.86426 0.07485,-0.32225 0.146469,-0.65103 0.214844,-0.98633 0.06834,-0.33527 0.128565,-0.66242 0.180664,-0.98144 0.05207,-0.319 0.08787,-0.59569 0.107421,-0.83008 -1.5e-5,-0.0391 0.0032,-0.10741 0.0098,-0.20508 0.0065,-0.0976 0.01789,-0.20832 0.03418,-0.33203 0.0163,-0.12368 0.0374,-0.25226 0.0635,-0.38574 0.026,-0.13345 0.0602,-0.25552 0.10254,-0.36621 0.0423,-0.11066 0.096,-0.20181 0.16114,-0.27344 0.0651,-0.0716 0.14321,-0.1074 0.23437,-0.10742 0.0911,2e-5 0.20344,0.013 0.33692,0.0391 0.13344,0.0261 0.25551,0.0651 0.36621,0.11719 0.12368,0.16929 0.23598,0.37274 0.33691,0.61035 0.10089,0.23765 0.15135,0.55828 0.15137,0.96192 -2e-5,0.25392 -0.0261,0.55828 -0.0781,0.91308 -0.0521,0.35483 -0.11883,0.73569 -0.20019,1.14258 -0.0814,0.40691 -0.17255,0.82521 -0.27344,1.25488 -0.10093,0.4297 -0.20347,0.84148 -0.30762,1.23535 -0.10418,0.39389 -0.20346,0.75522 -0.29785,1.08399 -0.0944,0.32878 -0.17417,0.60059 -0.23926,0.81543 -0.1172,0.37761 -0.23927,0.76661 -0.36621,1.16699 -0.126966,0.4004 -0.26694,0.82032 -0.41992,1.25977 -0.15301,0.43945 -0.319025,0.90495 -0.498047,1.39648 -0.179051,0.49154 -0.379246,1.01726 -0.600586,1.57715 -0.09767,0.25391 -0.209974,0.50781 -0.336914,0.76172 -0.126966,0.2539 -0.271823,0.4834 -0.43457,0.68847 -0.162773,0.20508 -0.346693,0.3711 -0.551758,0.49805 -0.20509,0.12695 -0.434582,0.19043 -0.688476,0.19043 -0.149752,0 -0.304374,-0.0212 -0.463867,-0.0635 -0.159517,-0.0423 -0.294608,-0.12858 -0.405274,-0.25879 -0.533865,-0.61848 -1.009125,-1.31998 -1.425781,-2.10449 -0.416676,-0.7845 -0.789397,-1.60481 -1.118164,-2.46094 -0.328785,-0.85611 -0.620125,-1.72199 -0.874024,-2.59765 -0.253913,-0.87564 -0.485033,-1.71386 -0.693359,-2.51465 l -0.05859,-0.22461 c -0.02605,-0.0911 -0.05046,-0.18391 -0.07324,-0.27832 -0.02279,-0.0944 -0.04558,-0.18065 -0.06836,-0.25879 -0.02279,-0.0781 -0.04883,-0.14159 -0.07813,-0.19043 -0.0293,-0.0488 -0.06348,-0.0732 -0.102539,-0.0732 -0.03907,1e-5 -0.0879,0.0716 -0.146485,0.21484 -0.0586,0.14324 -0.117194,0.30438 -0.175781,0.4834 -0.0586,0.17905 -0.112311,0.3532 -0.161133,0.52246 -0.04883,0.16928 -0.07976,0.2767 -0.09277,0.32227 -0.04558,0.16928 -0.113939,0.41179 -0.205078,0.72754 -0.09115,0.31576 -0.193691,0.67221 -0.307618,1.06933 -0.113937,0.39715 -0.237635,0.81707 -0.371093,1.25977 -0.133469,0.44271 -0.26205,0.87077 -0.385743,1.28418 -0.123702,0.41341 -0.24089,0.7959 -0.351562,1.14746 -0.110681,0.35157 -0.201827,0.63477 -0.273438,0.84961 -0.0586,0.16927 -0.130212,0.38737 -0.214843,0.6543 -0.08464,0.26692 -0.169275,0.53548 -0.253907,0.80566 -0.08464,0.27018 -0.162764,0.51595 -0.234375,0.7373 -0.07162,0.22136 -0.11719,0.36784 -0.136718,0.43946 -0.07813,0.24739 -0.193688,0.43457 -0.34668,0.56152 -0.152998,0.12695 -0.30762,0.19043 -0.463867,0.19043 -0.09766,0 -0.195315,-0.0342 -0.292969,-0.10254 -0.09766,-0.0684 -0.183921,-0.15137 -0.258789,-0.24902 -0.07487,-0.0977 -0.136721,-0.20345 -0.185547,-0.31738 -0.04883,-0.11394 -0.07324,-0.21648 -0.07324,-0.30762 -2e-6,-0.0521 0.01627,-0.13509 0.04883,-0.24903 0.03255,-0.11393 0.08463,-0.30761 0.15625,-0.58105 l 0.253906,-1.00586 z"
       style=""
       id="path3961" />
    <path
       d="m 113.01093,118.57032 c -0.0781,0.0195 -0.21812,0.0619 -0.41993,0.12695 -0.20183,0.0651 -0.4297,0.14161 -0.68359,0.2295 -0.25392,0.0879 -0.52247,0.18229 -0.80566,0.2832 -0.28322,0.10092 -0.55177,0.19532 -0.80567,0.2832 -0.25391,0.0879 -0.47527,0.1644 -0.66406,0.22949 -0.18881,0.0651 -0.31576,0.10743 -0.38086,0.12696 -0.0456,0.007 -0.10417,0.026 -0.17578,0.0586 -0.0716,0.0326 -0.14487,0.0651 -0.21973,0.0977 -0.0749,0.0326 -0.14649,0.0635 -0.21484,0.0928 -0.0684,0.0293 -0.12208,0.0439 -0.16113,0.0439 -0.13673,0 -0.2588,-0.0277 -0.36621,-0.083 -0.10743,-0.0553 -0.20021,-0.12858 -0.27833,-0.21973 -0.0781,-0.0911 -0.13672,-0.19856 -0.17578,-0.32226 -0.0391,-0.1237 -0.0586,-0.25065 -0.0586,-0.38086 -1e-5,-0.26692 0.0749,-0.47851 0.22461,-0.63477 0.14973,-0.15624 0.32714,-0.27506 0.53223,-0.35644 0.20507,-0.0814 0.41828,-0.13509 0.63964,-0.16114 0.22135,-0.026 0.40364,-0.0488 0.54688,-0.0684 0.0195,1e-5 0.0586,-0.01 0.11719,-0.0293 0.0586,-0.0195 0.12369,-0.0423 0.19531,-0.0684 0.0716,-0.026 0.14322,-0.0488 0.21484,-0.0684 0.0716,-0.0195 0.1302,-0.0293 0.17578,-0.0293 0.11718,-0.0521 0.29947,-0.1302 0.54688,-0.23437 0.24738,-0.10416 0.51757,-0.20996 0.81055,-0.31739 0.29295,-0.10741 0.58429,-0.20181 0.87402,-0.2832 0.2897,-0.0814 0.53872,-0.12206 0.74707,-0.12207 0.23436,1e-5 0.44269,0.0374 0.625,0.1123 0.18228,0.0749 0.33853,0.17905 0.46875,0.3125 0.13019,0.13348 0.22948,0.28973 0.29785,0.46875 0.0684,0.17905 0.10253,0.37599 0.10254,0.59082 -1e-5,0.0912 -0.007,0.18393 -0.0195,0.27832 -0.013,0.0944 -0.0358,0.20997 -0.0684,0.34668 -0.19533,0.72918 -0.49318,1.40789 -0.89355,2.03614 -0.40041,0.62826 -0.87079,1.19792 -1.41114,1.70898 -0.54037,0.51107 -1.13608,0.96192 -1.78711,1.35254 -0.65105,0.39063 -1.32162,0.71289 -2.01172,0.9668 l 0.01,-0.01 c -0.11069,0.0456 -0.24578,0.0928 -0.40527,0.1416 -0.15952,0.0488 -0.32553,0.0944 -0.49805,0.13672 -0.17253,0.0423 -0.3418,0.0765 -0.50781,0.10254 -0.16603,0.026 -0.31088,0.0391 -0.43457,0.0391 -0.25392,0 -0.46876,-0.008 -0.64453,-0.0244 -0.17579,-0.0163 -0.3239,-0.0358 -0.44434,-0.0586 -0.12045,-0.0228 -0.22136,-0.0505 -0.30273,-0.083 -0.0814,-0.0326 -0.15463,-0.0651 -0.21973,-0.0977 -0.3711,-0.16927 -0.71127,-0.37272 -1.02051,-0.61035 -0.30925,-0.23763 -0.57455,-0.51269 -0.7959,-0.82519 -0.22135,-0.3125 -0.39388,-0.65918 -0.51758,-1.04004 -0.1237,-0.38086 -0.18554,-0.7959 -0.18554,-1.24512 0,-0.48177 0.0781,-0.9847 0.23437,-1.50879 0.15625,-0.52408 0.37109,-1.05305 0.64453,-1.58691 0.27344,-0.53385 0.59408,-1.06119 0.96192,-1.58204 0.36783,-0.52082 0.76659,-1.02049 1.19629,-1.49902 0.42968,-0.4785 0.87727,-0.92284 1.34277,-1.33301 0.46549,-0.41014 0.92935,-0.77147 1.3916,-1.08398 0.27994,-0.18879 0.58105,-0.38085 0.90332,-0.57617 0.32226,-0.1953 0.65266,-0.37108 0.99121,-0.52735 0.33853,-0.15623 0.68196,-0.28481 1.03028,-0.38574 0.34829,-0.1009 0.68846,-0.15135 1.0205,-0.15137 0.26692,2e-5 0.53059,0.0391 0.79102,0.11719 0.2604,0.0781 0.49478,0.18719 0.70312,0.32715 0.20832,0.13999 0.3776,0.31089 0.50782,0.5127 0.13019,0.20183 0.1953,0.42644 0.19531,0.67382 -1e-5,0.11069 -0.0163,0.23114 -0.0488,0.36133 -0.013,0.0521 -0.0391,0.14324 -0.0781,0.27344 -0.0391,0.13022 -0.0879,0.23113 -0.14649,0.30273 l 0.0195,-0.0195 c -0.0261,0.0846 -0.07,0.13348 -0.13183,0.14649 -0.0619,0.013 -0.12534,0.0195 -0.19043,0.0195 -0.19533,1e-5 -0.36134,-0.0488 -0.49805,-0.14649 -0.13673,-0.0976 -0.26368,-0.20344 -0.38086,-0.31738 -0.1172,-0.11392 -0.23276,-0.21971 -0.34668,-0.31738 -0.11394,-0.0977 -0.24903,-0.14647 -0.40527,-0.14649 l -0.26367,0 c -0.50783,0.11069 -1.04819,0.3174 -1.6211,0.62012 -0.57292,0.30275 -1.14421,0.67058 -1.71386,1.10352 -0.56967,0.43295 -1.11492,0.91635 -1.63575,1.45019 -0.52084,0.53386 -0.97982,1.08725 -1.37695,1.66016 -0.39714,0.57292 -0.71452,1.15398 -0.95215,1.74316 -0.23763,0.5892 -0.35645,1.15398 -0.35644,1.69434 -1e-5,0.44271 0.1009,0.82194 0.30273,1.13769 0.20182,0.31576 0.49479,0.62663 0.87891,0.93262 l -0.01,0 c 0.20182,0.13021 0.42155,0.24089 0.65918,0.33203 0.23763,0.0911 0.47037,0.13672 0.69824,0.13672 0.23437,0 0.48991,-0.0456 0.76661,-0.13672 0.27668,-0.0911 0.55337,-0.20507 0.83007,-0.3418 0.27669,-0.13671 0.54687,-0.28645 0.81055,-0.44921 0.26366,-0.16276 0.50292,-0.3125 0.71777,-0.44922 0.6901,-0.44922 1.27278,-0.98307 1.74805,-1.60157 0.47525,-0.61848 0.86587,-1.25976 1.17188,-1.92382 0.013,-0.0326 0.026,-0.0651 0.0391,-0.0977 0.013,-0.026 0.0228,-0.0537 0.0293,-0.083 0.007,-0.0293 0.013,-0.0537 0.0195,-0.0732 z"
       style=""
       id="path3963" />
    <path
       d="m 115.93085,124.77149 c 0,-0.22786 0.0325,-0.46875 0.0976,-0.72265 0.22136,-0.88542 0.48014,-1.75293 0.77637,-2.60254 0.29622,-0.84961 0.56478,-1.69433 0.80567,-2.53418 0.24088,-0.83984 0.44107,-1.54785 0.60058,-2.12403 0.1595,-0.57616 0.3011,-1.07095 0.42481,-1.48437 0.12369,-0.4134 0.23762,-0.76985 0.34179,-1.06934 0.10416,-0.29946 0.2181,-0.59569 0.3418,-0.88867 0.0781,-0.17577 0.16438,-0.35806 0.25879,-0.54687 0.0944,-0.18879 0.19693,-0.36295 0.30762,-0.52247 0.11067,-0.15949 0.22623,-0.2897 0.34668,-0.39062 0.12043,-0.1009 0.24576,-0.15135 0.37597,-0.15137 0.26692,2e-5 0.47037,0.044 0.61035,0.13184 0.13997,0.0879 0.22623,0.16766 0.25879,0.23926 l 0.0879,0.40039 c 0.0976,-0.007 0.22461,-0.0244 0.38086,-0.0537 0.15624,-0.0293 0.31412,-0.0602 0.47364,-0.0928 0.15949,-0.0325 0.3076,-0.0651 0.44433,-0.0977 0.13671,-0.0325 0.24088,-0.0618 0.3125,-0.0879 0.42968,-0.11718 0.82681,-0.21809 1.19141,-0.30274 0.36457,-0.0846 0.71125,-0.15461 1.04004,-0.20996 0.32876,-0.0553 0.64289,-0.096 0.94238,-0.12207 0.29947,-0.026 0.6022,-0.039 0.9082,-0.0391 0.29947,1e-5 0.54361,0.0163 0.73242,0.0488 0.18879,0.0326 0.33853,0.0765 0.44922,0.13183 0.11067,0.0553 0.18716,0.12046 0.2295,0.19531 0.0423,0.0749 0.0635,0.15464 0.0635,0.23926 -1e-5,0.0781 -0.0212,0.16115 -0.0635,0.24903 -0.0423,0.0879 -0.11232,0.17091 -0.20997,0.24902 -0.0977,0.0781 -0.22462,0.1465 -0.38085,0.20508 -0.15627,0.0586 -0.35158,0.0977 -0.58594,0.11718 -0.0586,0.013 -0.1937,0.0374 -0.40528,0.0732 -0.2116,0.0358 -0.44109,0.0749 -0.68847,0.11718 -0.24741,0.0423 -0.48178,0.083 -0.70313,0.12207 -0.22136,0.0391 -0.37436,0.0684 -0.45898,0.0879 l 0.01,0 c -0.0391,0.007 -0.13184,0.0309 -0.27832,0.0732 -0.14649,0.0423 -0.3239,0.0912 -0.53222,0.14648 -0.20835,0.0553 -0.43458,0.11883 -0.67871,0.19043 -0.24415,0.0716 -0.48504,0.14161 -0.72266,0.20996 -0.23764,0.0684 -0.45737,0.13348 -0.65918,0.19531 -0.20183,0.0619 -0.36459,0.11232 -0.48828,0.15137 -0.39714,0.15626 -0.70802,0.36297 -0.93262,0.62012 -0.22461,0.25717 -0.40202,0.54526 -0.53222,0.86426 -0.026,0.0586 -0.0651,0.15788 -0.11719,0.29785 -0.0521,0.13998 -0.10906,0.29949 -0.1709,0.47851 -0.0619,0.17905 -0.12859,0.36948 -0.2002,0.57129 -0.0716,0.20183 -0.13998,0.39389 -0.20507,0.57618 -0.0651,0.18229 -0.12208,0.34831 -0.1709,0.49804 -0.0488,0.14975 -0.083,0.26043 -0.10254,0.33203 -0.0195,0.0651 -0.0326,0.12371 -0.0391,0.17578 -0.007,0.0521 -0.01,0.0912 -0.01,0.11719 0,0.0391 0.01,0.0586 0.0293,0.0586 0.0977,0 0.3011,-0.0439 0.61035,-0.13184 0.30924,-0.0879 0.67057,-0.19693 1.08398,-0.32715 0.41341,-0.1302 0.85612,-0.27017 1.32813,-0.41992 0.47199,-0.14973 0.92447,-0.28971 1.35742,-0.41992 0.43293,-0.1302 0.81867,-0.23925 1.15723,-0.32715 0.33853,-0.0879 0.58267,-0.13183 0.73242,-0.13184 0.22785,1e-5 0.38085,0.0374 0.45898,0.11231 0.0781,0.0749 0.11718,0.15788 0.11719,0.24902 -1e-5,0.23438 -0.083,0.43946 -0.24902,0.61524 -0.16603,0.17578 -0.37274,0.32878 -0.62012,0.45898 -0.0781,0.0391 -0.22299,0.096 -0.43457,0.1709 -0.2116,0.0749 -0.43946,0.15137 -0.68359,0.22949 -0.24415,0.0781 -0.4769,0.153 -0.69825,0.22461 -0.22136,0.0716 -0.38087,0.1237 -0.47851,0.15625 -0.63803,0.2474 -1.15724,0.45085 -1.55762,0.61035 -0.4004,0.15951 -0.72429,0.28972 -0.97168,0.39063 -0.2474,0.10091 -0.43783,0.17741 -0.57129,0.22949 -0.13347,0.0521 -0.25717,0.096 -0.37109,0.13183 -0.11394,0.0358 -0.23926,0.07 -0.37598,0.10254 -0.13672,0.0326 -0.32552,0.0781 -0.5664,0.13672 -0.0586,0.13673 -0.12696,0.34343 -0.20508,0.62012 -0.0781,0.2767 -0.153,0.56315 -0.22461,0.85937 -0.0716,0.29623 -0.13184,0.5713 -0.18067,0.8252 -0.0488,0.25391 -0.0732,0.42969 -0.0732,0.52734 0,0.11719 0.0163,0.20346 0.0488,0.25879 0.0326,0.0553 0.0716,0.0928 0.11719,0.11231 0.0456,0.0195 0.0911,0.0293 0.13672,0.0293 0.0456,10e-6 0.0814,10e-6 0.10742,0 0.31249,10e-6 0.68847,-0.0456 1.12793,-0.13671 0.43944,-0.0911 0.87401,-0.21159 1.30371,-0.36133 0.41015,-0.14323 0.76822,-0.29948 1.07422,-0.46875 0.30598,-0.16927 0.59406,-0.32715 0.86426,-0.47364 0.27017,-0.14648 0.53384,-0.27017 0.79101,-0.37109 0.25715,-0.10091 0.53873,-0.15462 0.84473,-0.16113 0.0651,0 0.14159,0.007 0.22949,0.0195 0.0879,0.013 0.17089,0.0374 0.24902,0.0732 0.0781,0.0358 0.14159,0.083 0.19043,0.1416 0.0488,0.0586 0.0667,0.13347 0.0537,0.22461 -0.0261,0.18881 -0.12045,0.37435 -0.2832,0.55664 -0.16277,0.1823 -0.36785,0.35808 -0.61523,0.52735 -0.24741,0.16927 -0.5241,0.33203 -0.83008,0.48828 -0.306,0.15625 -0.6185,0.30436 -0.9375,0.44433 -0.31902,0.13998 -0.63152,0.26693 -0.9375,0.38086 -0.306,0.11394 -0.57944,0.21322 -0.82031,0.29786 -0.59897,0.20833 -1.18165,0.36132 -1.74805,0.45898 -0.56641,0.0977 -1.07422,0.14648 -1.52344,0.14648 -0.49479,0 -0.87402,-0.0928 -1.13769,-0.27832 -0.26368,-0.18554 -0.39551,-0.49316 -0.39551,-0.92285 z"
       style=""
       id="path3965" />
    <text
       xml:space="preserve"
       style="font-size:20px;font-style:normal;font-variant:normal;font-weight:normal;font-stretch:normal;line-height:125%;letter-spacing:0px;word-spacing:0px;fill:#e64b00;fill-opacity:1;stroke:none;font-family:MV Boli;-inkscape-font-specification:MV Boli"
       x="-1.0958767"
       y="103.91834"
       id="text3786"
       sodipodi:linespacing="125%"
       transform="matrix(1.0247658,-0.010527,0.01105616,0.97571914,0,0)"><tspan
         sodipodi:role="line"
         id="tspan3788"
         x="-1.0958767"
         y="103.91834">TO ALPHABETICAL</tspan></text>
  </g>
</svg>
