<?xml version="1.0" encoding="UTF-8" standalone="no"?>
<!-- Created with Inkscape (http://www.inkscape.org/) -->

<svg
   xmlns:dc="http://purl.org/dc/elements/1.1/"
   xmlns:cc="http://creativecommons.org/ns#"
   xmlns:rdf="http://www.w3.org/1999/02/22-rdf-syntax-ns#"
   xmlns:svg="http://www.w3.org/2000/svg"
   xmlns="http://www.w3.org/2000/svg"
   xmlns:sodipodi="http://sodipodi.sourceforge.net/DTD/sodipodi-0.dtd"
   xmlns:inkscape="http://www.inkscape.org/namespaces/inkscape"
   id="svg3055"
   version="1.1"
   inkscape:version="0.48.2 r9819"
   width="226"
   height="180"
   sodipodi:docname="create.svg">
  <metadata
     id="metadata3061">
    <rdf:RDF>
      <cc:Work
         rdf:about="">
        <dc:format>image/svg+xml</dc:format>
        <dc:type
           rdf:resource="http://purl.org/dc/dcmitype/StillImage" />
        <dc:title />
      </cc:Work>
    </rdf:RDF>
  </metadata>
  <defs
     id="defs3059">
    <filter
       inkscape:collect="always"
       id="filter4528"
       color-interpolation-filters="sRGB">
      <feGaussianBlur
         inkscape:collect="always"
         stdDeviation="0.28379253"
         id="feGaussianBlur4530" />
    </filter>
    <filter
       inkscape:collect="always"
       id="filter4550"
       color-interpolation-filters="sRGB">
      <feGaussianBlur
         inkscape:collect="always"
         stdDeviation="0.26780498"
         id="feGaussianBlur4552" />
    </filter>
    <filter
       inkscape:collect="always"
       id="filter4564"
       color-interpolation-filters="sRGB">
      <feGaussianBlur
         inkscape:collect="always"
         stdDeviation="0.20376469"
         id="feGaussianBlur4566" />
    </filter>
    <filter
       inkscape:collect="always"
       id="filter4528-1-0"
       color-interpolation-filters="sRGB">
      <feGaussianBlur
         inkscape:collect="always"
         stdDeviation="0.28379253"
         id="feGaussianBlur4530-7-9" />
    </filter>
  </defs>
  <sodipodi:namedview
     pagecolor="#ffffff"
     bordercolor="#666666"
     borderopacity="1"
     objecttolerance="10"
     gridtolerance="10"
     guidetolerance="10"
     inkscape:pageopacity="0"
     inkscape:pageshadow="2"
     inkscape:window-width="1920"
     inkscape:window-height="1018"
     id="namedview3057"
     showgrid="false"
     inkscape:zoom="2"
     inkscape:cx="190.55643"
     inkscape:cy="111.29887"
     inkscape:window-x="-8"
     inkscape:window-y="-8"
     inkscape:window-maximized="1"
     inkscape:current-layer="text4556"
     showguides="true">
    <inkscape:grid
       type="xygrid"
       id="grid4709"
       empspacing="5"
       visible="true"
       enabled="true"
       snapvisiblegridlinesonly="true" />
  </sodipodi:namedview>
  <g
     inkscape:groupmode="layer"
     id="layer1"
     inkscape:label="Layer"
     style="display:inline"
     transform="translate(0,-8)" />
  <path
     style="fill:none;stroke:#e64b00;stroke-width:5.30000019;stroke-linecap:round;stroke-linejoin:miter;stroke-miterlimit:4;stroke-opacity:1;stroke-dasharray:none;filter:url(#filter4528)"
     d="m 93.61665,54.20041 c 0,0 -14.566681,-5.508685 -31.43981,-6.53741 C 50.317734,46.939971 22.359443,44.703803 22.359443,44.703803"
     id="path3070"
     inkscape:connector-curvature="0"
     sodipodi:nodetypes="csc" />
  <path
     style="fill:none;stroke:#e64b00;stroke-width:4;stroke-linecap:round;stroke-linejoin:round;stroke-miterlimit:4;stroke-opacity:1;stroke-dasharray:none;filter:url(#filter4550)"
     d="M 36.953288,60.309688 C 21.858132,51.685121 17.787197,45.197231 17.787197,45.197231 c 0.06096,0.01859 13.270669,-11.817217 20.443716,-17.504823"
     id="path4532"
     inkscape:connector-curvature="0"
     sodipodi:nodetypes="ccc" />
  <g
     transform="matrix(1.0617106,0.04512694,0.09975557,1.1267872,-14.550323,10.245077)"
     style="font-size:24px;font-style:normal;font-variant:normal;font-weight:normal;font-stretch:normal;line-height:125%;letter-spacing:0px;word-spacing:0px;fill:#e64b00;fill-opacity:1;stroke:none;filter:url(#filter4564);font-family:MV Boli;-inkscape-font-specification:MV Boli"
     id="text4556">
    <path
       d="m 65.663086,15.221504 c 0,-0.45312 0.0547,-0.966791 0.16406,-1.541016 0.10938,-0.574211 0.30078,-1.130851 0.57422,-1.669922 0.375,-0.749991 0.79297,-1.474599 1.25391,-2.1738276 0.46093,-0.699207 0.93359,-1.343738 1.41797,-1.933593 0.48437,-0.589831 0.96874,-1.113268 1.45312,-1.570313 0.48437,-0.457017 0.94531,-0.814438 1.38281,-1.072266 l -0.0117,0.01172 c 0.27342,-0.17186 0.56249,-0.351547 0.86718,-0.5390619 0.30468,-0.187485 0.61718,-0.35936 0.9375,-0.515625 0.3203,-0.156234 0.64452,-0.28514 0.97266,-0.386719 0.32811,-0.101546 0.65233,-0.152327 0.97266,-0.152344 0.32811,1.7e-5 0.64061,0.06642 0.9375,0.199219 0.29686,0.132829 0.55662,0.314469 0.77929,0.544922 0.22264,0.230484 0.39843,0.4980619 0.52735,0.8027339 0.12889,0.304702 0.19334,0.628921 0.19336,0.972656 -2e-5,0.242202 -0.0137,0.431655 -0.041,0.56836 -0.0274,0.136732 -0.0703,0.240247 -0.12891,0.310547 -0.0586,0.07033 -0.13282,0.113294 -0.22265,0.128906 -0.0899,0.01564 -0.19338,0.02345 -0.31055,0.02344 -0.17189,1.3e-5 -0.30665,-0.0371 -0.4043,-0.111328 -0.0977,-0.0742 -0.17579,-0.164049 -0.23437,-0.269531 -0.0586,-0.105455 -0.10353,-0.222643 -0.13477,-0.351562 -0.0313,-0.128893 -0.0684,-0.24608 -0.11132,-0.351563 -0.043,-0.105455 -0.0977,-0.195298 -0.16407,-0.269531 -0.0664,-0.07421 -0.15821,-0.111314 -0.27539,-0.111328 -0.31251,1.4e-5 -0.6504,0.07033 -1.01367,0.210937 -0.36329,0.140639 -0.73439,0.328139 -1.11328,0.5625 -0.37892,0.234389 -0.75782,0.501966 -1.13672,0.802735 -0.37892,0.300793 -0.74024,0.607434 -1.08398,0.919921 -0.34376,0.312512 -0.66212,0.621105 -0.95508,0.925782 -0.29298,0.304698 -0.54493,0.578135 -0.75586,0.8203116 -0.31251,0.398447 -0.59766,0.802744 -0.85547,1.212891 -0.25782,0.410165 -0.48047,0.828133 -0.66797,1.253906 -0.1875,0.425789 -0.33204,0.863288 -0.43359,1.3125 -0.10157,0.449225 -0.15235,0.916021 -0.15235,1.400391 0,0.375004 0.0527,0.703129 0.15821,0.984375 0.10546,0.281253 0.22069,0.523441 0.3457,0.726562 0.14843,0.234378 0.33203,0.396487 0.55078,0.486328 0.21874,0.08985 0.48046,0.134769 0.78516,0.134766 0.66405,3e-6 1.27733,-0.0625 1.83984,-0.1875 0.56249,-0.124997 1.10155,-0.292966 1.61719,-0.503906 0.51561,-0.210934 1.01952,-0.460934 1.51172,-0.75 0.49217,-0.289058 0.99998,-0.597652 1.52343,-0.925782 l 0.30469,0 c 0.10155,5e-6 0.20507,0.02735 0.31055,0.08203 0.10545,0.05469 0.1992,0.125004 0.28125,0.210937 0.082,0.08594 0.14842,0.183598 0.19922,0.292969 0.0508,0.109379 0.0762,0.22266 0.0762,0.339844 -10e-6,0.257816 -0.10158,0.513675 -0.30469,0.767578 -0.20314,0.253909 -0.4629,0.496096 -0.77929,0.726562 -0.31642,0.230471 -0.67385,0.447268 -1.07227,0.650391 -0.39845,0.203127 -0.79103,0.382814 -1.17773,0.539062 -0.38673,0.156252 -0.74806,0.289064 -1.08399,0.398438 -0.33595,0.109376 -0.60548,0.183595 -0.80859,0.222656 -0.17189,0.03906 -0.3379,0.07617 -0.49805,0.111328 -0.16016,0.03516 -0.34962,0.07031 -0.56836,0.105469 -0.21876,0.03516 -0.48048,0.0625 -0.78516,0.08203 -0.30469,0.01953 -0.6875,0.0293 -1.14843,0.0293 -0.28126,1e-6 -0.53907,-0.04492 -0.77344,-0.134765 -0.23438,-0.08984 -0.44336,-0.195312 -0.62695,-0.316407 -0.1836,-0.121092 -0.33985,-0.248045 -0.46875,-0.380859 -0.12891,-0.132811 -0.23243,-0.246092 -0.31055,-0.339844 -0.46094,-0.53906 -0.79688,-1.07031 -1.00781,-1.59375 -0.21094,-0.523434 -0.31641,-1.097652 -0.31641,-1.722656 z"
       id="path3131"
       inkscape:connector-curvature="0" />
    <path
       d="m 79.983396,18.737129 c 0.44531,-1.789059 0.90625,-3.556636 1.38282,-5.302734 0.47655,-1.746086 0.93749,-3.5136616 1.38281,-5.3027346 0.0547,-0.234363 0.10937,-0.457019 0.16406,-0.667969 0.0547,-0.210924 0.10546,-0.421861 0.15234,-0.632812 0.0469,-0.210924 0.084,-0.423814 0.11133,-0.638672 0.0273,-0.21483 0.041,-0.439439 0.041,-0.673828 -10e-6,-0.179673 -0.0117,-0.343735 -0.0352,-0.492188 -0.0234,-0.1484219 -0.0352,-0.3163899 -0.0352,-0.5039059 -1e-5,-0.179671 0.0234,-0.371078 0.0703,-0.574219 0.11718,-0.476545 0.2832,-0.832014 0.49805,-1.066406 0.21483,-0.234357 0.541,-0.351545 0.97851,-0.351562 0.17968,1.7e-5 0.35351,0.0176 0.52149,0.05273 0.16796,0.03517 0.33397,0.07619 0.49804,0.123047 0.17968,0.05471 0.36523,0.10158 0.55664,0.140625 0.1914,0.03908 0.38476,0.05861 0.58008,0.05859 0.15624,1.7e-5 0.30858,-0.0078 0.45703,-0.02344 0.14843,-0.01561 0.31835,-0.03123 0.50977,-0.04687 0.19139,-0.01561 0.41796,-0.03123 0.67969,-0.04687 0.2617,-0.01561 0.59178,-0.02342 0.99023,-0.02344 0.21874,1.7e-5 0.47655,0.0078 0.77344,0.02344 0.29686,0.01564 0.60545,0.0508 0.92578,0.105469 0.3203,0.05471 0.64452,0.134783 0.97265,0.240234 0.32811,0.105486 0.63475,0.248064 0.91993,0.427735 0.28514,0.179704 0.53709,0.400407 0.75586,0.662109 0.21873,0.261734 0.38279,0.576187 0.49218,0.9433589 0.0547,0.179703 0.0918,0.343765 0.11133,0.492188 0.0195,0.148452 0.0293,0.292983 0.0293,0.433594 -2e-5,0.476576 -0.12111,0.945325 -0.36328,1.40625 -0.27346,0.523449 -0.6426,1.013683 -1.10742,1.470703 -0.46486,0.457042 -1.00588,0.888682 -1.62305,1.2949216 -0.2422,0.164072 -0.52345,0.333994 -0.84375,0.509765 -0.32033,0.175791 -0.63478,0.343759 -0.94336,0.503907 -0.30861,0.160165 -0.58595,0.306649 -0.83203,0.439453 -0.24611,0.13282 -0.41603,0.234383 -0.50977,0.304687 0.27343,0.132821 0.54687,0.271492 0.82031,0.416016 0.27343,0.144539 0.55273,0.318367 0.8379,0.521484 0.28514,0.203132 0.5742,0.449226 0.86718,0.738281 0.29296,0.289069 0.59764,0.642584 0.91407,1.060547 0.31639,0.417974 0.64451,0.912114 0.98437,1.482422 0.33983,0.570316 0.69334,1.24219 1.06055,2.015625 0.0937,0.187502 0.14061,0.38672 0.14062,0.597656 -1e-5,0.164064 -0.0332,0.328126 -0.0996,0.492188 -0.0664,0.164063 -0.15626,0.3125 -0.26953,0.445312 -0.1133,0.132813 -0.24806,0.240235 -0.4043,0.322266 -0.15626,0.08203 -0.32423,0.123047 -0.5039,0.123047 -0.27345,0 -0.50002,-0.101563 -0.67969,-0.304688 -0.1797,-0.203124 -0.35158,-0.468749 -0.51562,-0.796875 -0.16408,-0.328123 -0.334,-0.699217 -0.50977,-1.113281 -0.17579,-0.41406 -0.39259,-0.832028 -0.65039,-1.253906 -0.28126,-0.453121 -0.59181,-0.882808 -0.93164,-1.289063 -0.33986,-0.406244 -0.70118,-0.757807 -1.08399,-1.054687 -0.38282,-0.296869 -0.77735,-0.533197 -1.18359,-0.708984 -0.40626,-0.175775 -0.81251,-0.263666 -1.21875,-0.263672 l -0.17578,0 c -0.2422,6e-6 -0.45899,0.02149 -0.65039,0.06445 -0.19141,0.04297 -0.37696,0.08009 -0.55664,0.111328 -0.2422,-0.08593 -0.41798,-0.226556 -0.52735,-0.421875 -0.10938,-0.195305 -0.16406,-0.414055 -0.16406,-0.65625 l 0,-0.164063 -0.9375,3.691407 c -0.0312,0.117191 -0.0742,0.277347 -0.1289,0.480468 -0.0547,0.203129 -0.1172,0.425785 -0.1875,0.667969 -0.0703,0.24219 -0.14259,0.496096 -0.2168,0.761719 -0.0742,0.265627 -0.14454,0.515627 -0.21094,0.75 -0.0664,0.234376 -0.125,0.445313 -0.17578,0.632812 -0.0508,0.187501 -0.0879,0.328126 -0.11133,0.421875 -0.10938,0.195313 -0.24805,0.34961 -0.41601,0.462891 -0.16798,0.113281 -0.34962,0.169922 -0.54493,0.169922 -0.34375,0 -0.58203,-0.103516 -0.71484,-0.310547 -0.13281,-0.207031 -0.19922,-0.447265 -0.19922,-0.720703 0,-0.109374 0.008,-0.220702 0.0234,-0.333984 0.0156,-0.11328 0.0352,-0.220702 0.0586,-0.322266 z m 5.75391,-13.2187496 c -0.0469,0.156264 -0.11524,0.382827 -0.20508,0.679687 -0.0898,0.296889 -0.18946,0.632826 -0.29883,1.007813 -0.10938,0.375013 -0.22657,0.777356 -0.35156,1.207031 -0.12501,0.429699 -0.25001,0.861339 -0.375,1.294922 -0.12501,0.4336036 -0.2461,0.8535246 -0.36328,1.2597656 -0.11719,0.406258 -0.22266,0.769539 -0.31641,1.089843 0.15625,-0.203116 0.39062,-0.384757 0.70313,-0.544921 0.31249,-0.160148 0.66405,-0.310538 1.05469,-0.451172 0.30467,-0.109366 0.67967,-0.263663 1.125,-0.462891 0.4453,-0.199209 0.91209,-0.427724 1.40039,-0.6855466 0.48827,-0.257802 0.97655,-0.537098 1.46484,-0.83789 0.48827,-0.30077 0.92577,-0.609364 1.3125,-0.925782 0.38671,-0.316394 0.70116,-0.6328 0.94336,-0.949218 0.24217,-0.316393 0.36327,-0.623034 0.36328,-0.919922 -1e-5,-0.289049 -0.10158,-0.517564 -0.30469,-0.685547 -0.20314,-0.167954 -0.45704,-0.294907 -0.76172,-0.38086 -0.3047,-0.08592 -0.63868,-0.142563 -1.00195,-0.169921 -0.36329,-0.02733 -0.70118,-0.041 -1.01367,-0.04102 -0.56251,1.5e-5 -1.12501,0.03517 -1.6875,0.105469 -0.56251,0.07033 -1.12501,0.207046 -1.6875,0.410156 z"
       id="path3133"
       inkscape:connector-curvature="0" />
    <path
       d="m 96.436526,19.346504 c 0,-0.273436 0.0391,-0.562499 0.11719,-0.867188 0.26562,-1.062497 0.57616,-2.103511 0.93164,-3.123046 0.35546,-1.019526 0.67773,-2.033197 0.96679,-3.041016 0.28906,-1.007804 0.5293,-1.857412 0.72071,-2.5488276 0.1914,-0.691395 0.36132,-1.285145 0.50976,-1.78125 0.14843,-0.496081 0.28515,-0.923815 0.410164,-1.283203 0.12499,-0.359361 0.26171,-0.71483 0.41015,-1.066407 0.0937,-0.210922 0.19726,-0.429672 0.31055,-0.65625 0.11328,-0.2265469 0.23632,-0.4355309 0.36914,-0.6269529 0.13281,-0.19139 0.27148,-0.34764 0.41602,-0.46875 0.14452,-0.121077 0.29491,-0.181624 0.45117,-0.18164 0.3203,1.6e-5 0.56444,0.05275 0.73242,0.158203 0.16796,0.105485 0.27148,0.201188 0.31055,0.287109 l 0.10547,0.480469 c 0.11718,-0.0078 0.26952,-0.02928 0.45703,-0.06445 0.18749,-0.03514 0.37694,-0.07225 0.56836,-0.111328 0.19139,-0.03905 0.36913,-0.07811 0.5332,-0.117188 0.16405,-0.03905 0.28905,-0.0742 0.375,-0.105469 0.51561,-0.140608 0.99218,-0.261702 1.42969,-0.363281 0.43749,-0.101546 0.8535,-0.18553 1.24805,-0.251953 0.39451,-0.06639 0.77147,-0.115218 1.13085,-0.146484 0.35936,-0.03123 0.72265,-0.04686 1.08985,-0.04687 0.35936,1.6e-5 0.65233,0.01955 0.8789,0.05859 0.22655,0.03908 0.40624,0.09181 0.53907,0.158204 0.13279,0.06642 0.22459,0.144547 0.27539,0.234375 0.0508,0.08986 0.0762,0.185563 0.0762,0.287109 -2e-5,0.09377 -0.0254,0.193375 -0.0762,0.298828 -0.0508,0.105484 -0.13479,0.205094 -0.25196,0.298828 -0.1172,0.09377 -0.26954,0.1757969 -0.45703,0.2460939 -0.18751,0.07033 -0.42189,0.117202 -0.70312,0.140625 -0.0703,0.01564 -0.23244,0.04494 -0.48633,0.08789 -0.25392,0.04298 -0.52931,0.08986 -0.82617,0.140625 -0.29689,0.0508 -0.57814,0.09962 -0.84375,0.146484 -0.26564,0.04689 -0.44923,0.08205 -0.55078,0.105469 l 0.0117,0 c -0.0469,0.0078 -0.15822,0.03712 -0.33399,0.08789 -0.17579,0.0508 -0.38868,0.10939 -0.63867,0.175782 -0.25001,0.06642 -0.5215,0.142592 -0.81445,0.228515 -0.29298,0.08595 -0.58205,0.169936 -0.86719,0.251953 -0.28517,0.08205 -0.54884,0.16017 -0.79102,0.234375 -0.24219,0.07423 -0.43751,0.134779 -0.58593,0.181641 -0.47658,0.187513 -0.84962,0.43556 -1.11914,0.744141 -0.26954,0.308606 -0.48243,0.654308 -0.63868,1.037109 -0.0312,0.07032 -0.0781,0.189464 -0.14062,0.357422 -0.0625,0.16798 -0.13087,0.359386 -0.20508,0.574219 -0.0742,0.214854 -0.1543,0.443369 -0.24023,0.6855456 -0.0859,0.242198 -0.16798,0.472666 -0.2461,0.691407 -0.0781,0.218759 -0.14649,0.417977 -0.20508,0.597656 -0.0586,0.179696 -0.0996,0.312508 -0.12304,0.398437 -0.0234,0.07813 -0.0391,0.148446 -0.0469,0.210938 -0.008,0.06251 -0.0117,0.109383 -0.0117,0.140625 0,0.04688 0.0117,0.07032 0.0352,0.07031 0.11718,8e-6 0.36132,-0.05273 0.73242,-0.158203 0.37109,-0.10546 0.80468,-0.23632 1.30078,-0.392578 0.49609,-0.156241 1.02734,-0.32421 1.59375,-0.503906 0.5664,-0.179678 1.10937,-0.347647 1.62891,-0.503906 0.51952,-0.156241 0.98241,-0.2871 1.38867,-0.392578 0.40624,-0.105459 0.69921,-0.158194 0.87891,-0.158204 0.27342,1e-5 0.45701,0.04493 0.55078,0.134766 0.0937,0.08985 0.14061,0.189463 0.14062,0.298828 -10e-6,0.281259 -0.0996,0.527353 -0.29882,0.738281 -0.19924,0.210947 -0.44728,0.39454 -0.74415,0.550782 -0.0938,0.04688 -0.26759,0.115242 -0.52148,0.205078 -0.25392,0.08985 -0.52736,0.181648 -0.82031,0.27539 -0.29298,0.09376 -0.57228,0.183602 -0.83789,0.269532 -0.26564,0.08594 -0.45705,0.148445 -0.57422,0.1875 -0.76564,0.296882 -1.38868,0.541022 -1.86914,0.732422 -0.48048,0.191412 -0.86915,0.347662 -1.16602,0.46875 -0.29688,0.121099 -0.5254,0.212896 -0.68554,0.27539 -0.16017,0.06251 -0.30861,0.11524 -0.44532,0.158203 -0.13672,0.04298 -0.28711,0.08399 -0.45117,0.123047 -0.16407,0.03907 -0.39063,0.09376 -0.679694,0.164063 -0.0703,0.164067 -0.15235,0.412114 -0.24609,0.74414 -0.0938,0.332036 -0.1836,0.675786 -0.26953,1.03125 -0.0859,0.355472 -0.15821,0.68555 -0.2168,0.990235 -0.0586,0.30469 -0.0879,0.515627 -0.0879,0.632812 0,0.140627 0.0195,0.244143 0.0586,0.310547 0.0391,0.06641 0.0859,0.11133 0.14063,0.134766 0.0547,0.02344 0.10937,0.03516 0.16406,0.03516 0.0547,1e-6 0.0977,1e-6 0.12891,0 0.37499,1e-6 0.826164,-0.05469 1.353514,-0.164063 0.52734,-0.109373 1.04882,-0.253904 1.56446,-0.433593 0.49218,-0.171873 0.92186,-0.359373 1.28906,-0.5625 0.36718,-0.203122 0.71288,-0.392575 1.03711,-0.56836 0.32421,-0.175778 0.64061,-0.324215 0.94922,-0.445312 0.30858,-0.12109 0.64647,-0.185543 1.01367,-0.19336 0.0781,4e-6 0.16991,0.0078 0.27539,0.02344 0.10546,0.01563 0.20507,0.04493 0.29883,0.08789 0.0937,0.04297 0.16991,0.09961 0.22851,0.169921 0.0586,0.07032 0.0801,0.16016 0.0645,0.269532 -0.0313,0.226565 -0.14455,0.449221 -0.33985,0.667968 -0.19532,0.218753 -0.44142,0.42969 -0.73828,0.632813 -0.29688,0.203127 -0.62892,0.398439 -0.99609,0.585937 -0.3672,0.187502 -0.7422,0.365236 -1.125,0.533204 -0.38282,0.167969 -0.75782,0.320313 -1.125,0.457031 -0.3672,0.136719 -0.69532,0.255859 -0.98438,0.357422 -0.71875,0.25 -1.41797,0.433593 -2.09765,0.550781 -0.679704,0.117187 -1.289074,0.175781 -1.828134,0.175781 -0.59375,0 -1.04883,-0.111328 -1.36523,-0.333984 -0.31641,-0.222657 -0.47461,-0.591797 -0.47461,-1.107422 z"
       id="path3135"
       inkscape:connector-curvature="0" />
    <path
       d="m 121.22168,20.342598 c -0.16407,0 -0.3086,-0.03125 -0.43359,-0.09375 -0.12501,-0.0625 -0.22853,-0.144532 -0.31055,-0.246094 -0.082,-0.101562 -0.14454,-0.21875 -0.1875,-0.351563 -0.043,-0.132811 -0.0645,-0.265624 -0.0644,-0.398437 -1e-5,-0.117187 0.0312,-0.279296 0.0937,-0.486328 0.0625,-0.20703 0.14257,-0.439451 0.24024,-0.697266 0.0976,-0.25781 0.20506,-0.527341 0.32226,-0.808594 0.11718,-0.281246 0.23046,-0.550777 0.33984,-0.808593 0.10937,-0.257809 0.20312,-0.49609 0.28125,-0.714844 0.0781,-0.218745 0.1328,-0.39062 0.16407,-0.515625 0.0312,-0.14062 0.0703,-0.308589 0.11718,-0.503906 0.0469,-0.195307 0.0996,-0.408198 0.15821,-0.638672 0.0586,-0.230463 0.11717,-0.47265 0.17578,-0.726563 0.0586,-0.253899 0.11913,-0.509758 0.18164,-0.767578 -0.10939,0.02345 -0.24415,0.04493 -0.4043,0.06445 -0.16017,0.01954 -0.33009,0.03712 -0.50976,0.05274 -0.25783,0.02344 -0.51173,0.0586 -0.76172,0.105468 -0.25001,0.04688 -0.50587,0.09962 -0.76758,0.158204 -0.26173,0.0586 -0.53321,0.1211 -0.81445,0.1875 -0.28126,0.06641 -0.58204,0.134772 -0.90235,0.205078 -0.46876,0.101569 -0.93751,0.21485 -1.40625,0.339843 -0.46875,0.125007 -0.95704,0.187507 -1.46484,0.1875 -0.15626,7e-6 -0.30079,-0.04101 -0.43359,-0.123046 -0.13282,-0.08203 -0.28126,-0.142572 -0.44532,-0.181641 -0.15625,0.250006 -0.30469,0.517584 -0.44531,0.802734 -0.14063,0.285162 -0.26954,0.578131 -0.38672,0.878907 -0.11719,0.300785 -0.22266,0.59766 -0.3164,0.890625 -0.0938,0.292972 -0.17579,0.568362 -0.2461,0.826171 -0.0391,0.140628 -0.0723,0.322269 -0.0996,0.544922 -0.0274,0.222659 -0.0527,0.449221 -0.0762,0.679688 -0.0234,0.23047 -0.0469,0.451173 -0.0703,0.662109 -0.0234,0.210939 -0.0469,0.378907 -0.0703,0.503906 -0.0234,0.117189 -0.0703,0.232423 -0.14063,0.345704 -0.0703,0.113281 -0.15625,0.216797 -0.25781,0.310546 -0.10157,0.09375 -0.21485,0.169922 -0.33985,0.228516 -0.125,0.05859 -0.25,0.08789 -0.375,0.08789 -0.21875,0 -0.39648,-0.06445 -0.5332,-0.19336 -0.13672,-0.128906 -0.24609,-0.289062 -0.32812,-0.480468 -0.082,-0.191406 -0.13868,-0.40039 -0.16993,-0.626954 -0.0312,-0.226561 -0.0469,-0.433592 -0.0469,-0.621093 0,-0.476561 0.0586,-0.970701 0.17578,-1.482422 0.11719,-0.511715 0.27539,-1.031246 0.47461,-1.558594 0.19922,-0.527338 0.43359,-1.058588 0.70313,-1.59375 0.26952,-0.535149 0.56054,-1.068352 0.87304,-1.599609 0.25781,-0.476554 0.57812,-1.027335 0.96094,-1.652344 0.38281,-0.6249896 0.81054,-1.2675666 1.2832,-1.9277336 0.47265,-0.660144 0.98437,-1.306628 1.53516,-1.939454 0.55077,-0.632798 1.12304,-1.19725 1.7168,-1.693359 0.59374,-0.4960779 1.20311,-0.8964679 1.82812,-1.2011719 0.62499,-0.304671 1.24608,-0.457014 1.86328,-0.457031 0.64843,1.7e-5 1.18944,0.117204 1.62305,0.351562 0.43358,0.234392 0.77928,0.550798 1.03711,0.949219 0.25779,0.3984529 0.43944,0.8632959 0.54492,1.3945309 0.10545,0.531264 0.15819,1.093763 0.1582,1.6875 -10e-6,0.52345 -0.0332,1.062512 -0.0996,1.617188 -0.0664,0.554698 -0.14845,1.0976656 -0.24609,1.6289056 -0.0977,0.531259 -0.20314,1.042977 -0.31641,1.535156 -0.11329,0.492195 -0.21681,0.937507 -0.31054,1.335938 l -0.41016,1.59375 c -0.0156,0.04688 -0.0449,0.14063 -0.0879,0.28125 -0.043,0.140629 -0.0977,0.310551 -0.16406,0.509766 -0.0664,0.199222 -0.14064,0.414066 -0.22266,0.644531 -0.082,0.230472 -0.16408,0.457034 -0.24609,0.679687 -0.082,0.222659 -0.16017,0.427737 -0.23438,0.615235 -0.0742,0.187502 -0.13868,0.339845 -0.19336,0.457031 l 0.0117,-0.01172 c -0.0547,0.203127 -0.11329,0.410158 -0.17578,0.621094 -0.0625,0.210938 -0.14845,0.400391 -0.25781,0.568359 -0.10939,0.167969 -0.25002,0.304688 -0.42188,0.410157 -0.17188,0.105468 -0.39454,0.158203 -0.66797,0.158203 z m 0.59766,-14.6718746 c -0.35157,1.4e-5 -0.70118,0.07228 -1.04883,0.216797 -0.34767,0.144545 -0.68946,0.333998 -1.02539,0.568359 -0.33595,0.234388 -0.66212,0.507826 -0.97851,0.820312 -0.31642,0.312513 -0.6172,0.632825 -0.90235,0.960938 -0.28516,0.328137 -0.55274,0.658214 -0.80273,0.990234 -0.25001,0.332042 -0.47657,0.638682 -0.67969,0.9199216 -0.0313,0.04689 -0.0723,0.107432 -0.12305,0.181641 -0.0508,0.07423 -0.10157,0.156259 -0.15234,0.246094 -0.0508,0.08985 -0.0996,0.183603 -0.14648,0.28125 -0.0469,0.09766 -0.0859,0.185556 -0.11719,0.263671 l 1.20703,0 c 0.43749,9e-6 0.93749,-0.03124 1.5,-0.09375 0.56249,-0.06249 1.11913,-0.136709 1.66992,-0.222656 0.55077,-0.08593 1.05663,-0.173818 1.51758,-0.263672 0.46092,-0.08983 0.80858,-0.158193 1.04297,-0.205078 0.0312,-0.101552 0.0605,-0.238271 0.0879,-0.4101556 0.0273,-0.171865 0.0527,-0.363271 0.0762,-0.574219 0.0234,-0.210926 0.041,-0.435535 0.0527,-0.673828 0.0117,-0.238269 0.0176,-0.48241 0.0176,-0.732422 -1e-5,-0.203112 -0.008,-0.435534 -0.0234,-0.697265 -0.0156,-0.261706 -0.0625,-0.509753 -0.14063,-0.744141 -0.0781,-0.234361 -0.19728,-0.431627 -0.35742,-0.591797 -0.16017,-0.160142 -0.38478,-0.24022 -0.67383,-0.240234 z"
       id="path3137"
       inkscape:connector-curvature="0" />
    <path
       d="m 132.55372,18.326973 c 0.29686,-1.296872 0.63085,-2.605465 1.00195,-3.925782 0.37108,-1.320305 0.73241,-2.628897 1.08398,-3.925781 0.14843,-0.5390516 0.27929,-1.0292856 0.39258,-1.4707026 0.11327,-0.441395 0.20898,-0.841785 0.28711,-1.201172 0.0781,-0.359362 0.13671,-0.685534 0.17578,-0.978515 0.0391,-0.292956 0.0586,-0.56444 0.0586,-0.814454 -1e-5,-0.04686 -1e-5,-0.0996 0,-0.158203 -1e-5,-0.05858 -0.004,-0.130845 -0.0117,-0.216797 -0.0781,1.5e-5 -0.25197,0.04298 -0.52149,0.128907 -0.26954,0.08595 -0.58594,0.199233 -0.94922,0.339843 -0.36329,0.140639 -0.7461,0.298842 -1.14843,0.47461 -0.40235,0.175794 -0.7754,0.353529 -1.11914,0.533203 -0.27345,0.140638 -0.50196,0.257825 -0.68555,0.351562 -0.1836,0.09376 -0.3418,0.166029 -0.47461,0.216797 -0.13282,0.05079 -0.25391,0.08595 -0.36328,0.105469 -0.10938,0.01954 -0.22266,0.02931 -0.33985,0.0293 -0.24219,1.2e-5 -0.45117,-0.09374 -0.62695,-0.28125 -0.17578,-0.187487 -0.26367,-0.429675 -0.26367,-0.726563 0,-0.171861 0.0176,-0.322252 0.0527,-0.451171 0.0352,-0.128893 0.0898,-0.244127 0.16407,-0.345704 0.0742,-0.101548 0.17382,-0.197251 0.29882,-0.287109 0.125,-0.08983 0.27734,-0.181626 0.45704,-0.275391 1.97655,-1.0312339 3.97655,-1.7870919 6,-2.2675779 2.02342,-0.480451 4.05467,-0.720685 6.09375,-0.720703 0.16404,1.8e-5 0.35935,0.0039 0.58593,0.01172 0.22655,0.0078 0.45897,0.0215 0.69727,0.04102 0.23826,0.01955 0.47068,0.04689 0.69726,0.08203 0.22655,0.03517 0.42577,0.07619 0.59766,0.123047 0.17967,0.0547 0.33592,0.167986 0.46875,0.339843 0.13279,0.171892 0.1992,0.355486 0.19922,0.550782 -2e-5,0.156266 -0.0137,0.30861 -0.041,0.457031 -0.0274,0.148453 -0.0762,0.27736 -0.14648,0.386719 -0.0703,0.10939 -0.16213,0.197281 -0.27539,0.263672 -0.1133,0.06642 -0.25197,0.09962 -0.41602,0.09961 -0.28127,-0.03124 -0.60353,-0.0703 -0.96679,-0.117188 -0.3633,-0.04686 -0.72854,-0.0703 -1.09571,-0.07031 -0.73439,1.5e-5 -1.46681,0.01759 -2.19726,0.05273 -0.73049,0.03517 -1.47853,0.138688 -2.24414,0.3105469 -0.0391,0.01564 -0.0645,0.05666 -0.0762,0.123047 -0.0117,0.06642 -0.0215,0.150406 -0.0293,0.251953 -0.0234,0.42189 -0.0586,0.792983 -0.10547,1.113281 -0.0469,0.320326 -0.11134,0.640638 -0.19336,0.960938 -0.082,0.320325 -0.18165,0.666028 -0.29883,1.037109 -0.1172,0.371105 -0.25392,0.816417 -0.41015,1.335938 -0.15627,0.5195406 -0.33791,1.1406336 -0.54493,1.8632806 -0.20704,0.722664 -0.43555,1.59571 -0.68554,2.619141 l -0.5625,2.273437 c -0.13283,0.523441 -0.23634,0.994143 -0.31055,1.41211 -0.0742,0.41797 -0.13868,0.830079 -0.19336,1.236328 -0.0313,0.132813 -0.1504,0.257813 -0.35742,0.375 -0.20704,0.117188 -0.45118,0.175781 -0.73242,0.175781 -0.16407,0 -0.31251,-0.04492 -0.44532,-0.134766 -0.13282,-0.08984 -0.24219,-0.205077 -0.32812,-0.345703 -0.0859,-0.140624 -0.14454,-0.294921 -0.17578,-0.46289 -0.0313,-0.167968 -0.0234,-0.333983 0.0234,-0.498047 z"
       id="path3139"
       inkscape:connector-curvature="0" />
    <path
       d="m 142.88965,19.346504 c 0,-0.273436 0.0391,-0.562499 0.11719,-0.867188 0.26562,-1.062497 0.57617,-2.103511 0.93164,-3.123046 0.35547,-1.019526 0.67773,-2.033197 0.9668,-3.041016 0.28906,-1.007804 0.52929,-1.857412 0.7207,-2.5488276 0.1914,-0.691395 0.36132,-1.285145 0.50977,-1.78125 0.14843,-0.496081 0.28515,-0.923815 0.41015,-1.283203 0.125,-0.359361 0.26172,-0.71483 0.41016,-1.066407 0.0937,-0.210922 0.19726,-0.429672 0.31055,-0.65625 0.11327,-0.2265469 0.23632,-0.4355309 0.36914,-0.6269529 0.1328,-0.19139 0.27147,-0.34764 0.41601,-0.46875 0.14453,-0.121077 0.29492,-0.181624 0.45117,-0.18164 0.32031,1.6e-5 0.56445,0.05275 0.73243,0.158203 0.16796,0.105485 0.27147,0.201188 0.31054,0.287109 l 0.10547,0.480469 c 0.11718,-0.0078 0.26952,-0.02928 0.45703,-0.06445 0.18749,-0.03514 0.37695,-0.07225 0.56836,-0.111328 0.1914,-0.03905 0.36913,-0.07811 0.53321,-0.117188 0.16405,-0.03905 0.28905,-0.0742 0.375,-0.105469 0.51561,-0.140608 0.99217,-0.261702 1.42968,-0.363281 0.43749,-0.101546 0.85351,-0.18553 1.24805,-0.251953 0.39452,-0.06639 0.77147,-0.115218 1.13086,-0.146484 0.35936,-0.03123 0.72264,-0.04686 1.08984,-0.04687 0.35936,1.6e-5 0.65233,0.01955 0.87891,0.05859 0.22655,0.03908 0.40623,0.09181 0.53906,0.158204 0.1328,0.06642 0.22459,0.144547 0.27539,0.234375 0.0508,0.08986 0.0762,0.185563 0.0762,0.287109 -1e-5,0.09377 -0.0254,0.193375 -0.0762,0.298828 -0.0508,0.105484 -0.13478,0.205094 -0.25195,0.298828 -0.11721,0.09377 -0.26955,0.1757969 -0.45703,0.2460939 -0.18752,0.07033 -0.42189,0.117202 -0.70313,0.140625 -0.0703,0.01564 -0.23243,0.04494 -0.48632,0.08789 -0.25393,0.04298 -0.52932,0.08986 -0.82618,0.140625 -0.29689,0.0508 -0.57814,0.09962 -0.84375,0.146484 -0.26564,0.04689 -0.44923,0.08205 -0.55078,0.105469 l 0.0117,0 c -0.0469,0.0078 -0.15822,0.03712 -0.33398,0.08789 -0.1758,0.0508 -0.38869,0.10939 -0.63868,0.175782 -0.25001,0.06642 -0.52149,0.142592 -0.81445,0.228515 -0.29298,0.08595 -0.58204,0.169936 -0.86719,0.251953 -0.28516,0.08205 -0.54883,0.16017 -0.79101,0.234375 -0.2422,0.07423 -0.43751,0.134779 -0.58594,0.181641 -0.47657,0.187513 -0.84962,0.43556 -1.11914,0.744141 -0.26954,0.308606 -0.48243,0.654308 -0.63867,1.037109 -0.0313,0.07032 -0.0781,0.189464 -0.14063,0.357422 -0.0625,0.16798 -0.13086,0.359386 -0.20507,0.574219 -0.0742,0.214854 -0.15431,0.443369 -0.24024,0.6855456 -0.0859,0.242198 -0.16797,0.472666 -0.24609,0.691407 -0.0781,0.218759 -0.14649,0.417977 -0.20508,0.597656 -0.0586,0.179696 -0.0996,0.312508 -0.12305,0.398437 -0.0234,0.07813 -0.0391,0.148446 -0.0469,0.210938 -0.008,0.06251 -0.0117,0.109383 -0.0117,0.140625 -1e-5,0.04688 0.0117,0.07032 0.0351,0.07031 0.11719,8e-6 0.36133,-0.05273 0.73243,-0.158203 0.37108,-0.10546 0.80468,-0.23632 1.30078,-0.392578 0.49608,-0.156241 1.02733,-0.32421 1.59375,-0.503906 0.56639,-0.179678 1.10936,-0.347647 1.6289,-0.503906 0.51952,-0.156241 0.98241,-0.2871 1.38868,-0.392578 0.40623,-0.105459 0.6992,-0.158194 0.8789,-0.158204 0.27343,1e-5 0.45702,0.04493 0.55078,0.134766 0.0937,0.08985 0.14061,0.189463 0.14063,0.298828 -2e-5,0.281259 -0.0996,0.527353 -0.29883,0.738281 -0.19923,0.210947 -0.44728,0.39454 -0.74414,0.550782 -0.0938,0.04688 -0.26759,0.115242 -0.52148,0.205078 -0.25392,0.08985 -0.52736,0.181648 -0.82032,0.27539 -0.29298,0.09376 -0.57227,0.183602 -0.83789,0.269532 -0.26563,0.08594 -0.45704,0.148445 -0.57422,0.1875 -0.76563,0.296882 -1.38868,0.541022 -1.86914,0.732422 -0.48047,0.191412 -0.86915,0.347662 -1.16601,0.46875 -0.29689,0.121099 -0.5254,0.212896 -0.68555,0.27539 -0.16016,0.06251 -0.3086,0.11524 -0.44531,0.158203 -0.13673,0.04298 -0.28712,0.08399 -0.45117,0.123047 -0.16407,0.03907 -0.39064,0.09376 -0.67969,0.164063 -0.0703,0.164067 -0.15235,0.412114 -0.2461,0.74414 -0.0937,0.332036 -0.18359,0.675786 -0.26953,1.03125 -0.0859,0.355472 -0.1582,0.68555 -0.21679,0.990235 -0.0586,0.30469 -0.0879,0.515627 -0.0879,0.632812 -1e-5,0.140627 0.0195,0.244143 0.0586,0.310547 0.0391,0.06641 0.0859,0.11133 0.14062,0.134766 0.0547,0.02344 0.10937,0.03516 0.16407,0.03516 0.0547,1e-6 0.0976,1e-6 0.1289,0 0.375,1e-6 0.82617,-0.05469 1.35352,-0.164063 0.52734,-0.109373 1.04882,-0.253904 1.56445,-0.433593 0.49218,-0.171873 0.92187,-0.359373 1.28906,-0.5625 0.36718,-0.203122 0.71288,-0.392575 1.03711,-0.56836 0.32421,-0.175778 0.64062,-0.324215 0.94922,-0.445312 0.30858,-0.12109 0.64647,-0.185543 1.01367,-0.19336 0.0781,4e-6 0.16991,0.0078 0.2754,0.02344 0.10545,0.01563 0.20506,0.04493 0.29882,0.08789 0.0937,0.04297 0.16991,0.09961 0.22852,0.169921 0.0586,0.07032 0.0801,0.16016 0.0644,0.269532 -0.0313,0.226565 -0.14454,0.449221 -0.33984,0.667968 -0.19533,0.218753 -0.44142,0.42969 -0.73828,0.632813 -0.29689,0.203127 -0.62892,0.398439 -0.9961,0.585937 -0.3672,0.187502 -0.74219,0.365236 -1.125,0.533204 -0.38282,0.167969 -0.75782,0.320313 -1.125,0.457031 -0.36719,0.136719 -0.69532,0.255859 -0.98437,0.357422 -0.71876,0.25 -1.41798,0.433593 -2.09766,0.550781 -0.67969,0.117187 -1.28907,0.175781 -1.82812,0.175781 -0.59376,0 -1.04883,-0.111328 -1.36524,-0.333984 -0.31641,-0.222657 -0.47461,-0.591797 -0.47461,-1.107422 z"
       id="path3141"
       inkscape:connector-curvature="0" />
    <path
       d="m 176.48593,26.22766 c -0.16408,0 -0.30861,-0.03125 -0.43359,-0.09375 -0.12502,-0.0625 -0.22853,-0.144532 -0.31055,-0.246094 -0.082,-0.101562 -0.14454,-0.21875 -0.1875,-0.351563 -0.043,-0.132811 -0.0645,-0.265624 -0.0644,-0.398437 -2e-5,-0.117187 0.0312,-0.279296 0.0937,-0.486328 0.0625,-0.20703 0.14256,-0.439451 0.24023,-0.697266 0.0976,-0.25781 0.20507,-0.527341 0.32227,-0.808594 0.11717,-0.281246 0.23045,-0.550777 0.33984,-0.808593 0.10936,-0.257809 0.20311,-0.49609 0.28125,-0.714844 0.0781,-0.218745 0.1328,-0.39062 0.16406,-0.515625 0.0312,-0.14062 0.0703,-0.308589 0.11719,-0.503906 0.0469,-0.195307 0.0996,-0.408198 0.1582,-0.638672 0.0586,-0.230463 0.11718,-0.47265 0.17578,-0.726563 0.0586,-0.253899 0.11913,-0.509758 0.18164,-0.767578 -0.10938,0.02345 -0.24415,0.04493 -0.40429,0.06445 -0.16017,0.01954 -0.33009,0.03712 -0.50977,0.05274 -0.25782,0.02344 -0.51173,0.0586 -0.76172,0.105468 -0.25001,0.04688 -0.50587,0.09962 -0.76757,0.158204 -0.26173,0.0586 -0.53322,0.1211 -0.81446,0.1875 -0.28126,0.06641 -0.58204,0.134772 -0.90234,0.205078 -0.46876,0.101569 -0.93751,0.21485 -1.40625,0.339843 -0.46876,0.125007 -0.95704,0.187507 -1.46485,0.1875 -0.15625,7e-6 -0.30078,-0.04101 -0.43359,-0.123046 -0.13282,-0.08203 -0.28126,-0.142572 -0.44531,-0.181641 -0.15626,0.250006 -0.30469,0.517584 -0.44531,0.802734 -0.14063,0.285162 -0.26954,0.578131 -0.38672,0.878907 -0.1172,0.300785 -0.22266,0.59766 -0.31641,0.890625 -0.0937,0.292972 -0.17578,0.568362 -0.24609,0.826171 -0.0391,0.140628 -0.0723,0.322269 -0.0996,0.544922 -0.0273,0.222659 -0.0527,0.449221 -0.0762,0.679688 -0.0234,0.23047 -0.0469,0.451173 -0.0703,0.662109 -0.0234,0.210939 -0.0469,0.378907 -0.0703,0.503906 -0.0234,0.117189 -0.0703,0.232423 -0.14062,0.345704 -0.0703,0.113281 -0.15626,0.216797 -0.25782,0.310546 -0.10156,0.09375 -0.21484,0.169922 -0.33984,0.228516 -0.125,0.05859 -0.25,0.08789 -0.375,0.08789 -0.21875,0 -0.39649,-0.06445 -0.5332,-0.19336 -0.13672,-0.128906 -0.2461,-0.289062 -0.32813,-0.480468 -0.082,-0.191406 -0.13867,-0.40039 -0.16992,-0.626954 -0.0312,-0.226561 -0.0469,-0.433592 -0.0469,-0.621093 0,-0.476561 0.0586,-0.970701 0.17579,-1.482422 0.11718,-0.511715 0.27538,-1.031246 0.47461,-1.558594 0.19921,-0.527338 0.43359,-1.058588 0.70312,-1.59375 0.26953,-0.535149 0.56054,-1.068352 0.87305,-1.599609 0.25781,-0.476554 0.57812,-1.027335 0.96093,-1.652344 0.38281,-0.62499 0.81055,-1.267567 1.28321,-1.927734 0.47265,-0.660143 0.98437,-1.306627 1.53515,-1.939453 0.55078,-0.632798 1.12304,-1.19725 1.7168,-1.693359 0.59374,-0.496078 1.20312,-0.8964683 1.82813,-1.2011723 0.62498,-0.304671 1.24608,-0.457014 1.86328,-0.457031 0.64842,1.7e-5 1.18944,0.117204 1.62304,0.351562 0.43358,0.234392 0.77929,0.5507983 1.03711,0.9492193 0.2578,0.398453 0.43944,0.863296 0.54493,1.394531 0.10545,0.531264 0.15818,1.093763 0.1582,1.6875 -2e-5,0.523449 -0.0332,1.062511 -0.0996,1.617187 -0.0664,0.554698 -0.14845,1.097666 -0.24609,1.628906 -0.0977,0.531259 -0.20315,1.042977 -0.31641,1.535156 -0.1133,0.492195 -0.21681,0.937507 -0.31055,1.335938 l -0.41015,1.59375 c -0.0156,0.04688 -0.0449,0.14063 -0.0879,0.28125 -0.043,0.140629 -0.0977,0.310551 -0.16407,0.509766 -0.0664,0.199222 -0.14064,0.414066 -0.22265,0.644531 -0.082,0.230472 -0.16408,0.457034 -0.2461,0.679687 -0.082,0.222659 -0.16017,0.427737 -0.23437,0.615235 -0.0742,0.187502 -0.13869,0.339845 -0.19336,0.457031 l 0.0117,-0.01172 c -0.0547,0.203127 -0.1133,0.410158 -0.17578,0.621094 -0.0625,0.210938 -0.14846,0.400391 -0.25782,0.568359 -0.10939,0.167969 -0.25001,0.304688 -0.42187,0.410157 -0.17189,0.105468 -0.39455,0.158203 -0.66797,0.158203 z m 0.59766,-14.671874 c -0.35158,1.4e-5 -0.70119,0.07228 -1.04883,0.216797 -0.34767,0.144545 -0.68947,0.333998 -1.02539,0.568359 -0.33595,0.234388 -0.66212,0.507826 -0.97852,0.820312 -0.31641,0.312513 -0.6172,0.632825 -0.90234,0.960937 -0.28517,0.328137 -0.55275,0.658214 -0.80274,0.990234 -0.25,0.332042 -0.47657,0.638682 -0.67968,0.919922 -0.0313,0.04689 -0.0723,0.107432 -0.12305,0.181641 -0.0508,0.07423 -0.10157,0.156259 -0.15234,0.246094 -0.0508,0.08985 -0.0996,0.183603 -0.14649,0.28125 -0.0469,0.09766 -0.0859,0.185556 -0.11719,0.263671 l 1.20703,0 c 0.4375,9e-6 0.9375,-0.03124 1.5,-0.09375 0.56249,-0.06249 1.11913,-0.136709 1.66993,-0.222656 0.55077,-0.08593 1.05662,-0.173818 1.51757,-0.263672 0.46093,-0.08983 0.80858,-0.158193 1.04297,-0.205078 0.0312,-0.101552 0.0605,-0.238271 0.0879,-0.410156 0.0273,-0.171865 0.0527,-0.363271 0.0762,-0.574219 0.0234,-0.210926 0.041,-0.435535 0.0527,-0.673828 0.0117,-0.238269 0.0176,-0.48241 0.0176,-0.732421 -2e-5,-0.203112 -0.008,-0.435534 -0.0234,-0.697265 -0.0156,-0.261706 -0.0625,-0.509753 -0.14062,-0.744141 -0.0781,-0.234361 -0.19728,-0.431627 -0.35743,-0.591797 -0.16017,-0.160142 -0.38478,-0.24022 -0.67382,-0.240234 z"
       id="path3143"
       inkscape:connector-curvature="0" />
    <path
       d="m 186.41171,11.919067 c 0.0469,-0.203111 0.10546,-0.419907 0.17578,-0.650391 0.0703,-0.230453 0.16406,-0.441391 0.28125,-0.632812 0.11718,-0.191391 0.26953,-0.351547 0.45703,-0.480469 0.1875,-0.12889 0.42578,-0.1933433 0.71485,-0.1933593 0.27343,1.6e-5 0.51757,0.07619 0.73242,0.2285153 0.21483,0.15236 0.40819,0.306656 0.58008,0.462891 0.20311,0.132828 0.39843,0.402359 0.58593,0.808594 0.18749,0.406264 0.38085,0.906263 0.58008,1.5 0.19921,0.593762 0.41405,1.265636 0.64453,2.015624 0.23046,0.75001 0.48437,1.535165 0.76172,2.355468 0.27733,0.820321 0.58788,1.658211 0.93164,2.513672 0.34374,0.855474 0.73437,1.689458 1.17188,2.501953 0.0703,0.125004 0.15233,0.271488 0.24609,0.439454 0.0937,0.167971 0.18944,0.326174 0.28711,0.474609 0.0976,0.14844 0.18749,0.27344 0.26953,0.375 0.082,0.101565 0.14257,0.152346 0.18164,0.152344 0.0234,2e-6 0.0508,-0.05859 0.082,-0.175782 0.0312,-0.117185 0.0664,-0.257809 0.10547,-0.421875 0.0391,-0.164059 0.0801,-0.332028 0.12305,-0.503906 0.0429,-0.171871 0.084,-0.312496 0.12305,-0.421875 0.14842,-0.359371 0.31053,-0.77148 0.48633,-1.236328 0.17576,-0.464838 0.37107,-1.027338 0.58593,-1.6875 0.21483,-0.660149 0.45116,-1.443351 0.70899,-2.349609 0.25779,-0.90624 0.54295,-1.980458 0.85547,-3.222656 0.0781,-0.304674 0.16209,-0.650377 0.25195,-1.037109 0.0898,-0.386705 0.17576,-0.781236 0.25781,-1.183594 0.082,-0.402329 0.15428,-0.794906 0.2168,-1.177734 0.0625,-0.3827973 0.10545,-0.7148273 0.1289,-0.9960943 -1e-5,-0.04686 0.004,-0.128889 0.0117,-0.246094 0.008,-0.11717 0.0215,-0.249982 0.041,-0.3984372 0.0195,-0.14842 0.0449,-0.302717 0.0762,-0.462891 0.0312,-0.160138 0.0722,-0.306622 0.12305,-0.439453 0.0508,-0.132794 0.11521,-0.242169 0.19336,-0.328125 0.0781,-0.08592 0.17185,-0.128887 0.28125,-0.128906 0.10935,1.9e-5 0.24412,0.01564 0.40429,0.04687 0.16014,0.03127 0.30662,0.07814 0.43946,0.140625 0.14841,0.203143 0.28318,0.447284 0.40429,0.732422 0.12108,0.285174 0.18162,0.6699392 0.18164,1.1542972 -2e-5,0.304703 -0.0313,0.6699373 -0.0937,1.0957033 -0.0625,0.425796 -0.14259,0.882827 -0.24023,1.371094 -0.0977,0.488294 -0.20705,0.990247 -0.32812,1.505859 -0.12112,0.515637 -0.24417,1.009776 -0.36915,1.482421 -0.12501,0.472667 -0.24416,0.90626 -0.35742,1.300781 -0.1133,0.394541 -0.209,0.720712 -0.28711,0.978516 -0.14064,0.453133 -0.28712,0.91993 -0.43945,1.40039 -0.15236,0.480476 -0.32033,0.984382 -0.50391,1.511719 -0.18361,0.527349 -0.38283,1.085942 -0.59765,1.675781 -0.21486,0.589848 -0.4551,1.220706 -0.72071,1.892578 -0.1172,0.30469 -0.25196,0.609377 -0.40429,0.914063 -0.15236,0.304689 -0.32619,0.580079 -0.52149,0.826172 -0.19532,0.246094 -0.41603,0.445313 -0.66211,0.597656 -0.2461,0.152344 -0.5215,0.228516 -0.82617,0.228516 -0.1797,0 -0.36525,-0.02539 -0.55664,-0.07617 -0.19142,-0.05078 -0.35353,-0.154297 -0.48633,-0.310547 -0.64063,-0.742187 -1.21095,-1.583983 -1.71093,-2.525391 -0.50002,-0.941402 -0.94728,-1.925776 -1.3418,-2.953125 -0.39454,-1.027337 -0.74415,-2.066398 -1.04883,-3.117187 -0.3047,-1.050772 -0.58204,-2.05663 -0.83203,-3.017578 l -0.0703,-0.269532 c -0.0313,-0.109361 -0.0606,-0.220689 -0.0879,-0.333983 -0.0274,-0.113269 -0.0547,-0.216784 -0.082,-0.310547 -0.0274,-0.09374 -0.0586,-0.169909 -0.0937,-0.228515 -0.0352,-0.05858 -0.0762,-0.08788 -0.12305,-0.08789 -0.0469,1.3e-5 -0.10548,0.08595 -0.17578,0.257812 -0.0703,0.171888 -0.14064,0.365247 -0.21094,0.580079 -0.0703,0.214854 -0.13477,0.423838 -0.19336,0.626952 -0.0586,0.203136 -0.0957,0.332042 -0.11133,0.386718 -0.0547,0.203136 -0.13672,0.494152 -0.24609,0.873047 -0.10938,0.378917 -0.23243,0.80665 -0.36914,1.283203 -0.13673,0.476572 -0.28516,0.980477 -0.44531,1.511719 -0.16017,0.531257 -0.31446,1.044929 -0.4629,1.541016 -0.14844,0.496099 -0.28906,0.955083 -0.42187,1.376953 -0.13282,0.421879 -0.24219,0.761723 -0.32813,1.019531 -0.0703,0.203129 -0.15625,0.464847 -0.25781,0.785156 -0.10156,0.320315 -0.20313,0.642581 -0.30469,0.966797 -0.10156,0.324221 -0.19531,0.619142 -0.28125,0.884766 -0.0859,0.265626 -0.14062,0.441407 -0.16406,0.527344 -0.0937,0.296875 -0.23242,0.521484 -0.41601,0.673828 -0.1836,0.152343 -0.36915,0.228515 -0.55664,0.228515 -0.11719,0 -0.23438,-0.04102 -0.35157,-0.123046 -0.11719,-0.08203 -0.2207,-0.181641 -0.31054,-0.298829 -0.0898,-0.117187 -0.16407,-0.24414 -0.22266,-0.380859 -0.0586,-0.136718 -0.0879,-0.259765 -0.0879,-0.369141 0,-0.0625 0.0195,-0.162108 0.0586,-0.298828 0.0391,-0.136717 0.10156,-0.369139 0.1875,-0.697265 l 0.30469,-1.207032 z"
       id="path3145"
       inkscape:connector-curvature="0" />
    <path
       d="m 27.115604,61.166719 c 0.140622,-0.585931 0.343747,-1.18554 0.609375,-1.798828 0.265621,-0.613273 0.578121,-1.228507 0.9375,-1.845704 0.35937,-0.617177 0.75976,-1.224598 1.201172,-1.822265 0.4414,-0.597644 0.91015,-1.175769 1.40625,-1.734375 0.496086,-0.55858 1.007804,-1.085923 1.535156,-1.582031 0.527335,-0.496079 1.056631,-0.951157 1.587891,-1.365235 0.249989,-0.171859 0.480458,-0.28514 0.691406,-0.339844 0.210926,-0.05467 0.433582,-0.08201 0.667969,-0.08203 0.249988,1.7e-5 0.472644,0.03713 0.667968,0.111328 0.195301,0.07424 0.390613,0.209001 0.585938,0.404297 0.06249,0.07033 0.128893,0.132829 0.199219,0.1875 0.0703,0.0547 0.136705,0.08205 0.199218,0.08203 0.01561,1.6e-5 0.03514,-0.01756 0.05859,-0.05273 0.02342,-0.03514 0.04881,-0.07616 0.07617,-0.123047 0.02733,-0.04686 0.06053,-0.09569 0.09961,-0.146484 0.03905,-0.05076 0.08592,-0.08787 0.140625,-0.111328 0.132799,-0.06248 0.291002,-0.1035 0.47461,-0.123047 0.183579,-0.01951 0.369126,-0.02928 0.55664,-0.0293 0.351548,1.6e-5 0.691391,0.06447 1.019532,0.193359 0.328109,0.128923 0.617171,0.310563 0.867187,0.544922 0.593733,0.554703 1.044905,1.218765 1.353516,1.992188 0.308575,0.77345 0.462872,1.60548 0.46289,2.496093 -1.8e-5,0.796886 -0.117205,1.65626 -0.351562,2.578125 -0.203143,0.812508 -0.494158,1.60157 -0.873047,2.367188 -0.378923,0.76563 -0.824235,1.48438 -1.335938,2.15625 -0.511733,0.671878 -1.082045,1.285159 -1.710937,1.839844 -0.62892,0.554689 -1.298841,1.031251 -2.009766,1.429687 -0.710948,0.398438 -1.453135,0.708985 -2.226562,0.931641 -0.773447,0.222656 -1.558602,0.333984 -2.355469,0.333984 -0.742194,0 -1.408209,-0.113282 -1.998047,-0.339844 -0.589848,-0.226562 -1.089848,-0.546874 -1.5,-0.960937 -0.410159,-0.414061 -0.722659,-0.906248 -0.9375,-1.476563 -0.214846,-0.570309 -0.322268,-1.203121 -0.322265,-1.898437 -3e-6,-0.296871 0.01758,-0.595698 0.05273,-0.896484 0.03515,-0.300776 0.09179,-0.607417 0.169922,-0.919922 z m 1.980469,0.785156 c -0.08594,0.39063 -0.128911,0.742192 -0.128907,1.054687 -4e-6,0.437504 0.07617,0.822269 0.228516,1.154297 0.152339,0.332034 0.367182,0.609378 0.644531,0.832032 0.277338,0.222658 0.609369,0.390626 0.996094,0.503906 0.386712,0.113283 0.81054,0.169923 1.271484,0.169922 0.546867,10e-7 1.103507,-0.08594 1.669922,-0.257813 0.566396,-0.171873 1.11913,-0.421873 1.658203,-0.75 0.539051,-0.328122 1.058582,-0.722653 1.558594,-1.183594 0.499987,-0.460933 0.962877,-0.98437 1.388672,-1.570312 0.425767,-0.585932 0.804673,-1.22265 1.136719,-1.910156 0.332015,-0.687493 0.599593,-1.417961 0.802734,-2.191407 0.07811,-0.28124 0.13475,-0.574208 0.169922,-0.878906 0.03514,-0.304677 0.05272,-0.597645 0.05273,-0.878906 -1.6e-5,-0.453114 -0.0508,-0.886707 -0.152343,-1.300781 -0.101579,-0.41405 -0.269547,-0.781237 -0.503907,-1.101563 -0.23439,-0.320299 -0.542983,-0.576158 -0.925781,-0.767578 -0.382827,-0.191392 -0.851576,-0.287095 -1.40625,-0.287109 -0.07814,1.4e-5 -0.138685,0.03322 -0.181641,0.09961 -0.04298,0.06642 -0.0879,0.150405 -0.134765,0.251953 -0.03908,0.08595 -0.084,0.175795 -0.134766,0.269531 -0.05079,0.09376 -0.1172,0.177749 -0.199219,0.251954 -0.08204,0.07423 -0.183606,0.134779 -0.304687,0.18164 -0.121106,0.04689 -0.271496,0.07033 -0.451172,0.07031 -0.132824,1.3e-5 -0.250011,-0.02928 -0.351562,-0.08789 -0.101574,-0.05858 -0.203137,-0.138658 -0.304688,-0.240234 -0.04689,-0.04686 -0.08595,-0.08397 -0.117187,-0.111328 -0.03126,-0.02733 -0.06642,-0.041 -0.105469,-0.04102 -0.07032,1.4e-5 -0.16212,0.03126 -0.275391,0.09375 -0.113292,0.06251 -0.230479,0.136732 -0.351562,0.222656 -0.121104,0.08595 -0.238292,0.175795 -0.351563,0.269531 -0.113291,0.09376 -0.201181,0.175795 -0.263672,0.246094 -0.531259,0.546888 -1.060555,1.14259 -1.58789,1.78711 -0.527352,0.644541 -1.013679,1.310556 -1.458985,1.998046 -0.445318,0.687509 -0.83399,1.380868 -1.166015,2.080079 -0.332037,0.699225 -0.572271,1.373052 -0.720703,2.021484 z"
       id="path3147"
       inkscape:connector-curvature="0" />
    <path
       d="m 43.83826,66.580781 c 0.03125,-0.140624 0.07617,-0.273437 0.134766,-0.398437 0.05859,-0.124999 0.123044,-0.265624 0.193359,-0.421875 0.07031,-0.156249 0.144528,-0.341796 0.222656,-0.556641 0.07812,-0.214842 0.156247,-0.482419 0.234375,-0.802734 l 0.457032,-1.875 c 0.109371,-0.45312 0.222652,-0.91601 0.339843,-1.388672 0.117184,-0.47265 0.253902,-1.005853 0.410157,-1.59961 0.124995,-0.476554 0.275386,-0.9746 0.451171,-1.49414 0.175777,-0.519522 0.35937,-1.056631 0.550782,-1.611328 0.1914,-0.554677 0.38476,-1.124989 0.580078,-1.710938 0.195306,-0.585924 0.371087,-1.191393 0.527344,-1.816406 0.0078,-0.02342 0.01171,-0.05467 0.01172,-0.09375 -6e-6,-0.06249 -0.01954,-0.101548 -0.05859,-0.117188 -0.03907,-0.01561 -0.08985,-0.02342 -0.152344,-0.02344 -0.195319,1.4e-5 -0.357428,-0.02928 -0.486328,-0.08789 -0.128912,-0.05858 -0.230475,-0.134751 -0.304688,-0.228515 -0.07422,-0.09373 -0.126958,-0.201157 -0.158203,-0.322266 -0.03126,-0.121079 -0.04688,-0.248032 -0.04687,-0.380859 -5e-6,-0.343735 0.04101,-0.619125 0.123047,-0.826172 0.08203,-0.207015 0.187494,-0.367171 0.316406,-0.480469 0.128901,-0.113264 0.269525,-0.195296 0.421875,-0.246094 0.152338,-0.05076 0.300775,-0.09178 0.445313,-0.123047 0.144524,-0.03123 0.271477,-0.06444 0.380859,-0.09961 0.109368,-0.03514 0.187493,-0.09959 0.234375,-0.193359 0.07812,-0.164045 0.150383,-0.337873 0.216797,-0.521485 0.0664,-0.183575 0.150383,-0.353497 0.251953,-0.509765 0.101555,-0.156232 0.226555,-0.285138 0.375,-0.386719 0.148429,-0.101544 0.343742,-0.152325 0.585938,-0.152344 0.171866,1.9e-5 0.324209,0.04689 0.457031,0.140625 0.132803,0.09377 0.248037,0.210956 0.345703,0.351563 0.09765,0.140643 0.181631,0.291033 0.251953,0.451172 0.0703,0.160174 0.132803,0.306658 0.1875,0.439453 0.804677,0.02346 1.501942,0.07033 2.091797,0.140625 0.589831,0.07033 1.03319,0.132829 1.330078,0.1875 0.585924,0.109392 1.173814,0.273454 1.763672,0.492187 0.589828,0.218767 1.121078,0.50197 1.59375,0.84961 0.472639,0.347671 0.859357,0.757827 1.160156,1.230468 0.300763,0.472671 0.451154,1.013686 0.451172,1.623047 -1.8e-5,0.312513 -0.03517,0.636731 -0.105469,0.972656 l -0.08203,0.410157 c -0.06252,0.328136 -0.193377,0.632823 -0.392578,0.914062 -0.199236,0.281261 -0.423845,0.535167 -0.673828,0.761719 -0.695329,0.640634 -1.457047,1.177743 -2.285156,1.611328 -0.828139,0.433602 -1.69142,0.798836 -2.589844,1.095703 -0.898449,0.296882 -1.816417,0.546882 -2.753906,0.75 -0.937509,0.203132 -1.863289,0.394538 -2.777344,0.574219 l -0.328125,0.04687 c -0.179694,0.02344 -0.285162,0.08985 -0.316406,0.199219 -0.156256,0.539067 -0.279303,1.011723 -0.369141,1.417968 -0.08985,0.406254 -0.173834,0.794926 -0.251953,1.166016 -0.07813,0.371097 -0.156255,0.74219 -0.234375,1.113281 -0.07813,0.371096 -0.175786,0.783205 -0.292969,1.236328 -0.03907,0.148439 -0.10938,0.32422 -0.210937,0.527344 -0.101567,0.203125 -0.222661,0.394531 -0.363282,0.574219 -0.140629,0.179687 -0.302738,0.333984 -0.486328,0.462891 -0.183597,0.128905 -0.376956,0.193358 -0.580078,0.193359 -0.140628,-10e-7 -0.261722,-0.03906 -0.363281,-0.117188 -0.101565,-0.07813 -0.18555,-0.177735 -0.251953,-0.298828 -0.06641,-0.121094 -0.11719,-0.251953 -0.152344,-0.392578 -0.03516,-0.140625 -0.05274,-0.273437 -0.05273,-0.398437 -3e-6,-0.04687 -3e-6,-0.0918 0,-0.134766 -3e-6,-0.04297 0.0078,-0.08398 0.02344,-0.123047 z m 4.652344,-8.660156 c -0.01563,0.0547 -0.03712,0.123056 -0.06445,0.205078 -0.02735,0.08204 -0.05274,0.167978 -0.07617,0.257813 -0.02345,0.08985 -0.04298,0.171883 -0.05859,0.246093 -0.01563,0.07423 -0.02344,0.126962 -0.02344,0.158203 -7e-6,0.03907 0.0059,0.07227 0.01758,0.09961 0.01171,0.02735 0.0371,0.04102 0.07617,0.04102 0.02343,9e-6 0.09765,-0.0098 0.222656,-0.0293 0.124993,-0.01952 0.275383,-0.04491 0.451172,-0.07617 0.175773,-0.03124 0.365226,-0.0664 0.568359,-0.105469 0.203117,-0.03905 0.398429,-0.07812 0.585938,-0.117188 0.507803,-0.109366 1.050771,-0.248038 1.628906,-0.416015 0.578114,-0.16796 1.154285,-0.357413 1.728515,-0.56836 0.574207,-0.210927 1.123034,-0.43749 1.646485,-0.679687 0.523423,-0.242177 0.988266,-0.499989 1.394531,-0.773438 0.429672,-0.289051 0.773422,-0.578113 1.03125,-0.867187 0.257796,-0.28905 0.386702,-0.597644 0.386719,-0.925781 -1.7e-5,-0.1953 -0.02541,-0.369128 -0.07617,-0.521485 -0.0508,-0.15233 -0.107438,-0.291002 -0.169922,-0.416015 -0.234391,-0.382799 -0.527359,-0.68358 -0.878906,-0.902344 -0.351578,-0.218735 -0.73439,-0.382798 -1.148438,-0.492188 -0.414076,-0.109359 -0.847669,-0.179672 -1.300781,-0.210937 -0.453137,-0.03123 -0.898449,-0.04686 -1.335937,-0.04687 -0.117199,1.5e-5 -0.294934,0.0078 -0.533204,0.02344 -0.238292,0.01564 -0.488291,0.03517 -0.75,0.05859 -0.261728,0.02345 -0.503916,0.05275 -0.726562,0.08789 -0.222666,0.03517 -0.373056,0.07619 -0.451172,0.123047 -0.03907,0.02345 -0.07228,0.06252 -0.09961,0.117187 -0.02735,0.0547 -0.04884,0.101577 -0.06445,0.140625 -0.06251,0.156265 -0.148447,0.373061 -0.257813,0.650391 -0.109384,0.277357 -0.226571,0.587904 -0.351562,0.93164 -0.125009,0.343763 -0.255868,0.707044 -0.392579,1.089844 -0.136726,0.382824 -0.267585,0.755871 -0.392578,1.119141 -0.125007,0.363292 -0.240241,0.703135 -0.345703,1.019531 -0.105476,0.316416 -0.185554,0.576181 -0.240234,0.779297 z"
       id="path3149"
       inkscape:connector-curvature="0" />
    <path
       d="m 59.635135,66.580781 c 0.03125,-0.140624 0.07617,-0.273437 0.134766,-0.398437 0.05859,-0.124999 0.123044,-0.265624 0.193359,-0.421875 0.07031,-0.156249 0.144528,-0.341796 0.222656,-0.556641 0.07812,-0.214842 0.156247,-0.482419 0.234375,-0.802734 l 0.457032,-1.875 c 0.109371,-0.45312 0.222652,-0.91601 0.339843,-1.388672 0.117184,-0.47265 0.253902,-1.005853 0.410157,-1.59961 0.124995,-0.476554 0.275386,-0.9746 0.451171,-1.49414 0.175777,-0.519522 0.35937,-1.056631 0.550782,-1.611328 0.1914,-0.554677 0.38476,-1.124989 0.580078,-1.710938 0.195306,-0.585924 0.371087,-1.191393 0.527344,-1.816406 0.0078,-0.02342 0.01171,-0.05467 0.01172,-0.09375 -6e-6,-0.06249 -0.01954,-0.101548 -0.05859,-0.117188 -0.03907,-0.01561 -0.08985,-0.02342 -0.152344,-0.02344 -0.195319,1.4e-5 -0.357428,-0.02928 -0.486328,-0.08789 -0.128912,-0.05858 -0.230475,-0.134751 -0.304688,-0.228515 -0.07422,-0.09373 -0.126958,-0.201157 -0.158203,-0.322266 -0.03126,-0.121079 -0.04688,-0.248032 -0.04687,-0.380859 -5e-6,-0.343735 0.04101,-0.619125 0.123047,-0.826172 0.08203,-0.207015 0.187494,-0.367171 0.316406,-0.480469 0.128901,-0.113264 0.269525,-0.195296 0.421875,-0.246094 0.152338,-0.05076 0.300775,-0.09178 0.445313,-0.123047 0.144524,-0.03123 0.271477,-0.06444 0.380859,-0.09961 0.109368,-0.03514 0.187493,-0.09959 0.234375,-0.193359 0.07812,-0.164045 0.150383,-0.337873 0.216797,-0.521485 0.0664,-0.183575 0.150383,-0.353497 0.251953,-0.509765 0.101555,-0.156232 0.226555,-0.285138 0.375,-0.386719 0.148429,-0.101544 0.343742,-0.152325 0.585938,-0.152344 0.171866,1.9e-5 0.324209,0.04689 0.457031,0.140625 0.132803,0.09377 0.248037,0.210956 0.345703,0.351563 0.09765,0.140643 0.181631,0.291033 0.251953,0.451172 0.0703,0.160174 0.132803,0.306658 0.1875,0.439453 0.804677,0.02346 1.501942,0.07033 2.091797,0.140625 0.589831,0.07033 1.03319,0.132829 1.330078,0.1875 0.585924,0.109392 1.173814,0.273454 1.763672,0.492187 0.589828,0.218767 1.121078,0.50197 1.59375,0.84961 0.472639,0.347671 0.859357,0.757827 1.160156,1.230468 0.300763,0.472671 0.451154,1.013686 0.451172,1.623047 -1.8e-5,0.312513 -0.03517,0.636731 -0.105469,0.972656 l -0.08203,0.410157 c -0.06252,0.328136 -0.193377,0.632823 -0.392578,0.914062 -0.199236,0.281261 -0.423845,0.535167 -0.673828,0.761719 -0.695329,0.640634 -1.457047,1.177743 -2.285156,1.611328 -0.828139,0.433602 -1.69142,0.798836 -2.589844,1.095703 -0.898449,0.296882 -1.816417,0.546882 -2.753906,0.75 -0.937509,0.203132 -1.863289,0.394538 -2.777344,0.574219 l -0.328125,0.04687 c -0.179694,0.02344 -0.285162,0.08985 -0.316406,0.199219 -0.156256,0.539067 -0.279303,1.011723 -0.369141,1.417968 -0.08985,0.406254 -0.173834,0.794926 -0.251953,1.166016 -0.07813,0.371097 -0.156255,0.74219 -0.234375,1.113281 -0.07813,0.371096 -0.175786,0.783205 -0.292969,1.236328 -0.03907,0.148439 -0.10938,0.32422 -0.210937,0.527344 -0.101567,0.203125 -0.222661,0.394531 -0.363282,0.574219 -0.140629,0.179687 -0.302738,0.333984 -0.486328,0.462891 -0.183597,0.128905 -0.376956,0.193358 -0.580078,0.193359 -0.140628,-10e-7 -0.261722,-0.03906 -0.363281,-0.117188 -0.101565,-0.07813 -0.18555,-0.177735 -0.251953,-0.298828 -0.06641,-0.121094 -0.11719,-0.251953 -0.152344,-0.392578 -0.03516,-0.140625 -0.05274,-0.273437 -0.05273,-0.398437 -3e-6,-0.04687 -3e-6,-0.0918 0,-0.134766 -3e-6,-0.04297 0.0078,-0.08398 0.02344,-0.123047 z m 4.652344,-8.660156 c -0.01563,0.0547 -0.03712,0.123056 -0.06445,0.205078 -0.02735,0.08204 -0.05274,0.167978 -0.07617,0.257813 -0.02344,0.08985 -0.04298,0.171883 -0.05859,0.246093 -0.01563,0.07423 -0.02344,0.126962 -0.02344,0.158203 -7e-6,0.03907 0.0059,0.07227 0.01758,0.09961 0.01171,0.02735 0.0371,0.04102 0.07617,0.04102 0.02343,9e-6 0.09765,-0.0098 0.222656,-0.0293 0.124993,-0.01952 0.275383,-0.04491 0.451172,-0.07617 0.175773,-0.03124 0.365226,-0.0664 0.568359,-0.105469 0.203117,-0.03905 0.398429,-0.07812 0.585938,-0.117188 0.507803,-0.109366 1.050771,-0.248038 1.628906,-0.416015 0.578114,-0.16796 1.154285,-0.357413 1.728515,-0.56836 0.574207,-0.210927 1.123034,-0.43749 1.646485,-0.679687 0.523423,-0.242177 0.988266,-0.499989 1.394531,-0.773438 0.429672,-0.289051 0.773422,-0.578113 1.03125,-0.867187 0.257796,-0.28905 0.386702,-0.597644 0.386719,-0.925781 -1.7e-5,-0.1953 -0.02541,-0.369128 -0.07617,-0.521485 -0.0508,-0.15233 -0.107438,-0.291002 -0.169922,-0.416015 -0.234391,-0.382799 -0.527359,-0.68358 -0.878906,-0.902344 -0.351578,-0.218735 -0.73439,-0.382798 -1.148438,-0.492188 -0.414076,-0.109359 -0.847669,-0.179672 -1.300781,-0.210937 -0.453137,-0.03123 -0.898449,-0.04686 -1.335937,-0.04687 -0.117199,1.5e-5 -0.294934,0.0078 -0.533204,0.02344 -0.238292,0.01564 -0.488291,0.03517 -0.75,0.05859 -0.261728,0.02345 -0.503916,0.05275 -0.726562,0.08789 -0.222666,0.03517 -0.373056,0.07619 -0.451172,0.123047 -0.03907,0.02345 -0.07227,0.06252 -0.09961,0.117187 -0.02735,0.0547 -0.04884,0.101577 -0.06445,0.140625 -0.06251,0.156265 -0.148447,0.373061 -0.257813,0.650391 -0.109384,0.277357 -0.226571,0.587904 -0.351562,0.93164 -0.125009,0.343763 -0.255868,0.707044 -0.392579,1.089844 -0.136726,0.382824 -0.267585,0.755871 -0.392578,1.119141 -0.125007,0.363292 -0.240241,0.703135 -0.345703,1.019531 -0.105476,0.316416 -0.185554,0.576181 -0.240234,0.779297 z"
       id="path3151"
       inkscape:connector-curvature="0" />
    <path
       d="m 75.818729,61.166719 c 0.140622,-0.585931 0.343747,-1.18554 0.609375,-1.798828 0.265621,-0.613273 0.578121,-1.228507 0.9375,-1.845704 0.35937,-0.617177 0.75976,-1.224598 1.201172,-1.822265 0.4414,-0.597644 0.91015,-1.175769 1.40625,-1.734375 0.496086,-0.55858 1.007804,-1.085923 1.535156,-1.582031 0.527335,-0.496079 1.056631,-0.951157 1.587891,-1.365235 0.249989,-0.171859 0.480458,-0.28514 0.691406,-0.339844 0.210926,-0.05467 0.433582,-0.08201 0.667969,-0.08203 0.249988,1.7e-5 0.472644,0.03713 0.667968,0.111328 0.195301,0.07424 0.390613,0.209001 0.585938,0.404297 0.06249,0.07033 0.128893,0.132829 0.199219,0.1875 0.0703,0.0547 0.136705,0.08205 0.199218,0.08203 0.01561,1.6e-5 0.03514,-0.01756 0.05859,-0.05273 0.02342,-0.03514 0.04882,-0.07616 0.07617,-0.123047 0.02733,-0.04686 0.06053,-0.09569 0.09961,-0.146484 0.03905,-0.05076 0.08592,-0.08787 0.140625,-0.111328 0.132799,-0.06248 0.291002,-0.1035 0.47461,-0.123047 0.183579,-0.01951 0.369126,-0.02928 0.55664,-0.0293 0.351548,1.6e-5 0.691391,0.06447 1.019532,0.193359 0.328109,0.128923 0.617171,0.310563 0.867187,0.544922 0.593733,0.554703 1.044905,1.218765 1.353516,1.992188 0.308575,0.77345 0.462872,1.60548 0.46289,2.496093 -1.8e-5,0.796886 -0.117205,1.65626 -0.351562,2.578125 -0.203143,0.812508 -0.494158,1.60157 -0.873047,2.367188 -0.378923,0.76563 -0.824235,1.48438 -1.335938,2.15625 -0.511733,0.671878 -1.082045,1.285159 -1.710937,1.839844 -0.62892,0.554689 -1.298841,1.031251 -2.009766,1.429687 -0.710948,0.398438 -1.453135,0.708985 -2.226562,0.931641 -0.773447,0.222656 -1.558602,0.333984 -2.355469,0.333984 -0.742194,0 -1.408209,-0.113282 -1.998047,-0.339844 -0.589848,-0.226562 -1.089848,-0.546874 -1.5,-0.960937 -0.410159,-0.414061 -0.722659,-0.906248 -0.9375,-1.476563 -0.214846,-0.570309 -0.322268,-1.203121 -0.322265,-1.898437 -3e-6,-0.296871 0.01758,-0.595698 0.05273,-0.896484 0.03515,-0.300776 0.09179,-0.607417 0.169922,-0.919922 z m 1.980469,0.785156 c -0.08594,0.39063 -0.128911,0.742192 -0.128907,1.054687 -4e-6,0.437504 0.07617,0.822269 0.228516,1.154297 0.152339,0.332034 0.367182,0.609378 0.644531,0.832032 0.277338,0.222658 0.609369,0.390626 0.996094,0.503906 0.386712,0.113283 0.81054,0.169923 1.271484,0.169922 0.546867,10e-7 1.103507,-0.08594 1.669922,-0.257813 0.566396,-0.171873 1.11913,-0.421873 1.658203,-0.75 0.539051,-0.328122 1.058582,-0.722653 1.558594,-1.183594 0.499987,-0.460933 0.962877,-0.98437 1.388672,-1.570312 0.425767,-0.585932 0.804673,-1.22265 1.136719,-1.910156 0.332015,-0.687493 0.599593,-1.417961 0.802734,-2.191407 0.07811,-0.28124 0.13475,-0.574208 0.169922,-0.878906 0.03514,-0.304677 0.05272,-0.597645 0.05273,-0.878906 -1.6e-5,-0.453114 -0.0508,-0.886707 -0.152343,-1.300781 -0.101579,-0.41405 -0.269547,-0.781237 -0.503907,-1.101563 -0.23439,-0.320299 -0.542983,-0.576158 -0.925781,-0.767578 -0.382827,-0.191392 -0.851576,-0.287095 -1.40625,-0.287109 -0.07814,1.4e-5 -0.138685,0.03322 -0.181641,0.09961 -0.04298,0.06642 -0.0879,0.150405 -0.134765,0.251953 -0.03908,0.08595 -0.084,0.175795 -0.134766,0.269531 -0.05079,0.09376 -0.1172,0.177749 -0.199219,0.251954 -0.08204,0.07423 -0.183606,0.134779 -0.304687,0.18164 -0.121106,0.04689 -0.271496,0.07033 -0.451172,0.07031 -0.132824,1.3e-5 -0.250011,-0.02928 -0.351562,-0.08789 -0.101574,-0.05858 -0.203137,-0.138658 -0.304688,-0.240234 -0.04689,-0.04686 -0.08595,-0.08397 -0.117187,-0.111328 -0.03126,-0.02733 -0.06642,-0.041 -0.105469,-0.04102 -0.07032,1.4e-5 -0.16212,0.03126 -0.275391,0.09375 -0.113292,0.06251 -0.230479,0.136732 -0.351562,0.222656 -0.121104,0.08595 -0.238292,0.175795 -0.351563,0.269531 -0.113291,0.09376 -0.201181,0.175795 -0.263672,0.246094 -0.531259,0.546888 -1.060555,1.14259 -1.58789,1.78711 -0.527352,0.644541 -1.013679,1.310556 -1.458985,1.998046 -0.445318,0.687509 -0.83399,1.380868 -1.166015,2.080079 -0.332037,0.699225 -0.572271,1.373052 -0.720703,2.021484 z"
       id="path3153"
       inkscape:connector-curvature="0" />
    <path
       d="m 93.033573,65.655 c 0.445309,-1.789059 0.906246,-3.556636 1.382812,-5.302734 0.476558,-1.746086 0.937495,-3.513662 1.382813,-5.302735 0.05469,-0.234363 0.109366,-0.457019 0.164066,-0.667969 0.0547,-0.210924 0.10546,-0.421861 0.15234,-0.632812 0.0469,-0.210924 0.084,-0.423814 0.11133,-0.638672 0.0273,-0.21483 0.041,-0.439439 0.041,-0.673828 0,-0.179673 -0.0117,-0.343735 -0.0352,-0.492188 -0.0234,-0.148422 -0.0352,-0.31639 -0.0352,-0.503906 0,-0.179671 0.0234,-0.371078 0.0703,-0.574219 0.11718,-0.476545 0.2832,-0.832014 0.49805,-1.066406 0.21484,-0.234357 0.54101,-0.351545 0.97852,-0.351562 0.17968,1.7e-5 0.3535,0.0176 0.52148,0.05273 0.16796,0.03517 0.33398,0.07619 0.49805,0.123047 0.17968,0.05471 0.36522,0.10158 0.55664,0.140625 0.19139,0.03908 0.38475,0.05861 0.58008,0.05859 0.156236,1.7e-5 0.308576,-0.0078 0.457026,-0.02344 0.14842,-0.01561 0.31835,-0.03123 0.50976,-0.04687 0.1914,-0.01561 0.41796,-0.03123 0.67969,-0.04687 0.26171,-0.01561 0.59179,-0.02342 0.99023,-0.02344 0.21874,1.7e-5 0.47655,0.0078 0.77344,0.02344 0.29686,0.01564 0.60546,0.0508 0.92578,0.105469 0.3203,0.05471 0.64452,0.134783 0.97266,0.240234 0.32811,0.105486 0.63475,0.248064 0.91992,0.427735 0.28514,0.179704 0.53709,0.400407 0.75586,0.662109 0.21873,0.261734 0.3828,0.576187 0.49219,0.943359 0.0547,0.179703 0.0918,0.343765 0.11133,0.492188 0.0195,0.148452 0.0293,0.292983 0.0293,0.433594 -1e-5,0.476576 -0.12111,0.945325 -0.36328,1.40625 -0.27345,0.523449 -0.64259,1.013683 -1.10742,1.470703 -0.46486,0.457042 -1.00587,0.888682 -1.62305,1.294922 -0.2422,0.164072 -0.52345,0.333994 -0.84375,0.509765 -0.32032,0.175791 -0.63477,0.343759 -0.94336,0.503907 -0.3086,0.160165 -0.58595,0.306649 -0.83203,0.439453 -0.2461,0.13282 -0.41602,0.234383 -0.50976,0.304687 0.27342,0.132821 0.54686,0.271492 0.82031,0.416016 0.27343,0.144539 0.55272,0.318367 0.83789,0.521484 0.28514,0.203132 0.57421,0.449226 0.86719,0.738281 0.29295,0.289069 0.59764,0.642584 0.91406,1.060547 0.31639,0.417974 0.64452,0.912114 0.98438,1.482422 0.33982,0.570316 0.69334,1.24219 1.06054,2.015625 0.0937,0.187502 0.14061,0.38672 0.14063,0.597656 -2e-5,0.164064 -0.0332,0.328126 -0.0996,0.492188 -0.0664,0.164063 -0.15627,0.3125 -0.26953,0.445312 -0.1133,0.132813 -0.24807,0.240235 -0.4043,0.322266 -0.15627,0.08203 -0.32423,0.123047 -0.50391,0.123047 -0.27345,0 -0.50001,-0.101563 -0.67968,-0.304688 -0.17971,-0.203124 -0.35158,-0.468749 -0.51563,-0.796875 -0.16408,-0.328123 -0.334,-0.699217 -0.50976,-1.113281 -0.1758,-0.41406 -0.3926,-0.832028 -0.6504,-1.253906 -0.28126,-0.453121 -0.5918,-0.882808 -0.93164,-1.289063 -0.33985,-0.406244 -0.70118,-0.757807 -1.08398,-1.054687 -0.38282,-0.296869 -0.77735,-0.533197 -1.18359,-0.708984 -0.406256,-0.175775 -0.812506,-0.263666 -1.218746,-0.263672 l -0.17579,0 c -0.24219,6e-6 -0.45899,0.02149 -0.65039,0.06445 -0.19141,0.04298 -0.37696,0.08009 -0.55664,0.111328 -0.24219,-0.08593 -0.41797,-0.226556 -0.52734,-0.421875 -0.10938,-0.195305 -0.16407,-0.414055 -0.16406,-0.65625 l 0,-0.164063 -0.9375,3.691407 c -0.0313,0.117191 -0.07423,0.277347 -0.128909,0.480468 -0.05469,0.203129 -0.117193,0.425785 -0.1875,0.667969 -0.07032,0.24219 -0.142583,0.496096 -0.216797,0.761719 -0.07422,0.265627 -0.144536,0.515627 -0.210937,0.75 -0.06641,0.234376 -0.125005,0.445313 -0.175782,0.632812 -0.05079,0.187501 -0.08789,0.328126 -0.111328,0.421875 -0.109379,0.195313 -0.248051,0.34961 -0.416015,0.462891 -0.167973,0.113281 -0.349614,0.169922 -0.544922,0.169922 -0.343754,0 -0.582035,-0.103516 -0.714844,-0.310547 -0.132815,-0.207031 -0.199221,-0.447265 -0.199219,-0.720703 -2e-6,-0.109374 0.0078,-0.220702 0.02344,-0.333984 0.01562,-0.11328 0.03515,-0.220702 0.05859,-0.322266 z m 5.753901,-13.21875 c -0.0469,0.156264 -0.11524,0.382827 -0.20507,0.679687 -0.0899,0.296889 -0.18946,0.632826 -0.29883,1.007813 -0.10938,0.375013 -0.22657,0.777356 -0.35156,1.207031 -0.12501,0.429699 -0.25001,0.861339 -0.375,1.294922 -0.12501,0.433604 -0.2461,0.853525 -0.36329,1.259766 -0.11719,0.406258 -0.22266,0.769539 -0.3164,1.089843 0.15624,-0.203116 0.39062,-0.384757 0.70312,-0.544921 0.3125,-0.160148 0.66406,-0.310538 1.05469,-0.451172 0.30468,-0.109366 0.67968,-0.263663 1.125,-0.462891 0.445296,-0.199209 0.912096,-0.427724 1.400386,-0.685547 0.48827,-0.257802 0.97655,-0.537098 1.46485,-0.83789 0.48826,-0.30077 0.92576,-0.609364 1.3125,-0.925782 0.3867,-0.316394 0.70115,-0.6328 0.94335,-0.949218 0.24218,-0.316393 0.36327,-0.623034 0.36329,-0.919922 -2e-5,-0.289049 -0.10158,-0.517564 -0.30469,-0.685547 -0.20314,-0.167954 -0.45705,-0.294907 -0.76172,-0.38086 -0.3047,-0.08592 -0.63869,-0.142563 -1.00195,-0.169921 -0.3633,-0.02733 -0.70119,-0.041 -1.01368,-0.04102 -0.56251,1.5e-5 -1.12501,0.03517 -1.6875,0.105469 -0.562496,0.07033 -1.124996,0.207046 -1.687496,0.410156 z"
       id="path3155"
       inkscape:connector-curvature="0" />
    <path
       d="m 114.52576,65.244844 c 0.29686,-1.296872 0.63085,-2.605465 1.00195,-3.925782 0.37108,-1.320305 0.73241,-2.628897 1.08398,-3.925781 0.14843,-0.539052 0.27929,-1.029286 0.39258,-1.470703 0.11327,-0.441395 0.20898,-0.841785 0.28711,-1.201172 0.0781,-0.359362 0.13671,-0.685534 0.17578,-0.978515 0.0391,-0.292956 0.0586,-0.56444 0.0586,-0.814454 -1e-5,-0.04686 -1e-5,-0.0996 0,-0.158203 -1e-5,-0.05858 -0.004,-0.130845 -0.0117,-0.216797 -0.0781,1.5e-5 -0.25197,0.04298 -0.52149,0.128907 -0.26954,0.08595 -0.58594,0.199233 -0.94922,0.339843 -0.36329,0.140639 -0.7461,0.298842 -1.14843,0.47461 -0.40235,0.175794 -0.7754,0.353529 -1.11914,0.533203 -0.27345,0.140638 -0.50196,0.257825 -0.68555,0.351562 -0.1836,0.09376 -0.3418,0.166029 -0.47461,0.216797 -0.13282,0.05079 -0.25391,0.08595 -0.36328,0.105469 -0.10938,0.01954 -0.22266,0.02931 -0.33985,0.0293 -0.24219,1.2e-5 -0.45117,-0.09374 -0.62695,-0.28125 -0.17578,-0.187487 -0.26367,-0.429675 -0.26367,-0.726563 0,-0.171861 0.0176,-0.322252 0.0527,-0.451171 0.0352,-0.128893 0.0898,-0.244127 0.16407,-0.345704 0.0742,-0.101548 0.17382,-0.197251 0.29882,-0.287109 0.125,-0.08983 0.27734,-0.181626 0.45704,-0.275391 1.97655,-1.031234 3.97655,-1.787092 6,-2.267578 2.02342,-0.480451 4.05467,-0.720685 6.09375,-0.720703 0.16404,1.8e-5 0.35935,0.0039 0.58593,0.01172 0.22655,0.0078 0.45897,0.0215 0.69727,0.04102 0.23826,0.01955 0.47068,0.04689 0.69726,0.08203 0.22655,0.03517 0.42577,0.07619 0.59766,0.123047 0.17967,0.05471 0.33592,0.167986 0.46875,0.339843 0.13279,0.171892 0.1992,0.355486 0.19922,0.550782 -2e-5,0.156266 -0.0137,0.30861 -0.041,0.457031 -0.0274,0.148453 -0.0762,0.27736 -0.14648,0.386719 -0.0703,0.10939 -0.16213,0.197281 -0.27539,0.263672 -0.1133,0.06642 -0.25197,0.09962 -0.41602,0.09961 -0.28127,-0.03123 -0.60353,-0.0703 -0.96679,-0.117188 -0.3633,-0.04686 -0.72854,-0.0703 -1.09571,-0.07031 -0.73439,1.5e-5 -1.46681,0.01759 -2.19726,0.05273 -0.73049,0.03517 -1.47853,0.138688 -2.24414,0.310547 -0.0391,0.01564 -0.0645,0.05666 -0.0762,0.123047 -0.0117,0.06642 -0.0215,0.150406 -0.0293,0.251953 -0.0235,0.42189 -0.0586,0.792983 -0.10547,1.113281 -0.0469,0.320326 -0.11134,0.640638 -0.19336,0.960938 -0.082,0.320325 -0.18165,0.666028 -0.29883,1.037109 -0.1172,0.371105 -0.25392,0.816417 -0.41015,1.335938 -0.15627,0.519541 -0.33791,1.140634 -0.54493,1.863281 -0.20704,0.722664 -0.43555,1.59571 -0.68554,2.619141 l -0.5625,2.273437 c -0.13283,0.523441 -0.23634,0.994143 -0.31055,1.41211 -0.0742,0.41797 -0.13868,0.830079 -0.19336,1.236328 -0.0313,0.132813 -0.1504,0.257813 -0.35742,0.375 -0.20704,0.117188 -0.45118,0.175781 -0.73242,0.175781 -0.16407,0 -0.31251,-0.04492 -0.44532,-0.134766 -0.13282,-0.08984 -0.24219,-0.205077 -0.32812,-0.345703 -0.0859,-0.140624 -0.14454,-0.294921 -0.17578,-0.46289 -0.0313,-0.167968 -0.0235,-0.333983 0.0234,-0.498047 z"
       id="path3157"
       inkscape:connector-curvature="0" />
    <path
       d="m 126.10388,61.494844 c 0.17187,-0.789056 0.35742,-1.494134 0.55664,-2.115235 0.19922,-0.621085 0.39648,-1.19921 0.5918,-1.734375 0.19531,-0.535146 0.38085,-1.046864 0.55664,-1.535156 0.17577,-0.48827 0.33007,-0.994129 0.46289,-1.517578 l 0.14062,-0.5625 c 0.0312,-0.140612 0.0586,-0.316393 0.082,-0.527344 0.0234,-0.210924 0.0488,-0.431626 0.0762,-0.662109 0.0273,-0.230454 0.0644,-0.45897 0.11133,-0.685547 0.0469,-0.226547 0.11522,-0.429672 0.20507,-0.609375 0.0898,-0.179672 0.20508,-0.326156 0.34571,-0.439453 0.14062,-0.113265 0.3203,-0.169906 0.53906,-0.169922 0.24218,1.6e-5 0.44726,0.04299 0.61523,0.128906 0.16796,0.08595 0.30273,0.199235 0.4043,0.339844 0.10155,0.14064 0.17577,0.30275 0.22266,0.486328 0.0469,0.183609 0.0703,0.373062 0.0703,0.568359 -1e-5,0.164077 -0.01,0.32814 -0.0293,0.492188 -0.0195,0.164076 -0.0488,0.31642 -0.0879,0.457031 -0.0859,0.351576 -0.22657,0.761732 -0.42187,1.230469 -0.19532,0.468762 -0.41017,0.98634 -0.64453,1.552734 -0.23439,0.566417 -0.47267,1.179698 -0.71485,1.839844 -0.24219,0.660165 -0.45704,1.35743 -0.64453,2.091797 -0.10938,0.414069 -0.20508,0.867194 -0.28711,1.359375 -0.082,0.492193 -0.12305,0.937505 -0.12305,1.335937 0,0.320317 0.0273,0.623051 0.082,0.908204 0.0547,0.285159 0.15233,0.535159 0.29296,0.75 0.14062,0.214846 0.33008,0.384767 0.56836,0.509765 0.23828,0.125002 0.54101,0.187502 0.90821,0.1875 0.28124,2e-6 0.57225,-0.02343 0.87304,-0.07031 0.30078,-0.04687 0.6582,-0.160154 1.07227,-0.339844 0.60936,-0.273435 1.18554,-0.62695 1.72852,-1.060547 0.54295,-0.43359 1.04686,-0.92773 1.51171,-1.482422 0.46483,-0.554682 0.89452,-1.152338 1.28907,-1.792969 0.39451,-0.640617 0.75193,-1.304679 1.07226,-1.992187 0.3203,-0.687491 0.6035,-1.382803 0.84961,-2.085938 0.24608,-0.703113 0.45506,-1.394519 0.62695,-2.074218 0.0703,-0.28905 0.12499,-0.560534 0.16407,-0.814453 0.039,-0.253893 0.0683,-0.513658 0.0879,-0.779297 0.0195,-0.265611 0.0351,-0.550767 0.0469,-0.855469 0.0117,-0.304672 0.0332,-0.652328 0.0645,-1.042969 0.0234,-0.312483 0.11131,-0.583967 0.26367,-0.814453 0.15232,-0.230451 0.38475,-0.345686 0.69726,-0.345703 0.1953,1.7e-5 0.36522,0.07814 0.50977,0.234375 0.14451,0.156267 0.26365,0.349626 0.35742,0.580078 0.0937,0.230485 0.16404,0.474626 0.21094,0.732422 0.0469,0.257828 0.0703,0.488297 0.0703,0.691406 -2e-5,0.39064 -0.0391,0.812515 -0.11719,1.265625 -0.0781,0.453139 -0.17189,0.886732 -0.28125,1.300781 -0.22658,0.89845 -0.49806,1.800793 -0.81445,2.707032 -0.31642,0.906259 -0.69338,1.792977 -1.13086,2.660156 -0.43752,0.867194 -0.94728,1.70899 -1.5293,2.525391 -0.58204,0.81641 -1.25196,1.580081 -2.00976,2.291015 -0.37501,0.351565 -0.78126,0.697268 -1.21875,1.03711 -0.43751,0.339844 -0.89454,0.646485 -1.3711,0.919921 -0.47657,0.273438 -0.96485,0.494141 -1.46484,0.66211 -0.50001,0.167968 -0.9961,0.251953 -1.48828,0.251953 -0.71094,0 -1.32813,-0.09961 -1.85156,-0.298828 -0.52345,-0.199219 -0.95899,-0.478515 -1.30664,-0.837891 -0.34766,-0.359374 -0.60743,-0.787108 -0.7793,-1.283203 -0.17188,-0.496091 -0.25782,-1.041013 -0.25781,-1.634766 -10e-6,-0.281246 0.0234,-0.591792 0.0703,-0.93164 0.0469,-0.339839 0.10546,-0.673823 0.17578,-1.001953 z"
       id="path3159"
       inkscape:connector-curvature="0" />
    <path
       d="m 145.41638,52.951875 c 0.0469,-0.203111 0.10546,-0.419907 0.17578,-0.650391 0.0703,-0.230453 0.16406,-0.441391 0.28125,-0.632812 0.11718,-0.191391 0.26953,-0.351547 0.45703,-0.480469 0.1875,-0.12889 0.42578,-0.193343 0.71485,-0.193359 0.27343,1.6e-5 0.51757,0.07619 0.73242,0.228515 0.21483,0.15236 0.40819,0.306656 0.58008,0.462891 0.20311,0.132828 0.39843,0.402359 0.58593,0.808594 0.18749,0.406264 0.38085,0.906263 0.58008,1.5 0.19921,0.593762 0.41405,1.265637 0.64453,2.015625 0.23046,0.75001 0.48437,1.535165 0.76172,2.355468 0.27733,0.820321 0.58788,1.658211 0.93164,2.513672 0.34374,0.855474 0.73437,1.689458 1.17188,2.501953 0.0703,0.125004 0.15233,0.271488 0.24609,0.439454 0.0937,0.167971 0.18944,0.326174 0.28711,0.474609 0.0976,0.14844 0.18749,0.27344 0.26953,0.375 0.082,0.101565 0.14257,0.152346 0.18164,0.152344 0.0234,2e-6 0.0508,-0.05859 0.082,-0.175782 0.0312,-0.117185 0.0664,-0.257809 0.10547,-0.421875 0.0391,-0.164059 0.0801,-0.332028 0.12305,-0.503906 0.0429,-0.171871 0.084,-0.312496 0.12305,-0.421875 0.14842,-0.359371 0.31053,-0.77148 0.48633,-1.236328 0.17576,-0.464838 0.37107,-1.027338 0.58593,-1.6875 0.21483,-0.660149 0.45116,-1.443351 0.70899,-2.349609 0.25779,-0.90624 0.54295,-1.980458 0.85547,-3.222657 0.0781,-0.304674 0.16209,-0.650377 0.25195,-1.037109 0.0898,-0.386705 0.17576,-0.781236 0.25781,-1.183594 0.082,-0.402329 0.15428,-0.794906 0.2168,-1.177734 0.0625,-0.382797 0.10545,-0.714827 0.1289,-0.996094 -1e-5,-0.04686 0.004,-0.128889 0.0117,-0.246094 0.008,-0.11717 0.0215,-0.249982 0.041,-0.398437 0.0195,-0.14842 0.0449,-0.302717 0.0762,-0.462891 0.0312,-0.160138 0.0722,-0.306622 0.12305,-0.439453 0.0508,-0.132794 0.11521,-0.242169 0.19336,-0.328125 0.0781,-0.08592 0.17185,-0.128887 0.28125,-0.128906 0.10935,1.9e-5 0.24412,0.01564 0.40429,0.04687 0.16014,0.03127 0.30662,0.07814 0.43946,0.140625 0.14841,0.203143 0.28318,0.447284 0.40429,0.732422 0.12108,0.285174 0.18162,0.669939 0.18164,1.154297 -2e-5,0.304703 -0.0313,0.669937 -0.0937,1.095703 -0.0625,0.425796 -0.14259,0.882827 -0.24023,1.371094 -0.0977,0.488294 -0.20705,0.990247 -0.32812,1.505859 -0.12112,0.515637 -0.24417,1.009777 -0.36915,1.482422 -0.12501,0.472667 -0.24416,0.90626 -0.35742,1.300781 -0.1133,0.394541 -0.209,0.720712 -0.28711,0.978516 -0.14064,0.453133 -0.28712,0.91993 -0.43945,1.40039 -0.15236,0.480476 -0.32033,0.984382 -0.50391,1.511719 -0.18361,0.527349 -0.38283,1.085942 -0.59765,1.675781 -0.21486,0.589848 -0.4551,1.220706 -0.72071,1.892578 -0.1172,0.30469 -0.25196,0.609377 -0.40429,0.914063 -0.15236,0.304689 -0.32619,0.580079 -0.52149,0.826172 -0.19532,0.246094 -0.41603,0.445313 -0.66211,0.597656 -0.2461,0.152344 -0.5215,0.228516 -0.82617,0.228516 -0.1797,0 -0.36525,-0.02539 -0.55664,-0.07617 -0.19142,-0.05078 -0.35353,-0.154297 -0.48633,-0.310547 -0.64063,-0.742187 -1.21095,-1.583983 -1.71093,-2.525391 -0.50002,-0.941402 -0.94728,-1.925776 -1.3418,-2.953125 -0.39454,-1.027337 -0.74415,-2.066398 -1.04883,-3.117187 -0.3047,-1.050772 -0.58204,-2.05663 -0.83203,-3.017578 l -0.0703,-0.269532 c -0.0313,-0.109362 -0.0606,-0.22069 -0.0879,-0.333984 -0.0274,-0.113269 -0.0547,-0.216784 -0.082,-0.310547 -0.0274,-0.09374 -0.0586,-0.169909 -0.0937,-0.228515 -0.0352,-0.05858 -0.0762,-0.08788 -0.12305,-0.08789 -0.0469,1.3e-5 -0.10548,0.08595 -0.17578,0.257812 -0.0703,0.171888 -0.14064,0.365247 -0.21094,0.580079 -0.0703,0.214855 -0.13477,0.423839 -0.19336,0.626953 -0.0586,0.203136 -0.0957,0.332042 -0.11133,0.386718 -0.0547,0.203136 -0.13672,0.494152 -0.24609,0.873047 -0.10938,0.378917 -0.23243,0.80665 -0.36914,1.283203 -0.13673,0.476572 -0.28516,0.980477 -0.44531,1.511719 -0.16017,0.531257 -0.31446,1.044929 -0.4629,1.541016 -0.14844,0.496099 -0.28906,0.955083 -0.42187,1.376953 -0.13282,0.421879 -0.24219,0.761723 -0.32813,1.019531 -0.0703,0.203129 -0.15625,0.464847 -0.25781,0.785156 -0.10156,0.320315 -0.20313,0.642581 -0.30469,0.966797 -0.10156,0.324221 -0.19531,0.619142 -0.28125,0.884766 -0.0859,0.265626 -0.14062,0.441407 -0.16406,0.527344 -0.0937,0.296875 -0.23242,0.521484 -0.41601,0.673828 -0.1836,0.152343 -0.36915,0.228515 -0.55664,0.228515 -0.11719,0 -0.23438,-0.04102 -0.35157,-0.123046 -0.11719,-0.08203 -0.2207,-0.181641 -0.31054,-0.298829 -0.0898,-0.117187 -0.16407,-0.24414 -0.22266,-0.380859 -0.0586,-0.136718 -0.0879,-0.259765 -0.0879,-0.369141 0,-0.0625 0.0195,-0.162108 0.0586,-0.298828 0.0391,-0.136717 0.10156,-0.369139 0.1875,-0.697265 l 0.30469,-1.207032 z"
       id="path3161"
       inkscape:connector-curvature="0" />
    <path
       d="m 162.23279,60.405 c 0.0703,-0.304681 0.15429,-0.642571 0.25195,-1.013672 0.0977,-0.371086 0.20312,-0.755851 0.31641,-1.154297 0.11327,-0.398428 0.22851,-0.800771 0.3457,-1.207031 0.11718,-0.40624 0.23242,-0.796864 0.3457,-1.171875 0.11328,-0.374988 0.21679,-0.724597 0.31055,-1.048828 0.0937,-0.324206 0.17578,-0.599597 0.24609,-0.826172 0.14844,-0.507799 0.28906,-1.017564 0.42188,-1.529297 0.1328,-0.511704 0.26171,-1.048812 0.38672,-1.611328 0.15624,-0.304671 0.36718,-0.521468 0.63281,-0.650391 0.26562,-0.128889 0.55468,-0.193342 0.86719,-0.193359 0.24999,0.132829 0.44725,0.31447 0.59179,0.544922 0.14453,0.230485 0.21679,0.49025 0.2168,0.779297 -1e-5,0.20314 -0.0332,0.435562 -0.0996,0.697265 -0.0664,0.261734 -0.1504,0.542984 -0.25195,0.84375 -0.10157,0.300795 -0.21485,0.617201 -0.33985,0.949219 -0.125,0.332044 -0.2461,0.673841 -0.36328,1.025391 -0.21875,0.640636 -0.4375,1.281261 -0.65625,1.921875 -0.21875,0.640634 -0.4336,1.316415 -0.64453,2.027343 -0.0547,0.187509 -0.11329,0.375008 -0.17578,0.5625 -0.0625,0.187508 -0.12696,0.390633 -0.19336,0.609375 -0.0664,0.218757 -0.13868,0.462898 -0.2168,0.732422 -0.0781,0.269538 -0.15625,0.580084 -0.23437,0.931641 -0.0938,0.414067 -0.17579,0.830083 -0.24609,1.248047 -0.0703,0.417972 -0.13673,0.837894 -0.19922,1.259765 -0.0625,0.421878 -0.13282,0.847659 -0.21094,1.277344 -0.0781,0.429689 -0.17188,0.863282 -0.28125,1.300781 -0.0391,0.156251 -0.10743,0.294922 -0.20508,0.416016 -0.0977,0.121094 -0.20899,0.224609 -0.33398,0.310547 -0.12501,0.08594 -0.25782,0.152343 -0.39844,0.199219 -0.14063,0.04687 -0.27344,0.07031 -0.39844,0.07031 -0.125,0 -0.24414,-0.0098 -0.35742,-0.0293 -0.11328,-0.01953 -0.20117,-0.06445 -0.26367,-0.134765 -0.0937,-0.101563 -0.16797,-0.214844 -0.22266,-0.339844 -0.0547,-0.125 -0.082,-0.257812 -0.082,-0.398438 0,-0.03906 0.002,-0.07617 0.006,-0.111328 0.004,-0.03516 0.01,-0.07227 0.0176,-0.111328 z"
       id="path3163"
       inkscape:connector-curvature="0" />
    <path
       d="m 172.79138,65.244844 c 0.29687,-1.296872 0.63085,-2.605465 1.00195,-3.925782 0.37109,-1.320305 0.73242,-2.628897 1.08399,-3.925781 0.14843,-0.539052 0.27929,-1.029286 0.39258,-1.470703 0.11327,-0.441395 0.20897,-0.841785 0.28711,-1.201172 0.0781,-0.359362 0.1367,-0.685534 0.17578,-0.978515 0.0391,-0.292956 0.0586,-0.56444 0.0586,-0.814454 -1e-5,-0.04686 -1e-5,-0.0996 0,-0.158203 -1e-5,-0.05858 -0.004,-0.130845 -0.0117,-0.216797 -0.0781,1.5e-5 -0.25196,0.04298 -0.52148,0.128907 -0.26954,0.08595 -0.58595,0.199233 -0.94922,0.339843 -0.36329,0.140639 -0.7461,0.298842 -1.14844,0.47461 -0.40235,0.175794 -0.7754,0.353529 -1.11914,0.533203 -0.27344,0.140638 -0.50196,0.257825 -0.68555,0.351562 -0.1836,0.09376 -0.3418,0.166029 -0.47461,0.216797 -0.13281,0.05079 -0.25391,0.08595 -0.36328,0.105469 -0.10938,0.01954 -0.22266,0.02931 -0.33984,0.0293 -0.24219,1.2e-5 -0.45118,-0.09374 -0.62695,-0.28125 -0.17579,-0.187487 -0.26368,-0.429675 -0.26368,-0.726563 0,-0.171861 0.0176,-0.322252 0.0527,-0.451171 0.0352,-0.128893 0.0898,-0.244127 0.16406,-0.345704 0.0742,-0.101548 0.17383,-0.197251 0.29883,-0.287109 0.125,-0.08983 0.27734,-0.181626 0.45703,-0.275391 1.97656,-1.031234 3.97655,-1.787092 6,-2.267578 2.02343,-0.480451 4.05467,-0.720685 6.09375,-0.720703 0.16405,1.8e-5 0.35936,0.0039 0.58594,0.01172 0.22654,0.0078 0.45896,0.0215 0.69726,0.04102 0.23827,0.01955 0.47069,0.04689 0.69727,0.08203 0.22654,0.03517 0.42576,0.07619 0.59766,0.123047 0.17966,0.05471 0.33591,0.167986 0.46875,0.339843 0.13279,0.171892 0.19919,0.355486 0.19921,0.550782 -2e-5,0.156266 -0.0137,0.30861 -0.041,0.457031 -0.0274,0.148453 -0.0762,0.27736 -0.14649,0.386719 -0.0703,0.10939 -0.16212,0.197281 -0.27539,0.263672 -0.1133,0.06642 -0.25197,0.09962 -0.41601,0.09961 -0.28127,-0.03123 -0.60354,-0.0703 -0.9668,-0.117188 -0.3633,-0.04686 -0.72853,-0.0703 -1.0957,-0.07031 -0.73439,1.5e-5 -1.46681,0.01759 -2.19727,0.05273 -0.73048,0.03517 -1.47853,0.138688 -2.24414,0.310547 -0.0391,0.01564 -0.0645,0.05666 -0.0762,0.123047 -0.0117,0.06642 -0.0215,0.150406 -0.0293,0.251953 -0.0234,0.42189 -0.0586,0.792983 -0.10547,1.113281 -0.0469,0.320326 -0.11134,0.640638 -0.19335,0.960938 -0.0821,0.320325 -0.18166,0.666028 -0.29883,1.037109 -0.1172,0.371105 -0.25392,0.816417 -0.41016,1.335938 -0.15626,0.519541 -0.3379,1.140634 -0.54492,1.863281 -0.20704,0.722664 -0.43556,1.59571 -0.68555,2.619141 l -0.5625,2.273437 c -0.13282,0.523441 -0.23634,0.994143 -0.31054,1.41211 -0.0742,0.41797 -0.13869,0.830079 -0.19336,1.236328 -0.0313,0.132813 -0.1504,0.257813 -0.35743,0.375 -0.20704,0.117188 -0.45118,0.175781 -0.73242,0.175781 -0.16407,0 -0.31251,-0.04492 -0.44531,-0.134766 -0.13282,-0.08984 -0.2422,-0.205077 -0.32813,-0.345703 -0.0859,-0.140624 -0.14453,-0.294921 -0.17578,-0.46289 -0.0312,-0.167968 -0.0234,-0.333983 0.0234,-0.498047 z"
       id="path3165"
       inkscape:connector-curvature="0" />
    <path
       d="m 184.01794,68.924531 c 0,-0.187501 0.0488,-0.376954 0.14649,-0.568359 0.0977,-0.191408 0.23046,-0.390626 0.39844,-0.597656 0.16796,-0.207032 0.36327,-0.423829 0.58593,-0.650391 0.22265,-0.226562 0.45508,-0.464843 0.69727,-0.714844 0.46093,-0.468749 0.9453,-0.957029 1.45312,-1.464844 0.50781,-0.507809 0.99218,-1.031246 1.45313,-1.570312 0.1953,-0.234371 0.35155,-0.425777 0.46875,-0.574219 0.11718,-0.148433 0.20507,-0.27148 0.26367,-0.36914 0.0586,-0.09765 0.0977,-0.181636 0.11719,-0.251954 0.0195,-0.07031 0.0332,-0.14062 0.041,-0.210937 -0.32813,-0.42187 -0.61915,-0.8789 -0.87304,-1.371094 -0.25392,-0.49218 -0.48048,-1.005852 -0.67969,-1.541015 -0.19923,-0.535148 -0.37891,-1.076163 -0.53906,-1.623047 -0.16017,-0.546865 -0.31056,-1.082021 -0.45118,-1.605469 -0.13281,-0.476551 -0.25977,-0.957019 -0.38085,-1.441406 -0.1211,-0.484362 -0.27931,-0.90233 -0.47461,-1.253907 -0.14845,-0.26561 -0.2754,-0.541001 -0.38086,-0.826171 -0.10548,-0.285142 -0.15821,-0.599594 -0.15821,-0.94336 0,-0.148421 0.0176,-0.322249 0.0527,-0.521484 0.0352,-0.199202 0.0977,-0.384749 0.1875,-0.556641 0.0898,-0.171858 0.20702,-0.318342 0.35156,-0.439453 0.14453,-0.121076 0.32226,-0.181623 0.5332,-0.181641 0.22656,1.8e-5 0.4375,0.07814 0.63282,0.234375 0.1953,0.156267 0.37108,0.353533 0.52734,0.591797 0.15624,0.238298 0.28905,0.49611 0.39844,0.773438 0.10936,0.277359 0.1953,0.533218 0.25781,0.767578 0.0781,0.335952 0.17382,0.75392 0.28711,1.253906 0.11327,0.500013 0.22655,1.011732 0.33984,1.535156 0.11328,0.52345 0.2246,1.019543 0.33399,1.488282 0.10936,0.46876 0.20702,0.84376 0.29297,1.125 0.10155,0.351571 0.21092,0.681649 0.32812,0.990234 0.11718,0.308602 0.23437,0.574227 0.35156,0.796875 0.11718,0.222664 0.23242,0.398445 0.34571,0.527344 0.11327,0.128913 0.22069,0.193366 0.32226,0.193359 0.0781,7e-6 0.19921,-0.105461 0.36328,-0.316406 0.64062,-0.851554 1.30663,-1.763663 1.99805,-2.736328 0.69139,-0.972645 1.36522,-1.935535 2.02148,-2.888672 0.24218,-0.351549 0.45702,-0.675768 0.64454,-0.972656 0.18748,-0.296861 0.3574,-0.580064 0.50976,-0.84961 0.15233,-0.269516 0.291,-0.531234 0.41602,-0.785156 0.12498,-0.25389 0.24217,-0.509749 0.35156,-0.767578 l 0.30469,-1.230469 c 0.0312,-0.124982 0.084,-0.251935 0.1582,-0.380859 0.0742,-0.128888 0.16014,-0.246076 0.25781,-0.351563 0.0976,-0.10545 0.21092,-0.191387 0.33985,-0.257812 0.12888,-0.06639 0.27146,-0.09959 0.42773,-0.09961 0.20311,1.9e-5 0.37889,0.04104 0.52734,0.123047 0.14842,0.08205 0.26952,0.189472 0.36329,0.322266 0.0937,0.132831 0.16404,0.287127 0.21093,0.462891 0.0469,0.175799 0.0703,0.357439 0.0703,0.544921 -2e-5,0.210955 -0.041,0.453142 -0.12305,0.726563 -0.082,0.273454 -0.18947,0.554703 -0.32227,0.84375 -0.13283,0.289078 -0.28127,0.574234 -0.44531,0.855469 -0.16408,0.281264 -0.32424,0.53517 -0.48047,0.761718 -1.1172,1.593763 -2.25197,3.208996 -3.40429,4.845704 -1.15236,1.636726 -2.32228,3.205084 -3.50977,4.705078 -1.0547,1.33594 -2.0879,2.57422 -3.09961,3.714843 -1.01173,1.140625 -1.93555,2.136718 -2.77148,2.988282 -0.1797,0.179685 -0.38282,0.347653 -0.60938,0.503906 -0.22657,0.156247 -0.46485,0.234372 -0.71484,0.234375 -0.13282,-3e-6 -0.24415,-0.0293 -0.33399,-0.08789 -0.0898,-0.0586 -0.16211,-0.134768 -0.21679,-0.228515 -0.0547,-0.09375 -0.0957,-0.201175 -0.12305,-0.322266 -0.0273,-0.121096 -0.041,-0.240236 -0.041,-0.357422 z"
       id="path3167"
       inkscape:connector-curvature="0" />
  </g>
  <path
     style="fill:none;stroke:#e64b00;stroke-width:1px;stroke-linecap:butt;stroke-linejoin:miter;stroke-opacity:1"
     d="m 11.5,80.5 c 0.166667,0.66667 0.365232,1.32616 0.5,2 0.09988,0.49941 0,2.68651 0,3 0,2 0,4 0,6 0,0.66667 0,1.33333 0,2 0,0.16667 0,0.33333 0,0.5 0,0.16667 0.166667,0.5 0,0.5 -0.166667,0 0,-0.33333 0,-0.5 0,-0.33333 0,-0.66667 0,-1 0,-0.83333 0,-1.66667 0,-2.5 0,-1.5 0,-3 0,-4.5 0,-0.5 0.04527,-1.00205 0,-1.5 -0.121654,-1.33819 -0.5,-2.65629 -0.5,-4 0,-0.84984 0.360288,-1.66173 0.5,-2.5 0.104107,-0.62464 0,-1.36553 0,-2"
     id="path3014"
     inkscape:connector-curvature="0" />
  <path
     style="fill:none;stroke:#e64b00;stroke-width:5.30000019;stroke-linecap:round;stroke-linejoin:miter;stroke-miterlimit:4;stroke-opacity:1;stroke-dasharray:none;filter:url(#filter4528-1-0)"
     d="m 11.1286,105.74829 c 0,0 -0.492724,-3.81902 -0.726071,-10.525048 C 9.984872,83.220463 12.764401,57.618857 11.438793,46.460889 10.02731,34.580092 10.871397,11.751692 10.871397,11.751692"
     id="path3070-4"
     inkscape:connector-curvature="0"
     sodipodi:nodetypes="cssc" />
</svg>
