<?xml version="1.0" encoding="UTF-8" standalone="no"?>
<!-- Created with Inkscape (http://www.inkscape.org/) -->

<svg
   xmlns:dc="http://purl.org/dc/elements/1.1/"
   xmlns:cc="http://creativecommons.org/ns#"
   xmlns:rdf="http://www.w3.org/1999/02/22-rdf-syntax-ns#"
   xmlns:svg="http://www.w3.org/2000/svg"
   xmlns="http://www.w3.org/2000/svg"
   xmlns:sodipodi="http://sodipodi.sourceforge.net/DTD/sodipodi-0.dtd"
   xmlns:inkscape="http://www.inkscape.org/namespaces/inkscape"
   id="svg3055"
   version="1.1"
   inkscape:version="0.48.2 r9819"
   width="453"
   height="50"
   sodipodi:docname="selecciona.svg">
  <metadata
     id="metadata3061">
    <rdf:RDF>
      <cc:Work
         rdf:about="">
        <dc:format>image/svg+xml</dc:format>
        <dc:type
           rdf:resource="http://purl.org/dc/dcmitype/StillImage" />
        <dc:title></dc:title>
      </cc:Work>
    </rdf:RDF>
  </metadata>
  <defs
     id="defs3059">
    <filter
       inkscape:collect="always"
       id="filter4528"
       color-interpolation-filters="sRGB">
      <feGaussianBlur
         inkscape:collect="always"
         stdDeviation="0.28379253"
         id="feGaussianBlur4530" />
    </filter>
    <filter
       inkscape:collect="always"
       id="filter4550"
       color-interpolation-filters="sRGB">
      <feGaussianBlur
         inkscape:collect="always"
         stdDeviation="0.26780498"
         id="feGaussianBlur4552" />
    </filter>
    <filter
       inkscape:collect="always"
       id="filter4564"
       color-interpolation-filters="sRGB">
      <feGaussianBlur
         inkscape:collect="always"
         stdDeviation="0.20376469"
         id="feGaussianBlur4566" />
    </filter>
  </defs>
  <sodipodi:namedview
     pagecolor="#ffffff"
     bordercolor="#666666"
     borderopacity="1"
     objecttolerance="10"
     gridtolerance="10"
     guidetolerance="10"
     inkscape:pageopacity="0"
     inkscape:pageshadow="2"
     inkscape:window-width="1920"
     inkscape:window-height="1018"
     id="namedview3057"
     showgrid="false"
     inkscape:zoom="2"
     inkscape:cx="155.37741"
     inkscape:cy="-45.68404"
     inkscape:window-x="-8"
     inkscape:window-y="-8"
     inkscape:window-maximized="1"
     inkscape:current-layer="svg3055"
     showguides="true">
    <inkscape:grid
       type="xygrid"
       id="grid4709"
       empspacing="5"
       visible="true"
       enabled="true"
       snapvisiblegridlinesonly="true" />
  </sodipodi:namedview>
  <g
     inkscape:groupmode="layer"
     id="layer1"
     inkscape:label="Layer"
     style="display:inline"
     transform="translate(0,-138)" />
  <path
     style="fill:none;stroke:#e64b00;stroke-width:5.30000019;stroke-linecap:round;stroke-linejoin:miter;stroke-miterlimit:4;stroke-opacity:1;stroke-dasharray:none;filter:url(#filter4528)"
     d="m 444.61665,40.70041 c 0,0 -73.82248,-0.312712 -136.11802,-0.744676 C 260.15324,39.620502 207.08628,42.602877 151.99092,40.472895 97.40632,38.362658 54.745852,42.002533 49.17684,41.663 37.317734,40.939971 8.859443,40.703803 8.859443,40.703803"
     id="path3070"
     inkscape:connector-curvature="0"
     sodipodi:nodetypes="csssc" />
  <g
     transform="matrix(1.0625783,-0.01389797,0.16217057,1.1195094,-21.714971,-3.73736)"
     style="font-size:24px;font-style:normal;font-variant:normal;font-weight:normal;font-stretch:normal;line-height:125%;letter-spacing:0px;word-spacing:0px;fill:#e64b00;fill-opacity:1;stroke:none;filter:url(#filter4564);font-family:MV Boli;-inkscape-font-specification:MV Boli"
     id="text4556">
    <path
       d="m 66.19084,29.81892 c 0.265622,0.09375 0.537106,0.203128 0.814453,0.328125 0.27734,0.125002 0.564449,0.244143 0.861328,0.357422 0.296871,0.113283 0.607417,0.208986 0.931641,0.287109 0.324213,0.07813 0.669916,0.11719 1.037109,0.117188 0.429681,2e-6 0.863274,-0.05078 1.300781,-0.152344 0.437492,-0.10156 0.865226,-0.251951 1.283203,-0.451172 0.41796,-0.199216 0.81835,-0.441403 1.201172,-0.726562 0.382803,-0.285153 0.734365,-0.615231 1.054688,-0.990235 0.351551,-0.398433 0.644519,-0.759761 0.878906,-1.083984 0.234363,-0.324213 0.423816,-0.613276 0.568359,-0.867187 0.144519,-0.253901 0.248035,-0.47265 0.310547,-0.65625 0.06249,-0.183588 0.09374,-0.34179 0.09375,-0.47461 -1.2e-5,-0.195305 -0.06642,-0.365227 -0.199218,-0.509765 -0.132825,-0.144524 -0.31056,-0.263665 -0.533204,-0.357422 -0.222668,-0.09374 -0.474621,-0.162102 -0.755859,-0.205078 -0.281261,-0.04296 -0.574229,-0.06444 -0.878906,-0.06445 -0.179698,9e-6 -0.390635,0.0059 -0.632813,0.01758 -0.242197,0.01173 -0.48829,0.02344 -0.738281,0.03516 -0.250009,0.01173 -0.492196,0.02149 -0.726562,0.0293 -0.234384,0.0078 -0.437508,0.01173 -0.609375,0.01172 -0.25782,8e-6 -0.525398,-0.02929 -0.802735,-0.08789 -0.27735,-0.05859 -0.548834,-0.154289 -0.814453,-0.28711 -0.265631,-0.132804 -0.511724,-0.312491 -0.738281,-0.539062 -0.226568,-0.226553 -0.414068,-0.507803 -0.5625,-0.84375 -0.04688,-0.109365 -0.08985,-0.238271 -0.128906,-0.386719 -0.03907,-0.148427 -0.0586,-0.308583 -0.05859,-0.480469 -5e-6,-0.187489 0.01367,-0.365223 0.04102,-0.533203 0.02734,-0.167957 0.06054,-0.330066 0.09961,-0.486328 0.10937,-0.390613 0.29101,-0.787097 0.544922,-1.189453 0.2539,-0.40233 0.558588,-0.794908 0.914062,-1.177734 0.355462,-0.382798 0.742181,-0.753892 1.160156,-1.113282 0.417961,-0.359359 0.847648,-0.697249 1.289063,-1.013671 0.441397,-0.31639 0.87499,-0.601546 1.300781,-0.855469 0.425771,-0.253889 0.822255,-0.470686 1.189453,-0.650391 0.515614,-0.249982 1.041004,-0.431622 1.576172,-0.544922 0.535143,-0.113263 1.06444,-0.169903 1.587891,-0.169922 0.312485,1.9e-5 0.60936,0.04103 0.890625,0.123047 0.281234,0.08205 0.529281,0.20119 0.74414,0.357422 0.214828,0.156268 0.38475,0.349627 0.509766,0.580078 0.124983,0.230486 0.187483,0.494158 0.1875,0.791016 -1.7e-5,0.171891 -0.01955,0.316422 -0.05859,0.433594 -0.03908,0.117203 -0.08986,0.212906 -0.152343,0.287109 -0.06252,0.07423 -0.130876,0.126969 -0.205079,0.158203 -0.07423,0.03127 -0.150406,0.04689 -0.228515,0.04687 -0.210953,1.6e-5 -0.404313,-0.02342 -0.580078,-0.07031 -0.175797,-0.04686 -0.345719,-0.09959 -0.509766,-0.158203 -0.164077,-0.05858 -0.32814,-0.113266 -0.492187,-0.164063 -0.164077,-0.05077 -0.343765,-0.07616 -0.539063,-0.07617 -0.578138,1.6e-5 -1.166028,0.115251 -1.763672,0.345703 -0.597668,0.230485 -1.179698,0.523453 -1.746094,0.878907 -0.566416,0.355483 -1.101571,0.751967 -1.605468,1.189453 -0.503915,0.437513 -0.955086,0.863294 -1.353516,1.277343 -0.210945,0.218763 -0.365241,0.437512 -0.462891,0.65625 -0.09766,0.218762 -0.146491,0.425793 -0.146484,0.621094 -7e-6,0.289073 0.124993,0.515636 0.375,0.679688 0.249993,0.164072 0.55468,0.246104 0.914063,0.246093 0.210929,1.1e-5 0.44921,-0.0039 0.714843,-0.01172 0.265616,-0.0078 0.5371,-0.01757 0.814453,-0.0293 0.277334,-0.01171 0.546865,-0.02343 0.808594,-0.03516 0.261708,-0.01171 0.49413,-0.01757 0.697266,-0.01758 0.484363,1.1e-5 0.949206,0.06837 1.394531,0.205079 0.4453,0.136728 0.83983,0.3379 1.183594,0.603515 0.343736,0.265634 0.619126,0.595712 0.826172,0.990235 0.207016,0.394539 0.310532,0.84571 0.310547,1.353515 -1.5e-5,0.312507 -0.04689,0.628913 -0.140625,0.949219 -0.09376,0.320318 -0.222671,0.642584 -0.386719,0.966797 -0.164077,0.324223 -0.351577,0.644536 -0.5625,0.960937 -0.210951,0.31641 -0.433607,0.626957 -0.667969,0.931641 -0.421888,0.546878 -0.89259,1.062502 -1.412109,1.546875 -0.519543,0.484376 -1.072277,0.906251 -1.658203,1.265625 -0.585947,0.359375 -1.205087,0.644531 -1.857422,0.855469 -0.652352,0.210937 -1.322273,0.316405 -2.009766,0.316406 -0.296881,-10e-7 -0.601568,-0.02734 -0.914062,-0.08203 -0.312505,-0.05469 -0.621099,-0.134766 -0.925782,-0.240235 -0.304691,-0.105469 -0.5918,-0.238281 -0.861328,-0.398437 -0.269534,-0.160156 -0.505862,-0.341797 -0.708984,-0.544922 -0.203128,-0.203124 -0.365237,-0.427733 -0.486328,-0.673828 -0.121096,-0.246092 -0.181643,-0.51367 -0.181641,-0.802735 -2e-6,-0.140622 0.02148,-0.275388 0.06445,-0.404296 0.04297,-0.128904 0.150389,-0.193357 0.322266,-0.19336 z"
       style=""
       id="path3221" />
    <path
       d="m 80.968184,31.658764 c -3e-6,-0.273436 0.03906,-0.562499 0.117187,-0.867188 0.265622,-1.062497 0.576169,-2.103511 0.931641,-3.123046 0.355464,-1.019526 0.67773,-2.033197 0.966797,-3.041016 0.289057,-1.007804 0.529291,-1.857412 0.720703,-2.548828 0.1914,-0.691395 0.361322,-1.285145 0.509765,-1.78125 0.148432,-0.496081 0.28515,-0.923815 0.410157,-1.283203 0.124993,-0.359361 0.261712,-0.71483 0.410156,-1.066407 0.09374,-0.210922 0.197259,-0.429672 0.310547,-0.65625 0.113274,-0.226547 0.236321,-0.435531 0.36914,-0.626953 0.132805,-0.19139 0.271477,-0.34764 0.416016,-0.46875 0.144523,-0.121077 0.294914,-0.181624 0.451172,-0.18164 0.320304,1.6e-5 0.564444,0.05275 0.732422,0.158203 0.167959,0.105485 0.271475,0.201188 0.310547,0.287109 l 0.105468,0.480469 c 0.117178,-0.0078 0.269522,-0.02928 0.457032,-0.06445 0.18749,-0.03514 0.376943,-0.07225 0.568359,-0.111328 0.191396,-0.03905 0.36913,-0.07811 0.533203,-0.117188 0.164052,-0.03905 0.289051,-0.0742 0.375,-0.105469 0.515613,-0.140608 0.992175,-0.261702 1.429688,-0.363281 0.437486,-0.101546 0.853502,-0.18553 1.248046,-0.251953 0.394517,-0.06639 0.77147,-0.115218 1.13086,-0.146484 0.359359,-0.03123 0.72264,-0.04686 1.089844,-0.04687 0.359358,1.6e-5 0.652327,0.01955 0.878906,0.05859 0.226545,0.03908 0.406232,0.09181 0.539062,0.158204 0.132795,0.06642 0.224592,0.144547 0.275391,0.234375 0.05076,0.08986 0.07615,0.185563 0.07617,0.287109 -1.8e-5,0.09377 -0.02541,0.193375 -0.07617,0.298828 -0.0508,0.105484 -0.134783,0.205094 -0.251953,0.298828 -0.117205,0.09377 -0.269549,0.175797 -0.457031,0.246094 -0.187517,0.07033 -0.421892,0.117202 -0.703125,0.140625 -0.07033,0.01564 -0.232439,0.04494 -0.486329,0.08789 -0.253922,0.04298 -0.529312,0.08986 -0.826171,0.140625 -0.29689,0.0508 -0.57814,0.09962 -0.84375,0.146484 -0.265639,0.04689 -0.449233,0.08205 -0.550782,0.105469 l 0.01172,0 c -0.04689,0.0078 -0.158217,0.03712 -0.333984,0.08789 -0.175795,0.0508 -0.388685,0.10939 -0.638672,0.175782 -0.250013,0.06642 -0.521497,0.142592 -0.814453,0.228515 -0.292981,0.08595 -0.582043,0.169936 -0.867188,0.251953 -0.285167,0.08205 -0.548838,0.16017 -0.791015,0.234375 -0.242198,0.07423 -0.43751,0.134779 -0.585938,0.181641 -0.476572,0.187513 -0.849618,0.43556 -1.119141,0.744141 -0.269539,0.308606 -0.48243,0.654308 -0.638671,1.037109 -0.03126,0.07032 -0.07813,0.189464 -0.140625,0.357422 -0.06251,0.16798 -0.130867,0.359386 -0.205079,0.574219 -0.07423,0.214854 -0.154304,0.443369 -0.240234,0.685546 -0.08594,0.242198 -0.167976,0.472666 -0.246094,0.691407 -0.07813,0.218759 -0.146491,0.417977 -0.205078,0.597656 -0.0586,0.179696 -0.09962,0.312508 -0.123047,0.398437 -0.02344,0.07813 -0.03907,0.148446 -0.04687,0.210938 -0.0078,0.06251 -0.01172,0.109383 -0.01172,0.140625 -7e-6,0.04688 0.01171,0.07032 0.03516,0.07031 0.11718,8e-6 0.361321,-0.05273 0.732422,-0.158203 0.371086,-0.10546 0.804679,-0.23632 1.300781,-0.392578 0.496084,-0.156241 1.027334,-0.32421 1.59375,-0.503906 0.566395,-0.179678 1.109363,-0.347647 1.628906,-0.503906 0.519519,-0.156241 0.982409,-0.2871 1.388672,-0.392578 0.406236,-0.105459 0.699205,-0.158194 0.878906,-0.158204 0.273423,10e-6 0.457017,0.04493 0.550782,0.134766 0.09374,0.08985 0.14061,0.189463 0.140625,0.298828 -1.5e-5,0.281259 -0.09962,0.527353 -0.298829,0.738281 -0.199233,0.210947 -0.447279,0.39454 -0.74414,0.550782 -0.09376,0.04688 -0.267592,0.115242 -0.521485,0.205078 -0.253919,0.08985 -0.527356,0.181648 -0.820312,0.27539 -0.292981,0.09376 -0.572278,0.183602 -0.837891,0.269532 -0.265636,0.08594 -0.457042,0.148445 -0.574218,0.1875 -0.765636,0.296882 -1.388682,0.541022 -1.869141,0.732422 -0.480478,0.191412 -0.869149,0.347662 -1.166016,0.46875 -0.296883,0.121099 -0.525398,0.212896 -0.685547,0.27539 -0.160163,0.06251 -0.3086,0.11524 -0.445312,0.158203 -0.136726,0.04298 -0.287116,0.08399 -0.451172,0.123047 -0.164069,0.03907 -0.390631,0.09376 -0.679687,0.164063 -0.07032,0.164067 -0.15235,0.412114 -0.246094,0.74414 -0.09376,0.332036 -0.183599,0.675786 -0.269531,1.03125 -0.08594,0.355472 -0.158209,0.68555 -0.216797,0.990235 -0.0586,0.30469 -0.0879,0.515627 -0.08789,0.632812 -5e-6,0.140627 0.01953,0.244143 0.05859,0.310547 0.03906,0.06641 0.08593,0.11133 0.140625,0.134766 0.05468,0.02344 0.109369,0.03516 0.164062,0.03516 0.05468,10e-7 0.09765,10e-7 0.128907,0 0.374994,10e-7 0.826165,-0.05469 1.353515,-0.164063 0.527337,-0.109373 1.04882,-0.253904 1.564453,-0.433593 0.492179,-0.171873 0.921866,-0.359373 1.289063,-0.5625 0.367177,-0.203122 0.71288,-0.392575 1.037109,-0.56836 0.324208,-0.175778 0.640614,-0.324215 0.949219,-0.445312 0.308582,-0.12109 0.646472,-0.185543 1.013672,-0.19336 0.07811,4e-6 0.169909,0.0078 0.27539,0.02344 0.105456,0.01563 0.205065,0.04493 0.298829,0.08789 0.09374,0.04297 0.169908,0.09961 0.228515,0.169921 0.05858,0.07032 0.08007,0.16016 0.06445,0.269532 -0.03126,0.226565 -0.144544,0.449221 -0.339843,0.667968 -0.195326,0.218753 -0.44142,0.42969 -0.738282,0.632813 -0.296887,0.203127 -0.628918,0.398439 -0.996093,0.585937 -0.367199,0.187502 -0.742199,0.365236 -1.125,0.533204 -0.382823,0.167969 -0.757823,0.320313 -1.125,0.457031 -0.367197,0.136719 -0.695322,0.255859 -0.984375,0.357422 -0.718758,0.25 -1.417976,0.433593 -2.097657,0.550781 -0.679693,0.117187 -1.289067,0.175781 -1.828125,0.175781 -0.593753,0 -1.048831,-0.111328 -1.365234,-0.333984 -0.316409,-0.222657 -0.474612,-0.591797 -0.474609,-1.107422 z"
       style=""
       id="path3223" />
    <path
       d="m 96.75334,26.479076 c 0.351558,-1.078117 0.687495,-2.113273 1.007812,-3.105468 0.320308,-0.992178 0.60351,-1.910146 0.84961,-2.753907 0.246087,-0.843737 0.4414,-1.58983 0.585937,-2.238281 0.144525,-0.648423 0.224603,-1.164047 0.240235,-1.546875 0.09374,-0.367171 0.259758,-0.66014 0.498046,-0.878906 0.23827,-0.218733 0.51366,-0.328108 0.82617,-0.328125 0.18749,1.7e-5 0.34765,0.04298 0.48047,0.128906 0.13281,0.08595 0.24023,0.199235 0.32227,0.339844 0.082,0.140641 0.14257,0.298844 0.18164,0.474609 0.0391,0.175797 0.0586,0.353531 0.0586,0.533203 -1e-5,0.132828 -0.008,0.253922 -0.0234,0.363282 -0.0156,0.10939 -0.0352,0.214858 -0.0586,0.316406 -0.1797,0.718764 -0.39454,1.460951 -0.64453,2.226562 -0.25001,0.765637 -0.50587,1.541027 -0.76758,2.326172 -0.26173,0.785166 -0.521491,1.572275 -0.779296,2.361328 -0.257819,0.78907 -0.488288,1.562507 -0.691407,2.320313 l -0.210937,0.796875 c -0.109381,0.406254 -0.203131,0.792973 -0.28125,1.160156 -0.07813,0.367191 -0.117193,0.664066 -0.117188,0.890625 -5e-6,0.125003 0.02343,0.224612 0.07031,0.298828 0.04687,0.07422 0.136713,0.111331 0.269531,0.111328 0.320307,3e-6 0.695306,-0.05273 1.125,-0.158203 0.429684,-0.105466 0.874994,-0.234372 1.335934,-0.386718 0.46093,-0.152341 0.91992,-0.32031 1.37696,-0.503907 0.45702,-0.18359 0.87694,-0.357418 1.25976,-0.521484 0.20312,-0.08593 0.37694,-0.160152 0.52149,-0.222656 0.14452,-0.0625 0.3242,-0.138668 0.53906,-0.228516 0.21483,-0.08984 0.50194,-0.20898 0.86133,-0.357422 0.35936,-0.148433 0.85545,-0.355464 1.48828,-0.621094 0.10936,-0.03906 0.20506,-0.07226 0.28711,-0.09961 0.082,-0.02734 0.15819,-0.04101 0.22851,-0.04102 0.12499,6e-6 0.23241,0.02344 0.32227,0.07031 0.0898,0.04688 0.16014,0.10938 0.21094,0.1875 0.0508,0.07813 0.0879,0.167974 0.11132,0.269531 0.0234,0.101567 0.0351,0.20313 0.0352,0.304688 -1e-5,0.171879 -0.0137,0.322269 -0.041,0.451172 -0.0274,0.12891 -0.0567,0.236332 -0.0879,0.322265 -0.0938,0.148441 -0.21485,0.283207 -0.36328,0.404297 -0.14845,0.121097 -0.3047,0.226566 -0.46875,0.316406 -0.16407,0.08985 -0.32423,0.166019 -0.48047,0.228516 -0.15626,0.0625 -0.28517,0.109378 -0.38671,0.140625 -0.12502,0.04688 -0.29103,0.109377 -0.49805,0.1875 -0.20704,0.07813 -0.43165,0.164065 -0.67383,0.257812 -0.2422,0.09375 -0.4922,0.189456 -0.75,0.28711 -0.25782,0.09766 -0.50001,0.189455 -0.72656,0.27539 -0.22657,0.08594 -0.42775,0.162111 -0.60352,0.228516 -0.17579,0.06641 -0.29884,0.111329 -0.36914,0.134766 -0.33594,0.125001 -0.70899,0.265626 -1.11914,0.421875 -0.41016,0.15625 -0.81837,0.304688 -1.22461,0.445312 -0.40625,0.140625 -0.79102,0.259766 -1.154295,0.357422 -0.363287,0.09766 -0.666021,0.146484 -0.908203,0.146484 -0.29688,0 -0.529302,-0.02344 -0.697265,-0.07031 -0.167974,-0.04687 -0.318364,-0.111328 -0.451172,-0.193359 -0.132817,-0.08203 -0.267582,-0.181641 -0.404297,-0.298829 -0.136723,-0.117186 -0.318363,-0.246093 -0.544922,-0.386718 -0.203128,-0.124999 -0.347659,-0.296874 -0.433594,-0.515625 -0.08594,-0.218749 -0.128909,-0.453123 -0.128906,-0.703125 -3e-6,-0.124998 0.0098,-0.269529 0.0293,-0.433594 0.01953,-0.16406 0.04492,-0.335935 0.07617,-0.515625 0.03125,-0.179684 0.0664,-0.355465 0.105469,-0.527344 0.03906,-0.171871 0.08203,-0.324215 0.128906,-0.457031 z"
       style=""
       id="path3225" />
    <path
       d="m 109.93693,31.658764 c 0,-0.273436 0.0391,-0.562499 0.11719,-0.867188 0.26562,-1.062497 0.57617,-2.103511 0.93164,-3.123046 0.35547,-1.019526 0.67773,-2.033197 0.9668,-3.041016 0.28906,-1.007804 0.52929,-1.857412 0.7207,-2.548828 0.1914,-0.691395 0.36132,-1.285145 0.50977,-1.78125 0.14843,-0.496081 0.28515,-0.923815 0.41015,-1.283203 0.125,-0.359361 0.26172,-0.71483 0.41016,-1.066407 0.0937,-0.210922 0.19726,-0.429672 0.31055,-0.65625 0.11327,-0.226547 0.23632,-0.435531 0.36914,-0.626953 0.1328,-0.19139 0.27147,-0.34764 0.41601,-0.46875 0.14453,-0.121077 0.29492,-0.181624 0.45117,-0.18164 0.32031,1.6e-5 0.56445,0.05275 0.73243,0.158203 0.16796,0.105485 0.27147,0.201188 0.31054,0.287109 l 0.10547,0.480469 c 0.11718,-0.0078 0.26952,-0.02928 0.45703,-0.06445 0.18749,-0.03514 0.37695,-0.07225 0.56836,-0.111328 0.1914,-0.03905 0.36913,-0.07811 0.53321,-0.117188 0.16405,-0.03905 0.28905,-0.0742 0.375,-0.105469 0.51561,-0.140608 0.99217,-0.261702 1.42968,-0.363281 0.43749,-0.101546 0.85351,-0.18553 1.24805,-0.251953 0.39452,-0.06639 0.77147,-0.115218 1.13086,-0.146484 0.35936,-0.03123 0.72264,-0.04686 1.08984,-0.04687 0.35936,1.6e-5 0.65233,0.01955 0.87891,0.05859 0.22655,0.03908 0.40623,0.09181 0.53906,0.158204 0.1328,0.06642 0.22459,0.144547 0.27539,0.234375 0.0508,0.08986 0.0762,0.185563 0.0762,0.287109 -1e-5,0.09377 -0.0254,0.193375 -0.0762,0.298828 -0.0508,0.105484 -0.13478,0.205094 -0.25195,0.298828 -0.11721,0.09377 -0.26955,0.175797 -0.45703,0.246094 -0.18752,0.07033 -0.42189,0.117202 -0.70313,0.140625 -0.0703,0.01564 -0.23243,0.04494 -0.48632,0.08789 -0.25393,0.04298 -0.52932,0.08986 -0.82618,0.140625 -0.29689,0.0508 -0.57814,0.09962 -0.84375,0.146484 -0.26564,0.04689 -0.44923,0.08205 -0.55078,0.105469 l 0.0117,0 c -0.0469,0.0078 -0.15822,0.03712 -0.33398,0.08789 -0.1758,0.0508 -0.38869,0.10939 -0.63868,0.175782 -0.25001,0.06642 -0.52149,0.142592 -0.81445,0.228515 -0.29298,0.08595 -0.58204,0.169936 -0.86719,0.251953 -0.28516,0.08205 -0.54883,0.16017 -0.79101,0.234375 -0.2422,0.07423 -0.43751,0.134779 -0.58594,0.181641 -0.47657,0.187513 -0.84962,0.43556 -1.11914,0.744141 -0.26954,0.308606 -0.48243,0.654308 -0.63867,1.037109 -0.0313,0.07032 -0.0781,0.189464 -0.14063,0.357422 -0.0625,0.16798 -0.13086,0.359386 -0.20507,0.574219 -0.0742,0.214854 -0.15431,0.443369 -0.24024,0.685546 -0.0859,0.242198 -0.16797,0.472666 -0.24609,0.691407 -0.0781,0.218759 -0.14649,0.417977 -0.20508,0.597656 -0.0586,0.179696 -0.0996,0.312508 -0.12305,0.398437 -0.0234,0.07813 -0.0391,0.148446 -0.0469,0.210938 -0.008,0.06251 -0.0117,0.109383 -0.0117,0.140625 -1e-5,0.04688 0.0117,0.07032 0.0352,0.07031 0.11719,8e-6 0.36133,-0.05273 0.73243,-0.158203 0.37108,-0.10546 0.80468,-0.23632 1.30078,-0.392578 0.49608,-0.156241 1.02733,-0.32421 1.59375,-0.503906 0.56639,-0.179678 1.10936,-0.347647 1.6289,-0.503906 0.51952,-0.156241 0.98241,-0.2871 1.38868,-0.392578 0.40623,-0.105459 0.6992,-0.158194 0.8789,-0.158204 0.27343,10e-6 0.45702,0.04493 0.55078,0.134766 0.0937,0.08985 0.14061,0.189463 0.14063,0.298828 -2e-5,0.281259 -0.0996,0.527353 -0.29883,0.738281 -0.19923,0.210947 -0.44728,0.39454 -0.74414,0.550782 -0.0938,0.04688 -0.26759,0.115242 -0.52148,0.205078 -0.25392,0.08985 -0.52736,0.181648 -0.82032,0.27539 -0.29298,0.09376 -0.57227,0.183602 -0.83789,0.269532 -0.26563,0.08594 -0.45704,0.148445 -0.57422,0.1875 -0.76563,0.296882 -1.38868,0.541022 -1.86914,0.732422 -0.48047,0.191412 -0.86915,0.347662 -1.16601,0.46875 -0.29689,0.121099 -0.5254,0.212896 -0.68555,0.27539 -0.16016,0.06251 -0.3086,0.11524 -0.44531,0.158203 -0.13673,0.04298 -0.28712,0.08399 -0.45117,0.123047 -0.16407,0.03907 -0.39064,0.09376 -0.67969,0.164063 -0.0703,0.164067 -0.15235,0.412114 -0.2461,0.74414 -0.0937,0.332036 -0.18359,0.675786 -0.26953,1.03125 -0.0859,0.355472 -0.1582,0.68555 -0.21679,0.990235 -0.0586,0.30469 -0.0879,0.515627 -0.0879,0.632812 -1e-5,0.140627 0.0195,0.244143 0.0586,0.310547 0.0391,0.06641 0.0859,0.11133 0.14062,0.134766 0.0547,0.02344 0.10937,0.03516 0.16407,0.03516 0.0547,10e-7 0.0977,10e-7 0.1289,0 0.375,10e-7 0.82617,-0.05469 1.35352,-0.164063 0.52734,-0.109373 1.04882,-0.253904 1.56445,-0.433593 0.49218,-0.171873 0.92187,-0.359373 1.28906,-0.5625 0.36718,-0.203122 0.71288,-0.392575 1.03711,-0.56836 0.32421,-0.175778 0.64062,-0.324215 0.94922,-0.445312 0.30858,-0.12109 0.64647,-0.185543 1.01367,-0.19336 0.0781,4e-6 0.16991,0.0078 0.2754,0.02344 0.10545,0.01563 0.20506,0.04493 0.29882,0.08789 0.0937,0.04297 0.16991,0.09961 0.22852,0.169921 0.0586,0.07032 0.0801,0.16016 0.0644,0.269532 -0.0313,0.226565 -0.14454,0.449221 -0.33984,0.667968 -0.19533,0.218753 -0.44142,0.42969 -0.73828,0.632813 -0.29689,0.203127 -0.62892,0.398439 -0.9961,0.585937 -0.3672,0.187502 -0.74219,0.365236 -1.125,0.533204 -0.38282,0.167969 -0.75782,0.320313 -1.125,0.457031 -0.36719,0.136719 -0.69532,0.255859 -0.98437,0.357422 -0.71876,0.25 -1.41798,0.433593 -2.09766,0.550781 -0.67969,0.117187 -1.28907,0.175781 -1.82812,0.175781 -0.59376,0 -1.04883,-0.111328 -1.36524,-0.333984 -0.31641,-0.222657 -0.47461,-0.591797 -0.47461,-1.107422 z"
       style=""
       id="path3227" />
    <path
       d="m 124.67912,27.533764 c 0,-0.45312 0.0547,-0.966791 0.16406,-1.541016 0.10938,-0.574211 0.30078,-1.130851 0.57422,-1.669922 0.375,-0.749991 0.79297,-1.474599 1.25391,-2.173828 0.46093,-0.699207 0.93359,-1.343738 1.41797,-1.933593 0.48437,-0.589831 0.96874,-1.113268 1.45312,-1.570313 0.48437,-0.457017 0.94531,-0.814438 1.38281,-1.072266 l -0.0117,0.01172 c 0.27342,-0.17186 0.56249,-0.351547 0.86718,-0.539062 0.30468,-0.187485 0.61718,-0.35936 0.9375,-0.515625 0.3203,-0.156234 0.64452,-0.28514 0.97266,-0.386719 0.32811,-0.101546 0.65233,-0.152327 0.97266,-0.152344 0.32811,1.7e-5 0.64061,0.06642 0.9375,0.199219 0.29686,0.132829 0.55662,0.314469 0.77929,0.544922 0.22264,0.230484 0.39843,0.498062 0.52735,0.802734 0.12889,0.304702 0.19334,0.628921 0.19336,0.972656 -2e-5,0.242202 -0.0137,0.431655 -0.041,0.56836 -0.0274,0.136732 -0.0703,0.240247 -0.12891,0.310547 -0.0586,0.07033 -0.13282,0.113294 -0.22265,0.128906 -0.0899,0.01564 -0.19338,0.02345 -0.31055,0.02344 -0.17189,1.3e-5 -0.30665,-0.0371 -0.4043,-0.111328 -0.0977,-0.0742 -0.17579,-0.164049 -0.23437,-0.269531 -0.0586,-0.105455 -0.10353,-0.222643 -0.13477,-0.351562 -0.0313,-0.128893 -0.0684,-0.24608 -0.11132,-0.351563 -0.043,-0.105455 -0.0977,-0.195298 -0.16407,-0.269531 -0.0664,-0.07421 -0.15821,-0.111314 -0.27539,-0.111328 -0.31251,1.4e-5 -0.6504,0.07033 -1.01367,0.210937 -0.36329,0.140639 -0.73439,0.328139 -1.11328,0.5625 -0.37892,0.234389 -0.75782,0.501966 -1.13672,0.802735 -0.37892,0.300793 -0.74024,0.607434 -1.08398,0.919921 -0.34376,0.312512 -0.66212,0.621105 -0.95508,0.925782 -0.29298,0.304698 -0.54493,0.578135 -0.75586,0.820312 -0.31251,0.398447 -0.59766,0.802744 -0.85547,1.212891 -0.25782,0.410165 -0.48047,0.828133 -0.66797,1.253906 -0.1875,0.425789 -0.33204,0.863288 -0.43359,1.3125 -0.10157,0.449225 -0.15235,0.916021 -0.15235,1.400391 0,0.375004 0.0527,0.703129 0.15821,0.984375 0.10546,0.281253 0.22069,0.523441 0.3457,0.726562 0.14843,0.234378 0.33203,0.396487 0.55078,0.486328 0.21874,0.08985 0.48046,0.134769 0.78516,0.134766 0.66405,3e-6 1.27733,-0.0625 1.83984,-0.1875 0.56249,-0.124997 1.10155,-0.292966 1.61719,-0.503906 0.51561,-0.210934 1.01952,-0.460934 1.51172,-0.75 0.49217,-0.289058 0.99998,-0.597652 1.52343,-0.925782 l 0.30469,0 c 0.10155,5e-6 0.20507,0.02735 0.31055,0.08203 0.10545,0.05469 0.1992,0.125004 0.28125,0.210937 0.082,0.08594 0.14842,0.183598 0.19922,0.292969 0.0508,0.109379 0.0762,0.22266 0.0762,0.339844 -1e-5,0.257816 -0.10158,0.513675 -0.30469,0.767578 -0.20314,0.253909 -0.4629,0.496096 -0.77929,0.726562 -0.31642,0.230471 -0.67385,0.447268 -1.07227,0.650391 -0.39845,0.203127 -0.79103,0.382814 -1.17773,0.539062 -0.38673,0.156252 -0.74806,0.289064 -1.08399,0.398438 -0.33595,0.109376 -0.60548,0.183595 -0.80859,0.222656 -0.17189,0.03906 -0.3379,0.07617 -0.49805,0.111328 -0.16016,0.03516 -0.34962,0.07031 -0.56836,0.105469 -0.21876,0.03516 -0.48048,0.0625 -0.78516,0.08203 -0.30469,0.01953 -0.6875,0.0293 -1.14843,0.0293 -0.28126,1e-6 -0.53907,-0.04492 -0.77344,-0.134765 -0.23438,-0.08984 -0.44336,-0.195312 -0.62695,-0.316407 -0.1836,-0.121092 -0.33985,-0.248045 -0.46875,-0.380859 -0.12891,-0.132811 -0.23243,-0.246092 -0.31055,-0.339844 -0.46094,-0.53906 -0.79688,-1.07031 -1.00781,-1.59375 -0.21094,-0.523434 -0.31641,-1.097652 -0.31641,-1.722656 z"
       style=""
       id="path3229" />
    <path
       d="m 143.75725,30.639233 c 0.29686,-1.296872 0.63085,-2.605465 1.00195,-3.925782 0.37108,-1.320305 0.73241,-2.628897 1.08398,-3.925781 0.14843,-0.539052 0.27929,-1.029286 0.39258,-1.470703 0.11327,-0.441395 0.20898,-0.841785 0.28711,-1.201172 0.0781,-0.359362 0.13671,-0.685534 0.17578,-0.978515 0.0391,-0.292956 0.0586,-0.56444 0.0586,-0.814454 -1e-5,-0.04686 -1e-5,-0.0996 0,-0.158203 -1e-5,-0.05858 -0.004,-0.130845 -0.0117,-0.216797 -0.0781,1.5e-5 -0.25197,0.04298 -0.52149,0.128907 -0.26954,0.08595 -0.58594,0.199233 -0.94922,0.339843 -0.36329,0.140639 -0.7461,0.298842 -1.14843,0.47461 -0.40235,0.175794 -0.7754,0.353529 -1.11914,0.533203 -0.27345,0.140638 -0.50196,0.257825 -0.68555,0.351562 -0.1836,0.09376 -0.3418,0.166029 -0.47461,0.216797 -0.13282,0.05079 -0.25391,0.08595 -0.36328,0.105469 -0.10938,0.01954 -0.22266,0.02931 -0.33985,0.0293 -0.24219,1.2e-5 -0.45117,-0.09374 -0.62695,-0.28125 -0.17578,-0.187487 -0.26367,-0.429675 -0.26367,-0.726563 0,-0.171861 0.0176,-0.322252 0.0527,-0.451171 0.0352,-0.128893 0.0898,-0.244127 0.16407,-0.345704 0.0742,-0.101548 0.17382,-0.197251 0.29882,-0.287109 0.125,-0.08983 0.27734,-0.181626 0.45704,-0.275391 1.97655,-1.031234 3.97655,-1.787092 6,-2.267578 2.02342,-0.480451 4.05467,-0.720685 6.09375,-0.720703 0.16404,1.8e-5 0.35935,0.0039 0.58593,0.01172 0.22655,0.0078 0.45897,0.0215 0.69727,0.04102 0.23826,0.01955 0.47068,0.04689 0.69726,0.08203 0.22655,0.03517 0.42577,0.07619 0.59766,0.123047 0.17967,0.0547 0.33592,0.167986 0.46875,0.339843 0.13279,0.171892 0.1992,0.355486 0.19922,0.550782 -2e-5,0.156266 -0.0137,0.30861 -0.041,0.457031 -0.0274,0.148453 -0.0762,0.27736 -0.14648,0.386719 -0.0703,0.10939 -0.16213,0.197281 -0.27539,0.263672 -0.1133,0.06642 -0.25197,0.09962 -0.41602,0.09961 -0.28127,-0.03124 -0.60353,-0.0703 -0.96679,-0.117188 -0.3633,-0.04686 -0.72854,-0.0703 -1.09571,-0.07031 -0.73439,1.5e-5 -1.46681,0.01759 -2.19726,0.05273 -0.73049,0.03517 -1.47853,0.138688 -2.24414,0.310547 -0.0391,0.01564 -0.0645,0.05666 -0.0762,0.123047 -0.0117,0.06642 -0.0215,0.150406 -0.0293,0.251953 -0.0234,0.42189 -0.0586,0.792983 -0.10547,1.113281 -0.0469,0.320326 -0.11134,0.640638 -0.19336,0.960938 -0.082,0.320325 -0.18165,0.666028 -0.29883,1.037109 -0.1172,0.371105 -0.25392,0.816417 -0.41015,1.335938 -0.15627,0.519541 -0.33791,1.140634 -0.54493,1.863281 -0.20704,0.722664 -0.43555,1.59571 -0.68554,2.619141 l -0.5625,2.273437 c -0.13283,0.523441 -0.23634,0.994143 -0.31055,1.41211 -0.0742,0.41797 -0.13868,0.830079 -0.19336,1.236328 -0.0313,0.132813 -0.1504,0.257813 -0.35742,0.375 -0.20704,0.117188 -0.45118,0.175781 -0.73242,0.175781 -0.16407,0 -0.31251,-0.04492 -0.44532,-0.134766 -0.13282,-0.08984 -0.24219,-0.205077 -0.32812,-0.345703 -0.0859,-0.140624 -0.14454,-0.294921 -0.17578,-0.46289 -0.0313,-0.167968 -0.0234,-0.333983 0.0234,-0.498047 z"
       style=""
       id="path3231" />
    <path
       d="m 176.11271,32.654858 c -0.16407,0 -0.3086,-0.03125 -0.43359,-0.09375 -0.12501,-0.0625 -0.22853,-0.144532 -0.31055,-0.246094 -0.082,-0.101562 -0.14454,-0.21875 -0.1875,-0.351563 -0.043,-0.132811 -0.0645,-0.265624 -0.0644,-0.398437 -1e-5,-0.117187 0.0312,-0.279296 0.0937,-0.486328 0.0625,-0.20703 0.14257,-0.439451 0.24024,-0.697266 0.0976,-0.25781 0.20506,-0.527341 0.32226,-0.808594 0.11718,-0.281246 0.23046,-0.550777 0.33984,-0.808593 0.10937,-0.257809 0.20312,-0.49609 0.28125,-0.714844 0.0781,-0.218745 0.1328,-0.39062 0.16407,-0.515625 0.0312,-0.14062 0.0703,-0.308589 0.11718,-0.503906 0.0469,-0.195307 0.0996,-0.408198 0.15821,-0.638672 0.0586,-0.230463 0.11717,-0.47265 0.17578,-0.726563 0.0586,-0.253899 0.11913,-0.509758 0.18164,-0.767578 -0.10939,0.02345 -0.24415,0.04493 -0.4043,0.06445 -0.16017,0.01954 -0.33009,0.03712 -0.50976,0.05274 -0.25783,0.02344 -0.51173,0.0586 -0.76172,0.105468 -0.25001,0.04688 -0.50587,0.09962 -0.76758,0.158204 -0.26173,0.0586 -0.53321,0.1211 -0.81445,0.1875 -0.28126,0.06641 -0.58204,0.134772 -0.90235,0.205078 -0.46876,0.101569 -0.93751,0.21485 -1.40625,0.339843 -0.46875,0.125007 -0.95704,0.187507 -1.46484,0.1875 -0.15626,7e-6 -0.30079,-0.04101 -0.43359,-0.123046 -0.13282,-0.08203 -0.28126,-0.142572 -0.44532,-0.181641 -0.15625,0.250006 -0.30469,0.517584 -0.44531,0.802734 -0.14063,0.285162 -0.26954,0.578131 -0.38672,0.878907 -0.11719,0.300785 -0.22266,0.59766 -0.3164,0.890625 -0.0938,0.292972 -0.17579,0.568362 -0.2461,0.826171 -0.0391,0.140628 -0.0723,0.322269 -0.0996,0.544922 -0.0274,0.222659 -0.0527,0.449221 -0.0762,0.679688 -0.0234,0.23047 -0.0469,0.451173 -0.0703,0.662109 -0.0234,0.210939 -0.0469,0.378907 -0.0703,0.503906 -0.0234,0.117189 -0.0703,0.232423 -0.14063,0.345704 -0.0703,0.113281 -0.15625,0.216797 -0.25781,0.310546 -0.10157,0.09375 -0.21485,0.169922 -0.33985,0.228516 -0.125,0.05859 -0.25,0.08789 -0.375,0.08789 -0.21875,0 -0.39648,-0.06445 -0.5332,-0.19336 -0.13672,-0.128906 -0.24609,-0.289062 -0.32812,-0.480468 -0.082,-0.191406 -0.13868,-0.40039 -0.16993,-0.626954 -0.0312,-0.226561 -0.0469,-0.433592 -0.0469,-0.621093 0,-0.476561 0.0586,-0.970701 0.17578,-1.482422 0.11719,-0.511715 0.27539,-1.031246 0.47461,-1.558594 0.19922,-0.527338 0.43359,-1.058588 0.70313,-1.59375 0.26952,-0.535149 0.56054,-1.068352 0.87304,-1.599609 0.25781,-0.476554 0.57812,-1.027335 0.96094,-1.652344 0.38281,-0.62499 0.81054,-1.267567 1.2832,-1.927734 0.47265,-0.660144 0.98437,-1.306628 1.53516,-1.939454 0.55077,-0.632798 1.12304,-1.19725 1.7168,-1.693359 0.59374,-0.496078 1.20311,-0.896468 1.82812,-1.201172 0.62499,-0.304671 1.24608,-0.457014 1.86328,-0.457031 0.64843,1.7e-5 1.18944,0.117204 1.62305,0.351562 0.43358,0.234392 0.77928,0.550798 1.03711,0.949219 0.25779,0.398453 0.43944,0.863296 0.54492,1.394531 0.10545,0.531264 0.15819,1.093763 0.1582,1.6875 -1e-5,0.52345 -0.0332,1.062512 -0.0996,1.617188 -0.0664,0.554698 -0.14845,1.097666 -0.24609,1.628906 -0.0977,0.531259 -0.20314,1.042977 -0.31641,1.535156 -0.11329,0.492195 -0.21681,0.937507 -0.31054,1.335938 l -0.41016,1.59375 c -0.0156,0.04688 -0.0449,0.14063 -0.0879,0.28125 -0.043,0.140629 -0.0977,0.310551 -0.16406,0.509766 -0.0664,0.199222 -0.14064,0.414066 -0.22266,0.644531 -0.082,0.230472 -0.16408,0.457034 -0.24609,0.679687 -0.082,0.222659 -0.16017,0.427737 -0.23438,0.615235 -0.0742,0.187502 -0.13868,0.339845 -0.19336,0.457031 l 0.0117,-0.01172 c -0.0547,0.203127 -0.11329,0.410158 -0.17578,0.621094 -0.0625,0.210938 -0.14845,0.400391 -0.25781,0.568359 -0.10939,0.167969 -0.25002,0.304688 -0.42188,0.410157 -0.17188,0.105468 -0.39454,0.158203 -0.66797,0.158203 z m 0.59766,-14.671875 c -0.35157,1.4e-5 -0.70118,0.07228 -1.04883,0.216797 -0.34767,0.144545 -0.68946,0.333998 -1.02539,0.568359 -0.33595,0.234388 -0.66212,0.507826 -0.97851,0.820312 -0.31642,0.312513 -0.6172,0.632825 -0.90235,0.960938 -0.28516,0.328137 -0.55274,0.658214 -0.80273,0.990234 -0.25001,0.332042 -0.47657,0.638682 -0.67969,0.919922 -0.0313,0.04689 -0.0723,0.107432 -0.12305,0.181641 -0.0508,0.07423 -0.10157,0.156259 -0.15234,0.246094 -0.0508,0.08985 -0.0996,0.183603 -0.14648,0.28125 -0.0469,0.09766 -0.0859,0.185556 -0.11719,0.263671 l 1.20703,0 c 0.43749,9e-6 0.93749,-0.03124 1.5,-0.09375 0.56249,-0.06249 1.11913,-0.136709 1.66992,-0.222656 0.55077,-0.08593 1.05663,-0.173818 1.51758,-0.263672 0.46092,-0.08983 0.80858,-0.158193 1.04297,-0.205078 0.0312,-0.101552 0.0605,-0.238271 0.0879,-0.410156 0.0273,-0.171865 0.0527,-0.363271 0.0762,-0.574219 0.0234,-0.210926 0.041,-0.435535 0.0527,-0.673828 0.0117,-0.238269 0.0176,-0.48241 0.0176,-0.732422 -1e-5,-0.203112 -0.008,-0.435534 -0.0234,-0.697265 -0.0156,-0.261706 -0.0625,-0.509753 -0.14063,-0.744141 -0.0781,-0.234361 -0.19728,-0.431627 -0.35742,-0.591797 -0.16017,-0.160142 -0.38478,-0.24022 -0.67383,-0.240234 z"
       style=""
       id="path3233" />
    <path
       d="m 186.0385,18.346264 c 0.0469,-0.203111 0.10546,-0.419907 0.17578,-0.650391 0.0703,-0.230453 0.16405,-0.441391 0.28125,-0.632812 0.11718,-0.191391 0.26952,-0.351547 0.45703,-0.480469 0.18749,-0.12889 0.42577,-0.193343 0.71484,-0.193359 0.27343,1.6e-5 0.51757,0.07619 0.73242,0.228515 0.21484,0.15236 0.4082,0.306656 0.58008,0.462891 0.20312,0.132828 0.39843,0.402359 0.58594,0.808594 0.18749,0.406264 0.38085,0.906263 0.58008,1.5 0.19921,0.593762 0.41405,1.265637 0.64453,2.015625 0.23046,0.75001 0.48436,1.535165 0.76172,2.355468 0.27733,0.820321 0.58788,1.658211 0.93164,2.513672 0.34374,0.855474 0.73436,1.689458 1.17187,2.501953 0.0703,0.125004 0.15233,0.271488 0.2461,0.439454 0.0937,0.167971 0.18944,0.326174 0.28711,0.474609 0.0976,0.14844 0.18748,0.27344 0.26953,0.375 0.082,0.101565 0.14256,0.152346 0.18164,0.152344 0.0234,2e-6 0.0508,-0.05859 0.082,-0.175782 0.0312,-0.117185 0.0664,-0.257809 0.10547,-0.421875 0.0391,-0.164059 0.0801,-0.332028 0.12305,-0.503906 0.0429,-0.171871 0.084,-0.312496 0.12304,-0.421875 0.14842,-0.359371 0.31053,-0.77148 0.48633,-1.236328 0.17577,-0.464838 0.37108,-1.027338 0.58594,-1.6875 0.21483,-0.660149 0.45115,-1.443351 0.70898,-2.349609 0.2578,-0.90624 0.54295,-1.980458 0.85547,-3.222657 0.0781,-0.304674 0.16209,-0.650377 0.25195,-1.037109 0.0898,-0.386705 0.17577,-0.781236 0.25782,-1.183594 0.082,-0.402329 0.15428,-0.794906 0.21679,-1.177734 0.0625,-0.382797 0.10545,-0.714827 0.12891,-0.996094 -2e-5,-0.04686 0.004,-0.128889 0.0117,-0.246094 0.008,-0.11717 0.0215,-0.249982 0.041,-0.398437 0.0195,-0.14842 0.0449,-0.302717 0.0762,-0.462891 0.0312,-0.160138 0.0722,-0.306622 0.12304,-0.439453 0.0508,-0.132794 0.11522,-0.242169 0.19336,-0.328125 0.0781,-0.08592 0.17186,-0.128887 0.28125,-0.128906 0.10936,1.9e-5 0.24412,0.01564 0.4043,0.04687 0.16014,0.03127 0.30662,0.07814 0.43945,0.140625 0.14842,0.203143 0.28318,0.447284 0.4043,0.732422 0.12107,0.285174 0.18162,0.669939 0.18164,1.154297 -2e-5,0.304703 -0.0313,0.669937 -0.0937,1.095703 -0.0625,0.425796 -0.1426,0.882827 -0.24023,1.371094 -0.0977,0.488294 -0.20706,0.990247 -0.32813,1.505859 -0.12111,0.515637 -0.24416,1.009777 -0.36914,1.482422 -0.12502,0.472667 -0.24416,0.90626 -0.35742,1.300781 -0.1133,0.394541 -0.20901,0.720712 -0.28711,0.978516 -0.14065,0.453133 -0.28713,0.91993 -0.43945,1.40039 -0.15237,0.480476 -0.32034,0.984382 -0.50391,1.511719 -0.18361,0.527349 -0.38283,1.085942 -0.59766,1.675781 -0.21486,0.589848 -0.45509,1.220706 -0.7207,1.892578 -0.1172,0.30469 -0.25197,0.609377 -0.4043,0.914063 -0.15236,0.304689 -0.32619,0.580079 -0.52148,0.826172 -0.19533,0.246094 -0.41603,0.445313 -0.66211,0.597656 -0.24611,0.152344 -0.5215,0.228516 -0.82617,0.228516 -0.1797,0 -0.36525,-0.02539 -0.55664,-0.07617 -0.19142,-0.05078 -0.35353,-0.154297 -0.48633,-0.310547 -0.64064,-0.742187 -1.21095,-1.583983 -1.71094,-2.525391 -0.50001,-0.941402 -0.94728,-1.925776 -1.3418,-2.953125 -0.39454,-1.027337 -0.74415,-2.066398 -1.04882,-3.117187 -0.3047,-1.050772 -0.58204,-2.05663 -0.83204,-3.017578 l -0.0703,-0.269532 c -0.0313,-0.109362 -0.0605,-0.22069 -0.0879,-0.333984 -0.0274,-0.113269 -0.0547,-0.216784 -0.082,-0.310547 -0.0273,-0.09374 -0.0586,-0.169909 -0.0937,-0.228515 -0.0352,-0.05858 -0.0762,-0.08788 -0.12305,-0.08789 -0.0469,1.3e-5 -0.10547,0.08595 -0.17578,0.257812 -0.0703,0.171888 -0.14063,0.365247 -0.21094,0.580079 -0.0703,0.214855 -0.13477,0.423839 -0.19335,0.626953 -0.0586,0.203136 -0.0957,0.332042 -0.11133,0.386718 -0.0547,0.203136 -0.13673,0.494152 -0.2461,0.873047 -0.10938,0.378917 -0.23243,0.80665 -0.36914,1.283203 -0.13672,0.476572 -0.28516,0.980477 -0.44531,1.511719 -0.16016,0.531257 -0.31446,1.044929 -0.46289,1.541016 -0.14844,0.496099 -0.28907,0.955083 -0.42188,1.376953 -0.13281,0.421879 -0.24219,0.761723 -0.32812,1.019531 -0.0703,0.203129 -0.15626,0.464847 -0.25781,0.785156 -0.10157,0.320315 -0.20313,0.642581 -0.30469,0.966797 -0.10157,0.324221 -0.19532,0.619142 -0.28125,0.884766 -0.0859,0.265626 -0.14063,0.441407 -0.16406,0.527344 -0.0938,0.296875 -0.23243,0.521484 -0.41602,0.673828 -0.1836,0.152343 -0.36914,0.228515 -0.55664,0.228515 -0.11719,0 -0.23438,-0.04102 -0.35156,-0.123046 -0.11719,-0.08203 -0.22071,-0.181641 -0.31055,-0.298829 -0.0898,-0.117187 -0.16406,-0.24414 -0.22265,-0.380859 -0.0586,-0.136718 -0.0879,-0.259765 -0.0879,-0.369141 0,-0.0625 0.0195,-0.162108 0.0586,-0.298828 0.0391,-0.136717 0.10156,-0.369139 0.1875,-0.697265 l 0.30469,-1.207032 z"
       style=""
       id="path3235" />
    <path
       d="m 213.23771,26.561108 c 0.14063,-0.585931 0.34375,-1.18554 0.60938,-1.798828 0.26562,-0.613273 0.57812,-1.228507 0.9375,-1.845704 0.35937,-0.617177 0.75976,-1.224598 1.20117,-1.822265 0.4414,-0.597644 0.91015,-1.175769 1.40625,-1.734375 0.49609,-0.55858 1.00781,-1.085923 1.53516,-1.582031 0.52733,-0.496079 1.05663,-0.951157 1.58789,-1.365235 0.24999,-0.171859 0.48046,-0.28514 0.6914,-0.339844 0.21093,-0.05467 0.43359,-0.08201 0.66797,-0.08203 0.24999,1.7e-5 0.47265,0.03713 0.66797,0.111328 0.1953,0.07424 0.39061,0.209001 0.58594,0.404297 0.0625,0.07033 0.12889,0.132829 0.19922,0.1875 0.0703,0.0547 0.1367,0.08205 0.19922,0.08203 0.0156,1.6e-5 0.0351,-0.01756 0.0586,-0.05273 0.0234,-0.03514 0.0488,-0.07616 0.0762,-0.123047 0.0273,-0.04686 0.0605,-0.09569 0.0996,-0.146484 0.0391,-0.05077 0.0859,-0.08788 0.14063,-0.111328 0.1328,-0.06248 0.291,-0.1035 0.47461,-0.123047 0.18358,-0.01952 0.36912,-0.02928 0.55664,-0.0293 0.35155,1.6e-5 0.69139,0.06447 1.01953,0.193359 0.32811,0.128923 0.61717,0.310563 0.86719,0.544922 0.59373,0.554703 1.0449,1.218765 1.35351,1.992188 0.30858,0.77345 0.46287,1.60548 0.46289,2.496093 -2e-5,0.796886 -0.1172,1.65626 -0.35156,2.578125 -0.20314,0.812508 -0.49416,1.60157 -0.87305,2.367188 -0.37892,0.76563 -0.82423,1.48438 -1.33593,2.15625 -0.51174,0.671878 -1.08205,1.285159 -1.71094,1.839844 -0.62892,0.554689 -1.29884,1.031251 -2.00977,1.429687 -0.71095,0.398438 -1.45313,0.708985 -2.22656,0.931641 -0.77345,0.222656 -1.5586,0.333984 -2.35547,0.333984 -0.74219,0 -1.40821,-0.113282 -1.99805,-0.339844 -0.58984,-0.226562 -1.08984,-0.546874 -1.5,-0.960937 -0.41016,-0.414061 -0.72266,-0.906248 -0.9375,-1.476563 -0.21484,-0.570309 -0.32226,-1.203121 -0.32226,-1.898437 0,-0.296871 0.0176,-0.595698 0.0527,-0.896484 0.0352,-0.300776 0.0918,-0.607417 0.16992,-0.919922 z m 1.98047,0.785156 c -0.0859,0.39063 -0.12891,0.742192 -0.1289,1.054687 -1e-5,0.437504 0.0762,0.822269 0.22851,1.154297 0.15234,0.332034 0.36719,0.609378 0.64453,0.832032 0.27734,0.222658 0.60937,0.390626 0.9961,0.503906 0.38671,0.113283 0.81054,0.169923 1.27148,0.169922 0.54687,10e-7 1.10351,-0.08594 1.66992,-0.257813 0.5664,-0.171873 1.11913,-0.421873 1.65821,-0.75 0.53905,-0.328122 1.05858,-0.722653 1.55859,-1.183594 0.49999,-0.460933 0.96288,-0.98437 1.38867,-1.570312 0.42577,-0.585932 0.80468,-1.22265 1.13672,-1.910156 0.33202,-0.687493 0.5996,-1.417961 0.80274,-2.191407 0.0781,-0.28124 0.13475,-0.574208 0.16992,-0.878906 0.0351,-0.304677 0.0527,-0.597645 0.0527,-0.878906 -10e-6,-0.453114 -0.0508,-0.886707 -0.15234,-1.300781 -0.10158,-0.41405 -0.26955,-0.781237 -0.50391,-1.101563 -0.23439,-0.320299 -0.54298,-0.576158 -0.92578,-0.767578 -0.38283,-0.191392 -0.85158,-0.287095 -1.40625,-0.287109 -0.0781,1.4e-5 -0.13868,0.03322 -0.18164,0.09961 -0.043,0.06642 -0.0879,0.150405 -0.13477,0.251953 -0.0391,0.08595 -0.084,0.175795 -0.13476,0.269531 -0.0508,0.09376 -0.1172,0.177749 -0.19922,0.251954 -0.082,0.07423 -0.18361,0.134779 -0.30469,0.18164 -0.1211,0.04689 -0.27149,0.07033 -0.45117,0.07031 -0.13282,1.3e-5 -0.25001,-0.02928 -0.35156,-0.08789 -0.10158,-0.05858 -0.20314,-0.138658 -0.30469,-0.240234 -0.0469,-0.04686 -0.086,-0.08397 -0.11719,-0.111328 -0.0313,-0.02733 -0.0664,-0.041 -0.10547,-0.04102 -0.0703,1.4e-5 -0.16212,0.03126 -0.27539,0.09375 -0.11329,0.06251 -0.23047,0.136732 -0.35156,0.222656 -0.1211,0.08595 -0.23829,0.175795 -0.35156,0.269531 -0.11329,0.09376 -0.20118,0.175795 -0.26367,0.246094 -0.53126,0.546888 -1.06056,1.14259 -1.58789,1.78711 -0.52735,0.644541 -1.01368,1.310556 -1.45899,1.998046 -0.44532,0.687509 -0.83399,1.380868 -1.16601,2.080079 -0.33204,0.699225 -0.57227,1.373052 -0.72071,2.021484 z"
       style=""
       id="path3237" />
    <path
       d="m 229.96037,31.97517 c 0.0312,-0.140624 0.0762,-0.273437 0.13477,-0.398437 0.0586,-0.124999 0.12304,-0.265624 0.19336,-0.421875 0.0703,-0.156249 0.14452,-0.341796 0.22265,-0.556641 0.0781,-0.214842 0.15625,-0.482419 0.23438,-0.802734 l 0.45703,-1.875 c 0.10937,-0.45312 0.22265,-0.91601 0.33984,-1.388672 0.11719,-0.47265 0.2539,-1.005853 0.41016,-1.59961 0.12499,-0.476554 0.27538,-0.9746 0.45117,-1.49414 0.17578,-0.519522 0.35937,-1.056631 0.55078,-1.611328 0.1914,-0.554677 0.38476,-1.124989 0.58008,-1.710938 0.19531,-0.585924 0.37109,-1.191393 0.52734,-1.816406 0.008,-0.02342 0.0117,-0.05467 0.0117,-0.09375 0,-0.06249 -0.0195,-0.101548 -0.0586,-0.117188 -0.0391,-0.01561 -0.0899,-0.02342 -0.15235,-0.02344 -0.19531,1.4e-5 -0.35742,-0.02928 -0.48632,-0.08789 -0.12892,-0.05858 -0.23048,-0.134751 -0.30469,-0.228515 -0.0742,-0.09374 -0.12696,-0.201157 -0.1582,-0.322266 -0.0313,-0.121079 -0.0469,-0.248032 -0.0469,-0.380859 0,-0.343735 0.041,-0.619125 0.12305,-0.826172 0.082,-0.207015 0.18749,-0.367171 0.3164,-0.480469 0.1289,-0.113264 0.26953,-0.195296 0.42188,-0.246094 0.15234,-0.05076 0.30077,-0.09178 0.44531,-0.123047 0.14453,-0.03123 0.27148,-0.06444 0.38086,-0.09961 0.10937,-0.03514 0.18749,-0.09959 0.23438,-0.193359 0.0781,-0.164045 0.15038,-0.337873 0.21679,-0.521485 0.0664,-0.183575 0.15039,-0.353497 0.25196,-0.509765 0.10155,-0.156232 0.22655,-0.285138 0.375,-0.386719 0.14843,-0.101544 0.34374,-0.152325 0.58593,-0.152344 0.17187,1.9e-5 0.32421,0.04689 0.45703,0.140625 0.13281,0.09377 0.24804,0.210956 0.34571,0.351563 0.0976,0.140643 0.18163,0.291033 0.25195,0.451172 0.0703,0.160174 0.1328,0.306658 0.1875,0.439453 0.80468,0.02345 1.50194,0.07033 2.0918,0.140625 0.58983,0.07033 1.03319,0.132829 1.33008,0.1875 0.58592,0.109392 1.17381,0.273454 1.76367,0.492187 0.58983,0.218767 1.12108,0.50197 1.59375,0.84961 0.47264,0.347671 0.85936,0.757827 1.16015,1.230468 0.30077,0.472671 0.45116,1.013686 0.45118,1.623047 -2e-5,0.312513 -0.0352,0.636731 -0.10547,0.972656 l -0.082,0.410157 c -0.0625,0.328136 -0.19338,0.632823 -0.39258,0.914062 -0.19924,0.281261 -0.42385,0.535167 -0.67383,0.761719 -0.69533,0.640634 -1.45705,1.177743 -2.28516,1.611328 -0.82814,0.433602 -1.69142,0.798836 -2.58984,1.095703 -0.89845,0.296882 -1.81642,0.546882 -2.75391,0.75 -0.9375,0.203132 -1.86329,0.394538 -2.77734,0.574219 l -0.32813,0.04687 c -0.17969,0.02344 -0.28516,0.08985 -0.3164,0.199219 -0.15626,0.539067 -0.2793,1.011723 -0.36914,1.417968 -0.0898,0.406254 -0.17384,0.794926 -0.25196,1.166016 -0.0781,0.371097 -0.15625,0.74219 -0.23437,1.113281 -0.0781,0.371096 -0.17579,0.783205 -0.29297,1.236328 -0.0391,0.148439 -0.10938,0.32422 -0.21094,0.527344 -0.10156,0.203125 -0.22266,0.394531 -0.36328,0.574219 -0.14063,0.179687 -0.30274,0.333984 -0.48633,0.462891 -0.18359,0.128905 -0.37695,0.193358 -0.58007,0.193359 -0.14063,-10e-7 -0.26173,-0.03906 -0.36329,-0.117188 -0.10156,-0.07813 -0.18554,-0.177735 -0.25195,-0.298828 -0.0664,-0.121094 -0.11719,-0.251953 -0.15234,-0.392578 -0.0352,-0.140625 -0.0527,-0.273437 -0.0527,-0.398437 0,-0.04687 0,-0.0918 0,-0.134766 0,-0.04297 0.008,-0.08398 0.0234,-0.123047 z m 4.65234,-8.660156 c -0.0156,0.0547 -0.0371,0.123056 -0.0644,0.205078 -0.0274,0.08204 -0.0527,0.167978 -0.0762,0.257813 -0.0234,0.08985 -0.043,0.171883 -0.0586,0.246093 -0.0156,0.07423 -0.0234,0.126962 -0.0234,0.158203 -1e-5,0.03907 0.006,0.07227 0.0176,0.09961 0.0117,0.02735 0.0371,0.04102 0.0762,0.04101 0.0234,9e-6 0.0976,-0.0098 0.22265,-0.0293 0.125,-0.01952 0.27539,-0.04491 0.45118,-0.07617 0.17577,-0.03124 0.36522,-0.0664 0.56836,-0.105469 0.20311,-0.03905 0.39843,-0.07812 0.58593,-0.117188 0.50781,-0.109366 1.05078,-0.248038 1.62891,-0.416015 0.57811,-0.16796 1.15429,-0.357413 1.72852,-0.56836 0.5742,-0.210927 1.12303,-0.43749 1.64648,-0.679687 0.52342,-0.242177 0.98827,-0.499989 1.39453,-0.773438 0.42967,-0.289051 0.77342,-0.578113 1.03125,-0.867187 0.2578,-0.28905 0.3867,-0.597644 0.38672,-0.925781 -2e-5,-0.1953 -0.0254,-0.369128 -0.0762,-0.521485 -0.0508,-0.15233 -0.10744,-0.291002 -0.16992,-0.416015 -0.23439,-0.382799 -0.52736,-0.68358 -0.87891,-0.902344 -0.35158,-0.218735 -0.73439,-0.382798 -1.14844,-0.492188 -0.41407,-0.109359 -0.84767,-0.179672 -1.30078,-0.210937 -0.45314,-0.03124 -0.89845,-0.04686 -1.33594,-0.04687 -0.1172,1.5e-5 -0.29493,0.0078 -0.5332,0.02344 -0.23829,0.01564 -0.48829,0.03517 -0.75,0.05859 -0.26173,0.02345 -0.50392,0.05275 -0.72656,0.08789 -0.22267,0.03517 -0.37306,0.07619 -0.45117,0.123047 -0.0391,0.02345 -0.0723,0.06251 -0.0996,0.117187 -0.0274,0.0547 -0.0488,0.101577 -0.0645,0.140625 -0.0625,0.156265 -0.14844,0.373061 -0.25781,0.650391 -0.10938,0.277357 -0.22657,0.587904 -0.35156,0.93164 -0.12501,0.343763 -0.25587,0.707044 -0.39258,1.089844 -0.13673,0.382824 -0.26759,0.755871 -0.39258,1.119141 -0.12501,0.363292 -0.24024,0.703135 -0.3457,1.019531 -0.10548,0.316416 -0.18555,0.576181 -0.24024,0.779297 z"
       style=""
       id="path3239" />
    <path
       d="m 245.75725,31.97517 c 0.0312,-0.140624 0.0762,-0.273437 0.13476,-0.398437 0.0586,-0.124999 0.12305,-0.265624 0.19336,-0.421875 0.0703,-0.156249 0.14453,-0.341796 0.22266,-0.556641 0.0781,-0.214842 0.15624,-0.482419 0.23437,-0.802734 l 0.45703,-1.875 c 0.10937,-0.45312 0.22266,-0.91601 0.33985,-1.388672 0.11718,-0.47265 0.2539,-1.005853 0.41015,-1.59961 0.125,-0.476554 0.27539,-0.9746 0.45118,-1.49414 0.17577,-0.519522 0.35937,-1.056631 0.55078,-1.611328 0.1914,-0.554677 0.38476,-1.124989 0.58007,-1.710938 0.19531,-0.585924 0.37109,-1.191393 0.52735,-1.816406 0.008,-0.02342 0.0117,-0.05467 0.0117,-0.09375 -1e-5,-0.06249 -0.0195,-0.101548 -0.0586,-0.117188 -0.0391,-0.01561 -0.0898,-0.02342 -0.15234,-0.02344 -0.19532,1.4e-5 -0.35743,-0.02928 -0.48633,-0.08789 -0.12891,-0.05858 -0.23047,-0.134751 -0.30469,-0.228515 -0.0742,-0.09374 -0.12695,-0.201157 -0.1582,-0.322266 -0.0312,-0.121079 -0.0469,-0.248032 -0.0469,-0.380859 -1e-5,-0.343735 0.041,-0.619125 0.12304,-0.826172 0.082,-0.207015 0.1875,-0.367171 0.31641,-0.480469 0.1289,-0.113264 0.26952,-0.195296 0.42187,-0.246094 0.15234,-0.05076 0.30078,-0.09178 0.44532,-0.123047 0.14452,-0.03123 0.27147,-0.06444 0.38086,-0.09961 0.10936,-0.03514 0.18749,-0.09959 0.23437,-0.193359 0.0781,-0.164045 0.15038,-0.337873 0.2168,-0.521485 0.0664,-0.183575 0.15038,-0.353497 0.25195,-0.509765 0.10156,-0.156232 0.22656,-0.285138 0.375,-0.386719 0.14843,-0.101544 0.34374,-0.152325 0.58594,-0.152344 0.17186,1.9e-5 0.32421,0.04689 0.45703,0.140625 0.1328,0.09377 0.24804,0.210956 0.3457,0.351563 0.0976,0.140643 0.18163,0.291033 0.25196,0.451172 0.0703,0.160174 0.1328,0.306658 0.1875,0.439453 0.80467,0.02345 1.50194,0.07033 2.09179,0.140625 0.58983,0.07033 1.03319,0.132829 1.33008,0.1875 0.58592,0.109392 1.17381,0.273454 1.76367,0.492187 0.58983,0.218767 1.12108,0.50197 1.59375,0.84961 0.47264,0.347671 0.85936,0.757827 1.16016,1.230468 0.30076,0.472671 0.45115,1.013686 0.45117,1.623047 -2e-5,0.312513 -0.0352,0.636731 -0.10547,0.972656 l -0.082,0.410157 c -0.0625,0.328136 -0.19338,0.632823 -0.39258,0.914062 -0.19923,0.281261 -0.42384,0.535167 -0.67383,0.761719 -0.69532,0.640634 -1.45704,1.177743 -2.28515,1.611328 -0.82814,0.433602 -1.69142,0.798836 -2.58985,1.095703 -0.89844,0.296882 -1.81641,0.546882 -2.7539,0.75 -0.93751,0.203132 -1.86329,0.394538 -2.77735,0.574219 l -0.32812,0.04687 c -0.17969,0.02344 -0.28516,0.08985 -0.31641,0.199219 -0.15625,0.539067 -0.2793,1.011723 -0.36914,1.417968 -0.0899,0.406254 -0.17383,0.794926 -0.25195,1.166016 -0.0781,0.371097 -0.15626,0.74219 -0.23438,1.113281 -0.0781,0.371096 -0.17578,0.783205 -0.29296,1.236328 -0.0391,0.148439 -0.10938,0.32422 -0.21094,0.527344 -0.10157,0.203125 -0.22266,0.394531 -0.36328,0.574219 -0.14063,0.179687 -0.30274,0.333984 -0.48633,0.462891 -0.1836,0.128905 -0.37696,0.193358 -0.58008,0.193359 -0.14063,-10e-7 -0.26172,-0.03906 -0.36328,-0.117188 -0.10157,-0.07813 -0.18555,-0.177735 -0.25195,-0.298828 -0.0664,-0.121094 -0.11719,-0.251953 -0.15235,-0.392578 -0.0352,-0.140625 -0.0527,-0.273437 -0.0527,-0.398437 0,-0.04687 0,-0.0918 0,-0.134766 0,-0.04297 0.008,-0.08398 0.0234,-0.123047 z m 4.65234,-8.660156 c -0.0156,0.0547 -0.0371,0.123056 -0.0645,0.205078 -0.0273,0.08204 -0.0527,0.167978 -0.0762,0.257813 -0.0234,0.08985 -0.043,0.171883 -0.0586,0.246093 -0.0156,0.07423 -0.0234,0.126962 -0.0234,0.158203 0,0.03907 0.006,0.07227 0.0176,0.09961 0.0117,0.02735 0.0371,0.04102 0.0762,0.04101 0.0234,9e-6 0.0977,-0.0098 0.22266,-0.0293 0.12499,-0.01952 0.27538,-0.04491 0.45117,-0.07617 0.17578,-0.03124 0.36523,-0.0664 0.56836,-0.105469 0.20312,-0.03905 0.39843,-0.07812 0.58594,-0.117188 0.5078,-0.109366 1.05077,-0.248038 1.6289,-0.416015 0.57812,-0.16796 1.15429,-0.357413 1.72852,-0.56836 0.57421,-0.210927 1.12303,-0.43749 1.64648,-0.679687 0.52343,-0.242177 0.98827,-0.499989 1.39454,-0.773438 0.42967,-0.289051 0.77342,-0.578113 1.03125,-0.867187 0.25779,-0.28905 0.3867,-0.597644 0.38671,-0.925781 -10e-6,-0.1953 -0.0254,-0.369128 -0.0762,-0.521485 -0.0508,-0.15233 -0.10744,-0.291002 -0.16992,-0.416015 -0.23439,-0.382799 -0.52736,-0.68358 -0.87891,-0.902344 -0.35157,-0.218735 -0.73438,-0.382798 -1.14843,-0.492188 -0.41408,-0.109359 -0.84767,-0.179672 -1.30078,-0.210937 -0.45314,-0.03124 -0.89845,-0.04686 -1.33594,-0.04687 -0.1172,1.5e-5 -0.29493,0.0078 -0.5332,0.02344 -0.2383,0.01564 -0.4883,0.03517 -0.75,0.05859 -0.26173,0.02345 -0.50392,0.05275 -0.72657,0.08789 -0.22266,0.03517 -0.37305,0.07619 -0.45117,0.123047 -0.0391,0.02345 -0.0723,0.06251 -0.0996,0.117187 -0.0274,0.0547 -0.0488,0.101577 -0.0644,0.140625 -0.0625,0.156265 -0.14845,0.373061 -0.25781,0.650391 -0.10939,0.277357 -0.22657,0.587904 -0.35157,0.93164 -0.125,0.343763 -0.25586,0.707044 -0.39257,1.089844 -0.13673,0.382824 -0.26759,0.755871 -0.39258,1.119141 -0.12501,0.363292 -0.24024,0.703135 -0.34571,1.019531 -0.10547,0.316416 -0.18555,0.576181 -0.24023,0.779297 z"
       style=""
       id="path3241" />
    <path
       d="m 261.94084,26.561108 c 0.14062,-0.585931 0.34375,-1.18554 0.60937,-1.798828 0.26563,-0.613273 0.57813,-1.228507 0.9375,-1.845704 0.35938,-0.617177 0.75977,-1.224598 1.20118,-1.822265 0.4414,-0.597644 0.91015,-1.175769 1.40625,-1.734375 0.49608,-0.55858 1.0078,-1.085923 1.53515,-1.582031 0.52734,-0.496079 1.05663,-0.951157 1.58789,-1.365235 0.24999,-0.171859 0.48046,-0.28514 0.69141,-0.339844 0.21093,-0.05467 0.43358,-0.08201 0.66797,-0.08203 0.24999,1.7e-5 0.47264,0.03713 0.66797,0.111328 0.1953,0.07424 0.39061,0.209001 0.58593,0.404297 0.0625,0.07033 0.1289,0.132829 0.19922,0.1875 0.0703,0.0547 0.13671,0.08205 0.19922,0.08203 0.0156,1.6e-5 0.0351,-0.01756 0.0586,-0.05273 0.0234,-0.03514 0.0488,-0.07616 0.0762,-0.123047 0.0273,-0.04686 0.0605,-0.09569 0.0996,-0.146484 0.0391,-0.05077 0.0859,-0.08788 0.14062,-0.111328 0.1328,-0.06248 0.291,-0.1035 0.47461,-0.123047 0.18358,-0.01952 0.36913,-0.02928 0.55664,-0.0293 0.35155,1.6e-5 0.69139,0.06447 1.01953,0.193359 0.32811,0.128923 0.61718,0.310563 0.86719,0.544922 0.59373,0.554703 1.04491,1.218765 1.35352,1.992188 0.30857,0.77345 0.46287,1.60548 0.46289,2.496093 -2e-5,0.796886 -0.11721,1.65626 -0.35157,2.578125 -0.20314,0.812508 -0.49415,1.60157 -0.87304,2.367188 -0.37892,0.76563 -0.82424,1.48438 -1.33594,2.15625 -0.51173,0.671878 -1.08205,1.285159 -1.71094,1.839844 -0.62892,0.554689 -1.29884,1.031251 -2.00976,1.429687 -0.71095,0.398438 -1.45314,0.708985 -2.22657,0.931641 -0.77344,0.222656 -1.5586,0.333984 -2.35546,0.333984 -0.7422,0 -1.40821,-0.113282 -1.99805,-0.339844 -0.58985,-0.226562 -1.08985,-0.546874 -1.5,-0.960937 -0.41016,-0.414061 -0.72266,-0.906248 -0.9375,-1.476563 -0.21485,-0.570309 -0.32227,-1.203121 -0.32227,-1.898437 0,-0.296871 0.0176,-0.595698 0.0527,-0.896484 0.0351,-0.300776 0.0918,-0.607417 0.16992,-0.919922 z m 1.98047,0.785156 c -0.0859,0.39063 -0.12891,0.742192 -0.12891,1.054687 0,0.437504 0.0762,0.822269 0.22852,1.154297 0.15234,0.332034 0.36718,0.609378 0.64453,0.832032 0.27734,0.222658 0.60937,0.390626 0.99609,0.503906 0.38671,0.113283 0.81054,0.169923 1.27149,0.169922 0.54686,10e-7 1.1035,-0.08594 1.66992,-0.257813 0.5664,-0.171873 1.11913,-0.421873 1.6582,-0.75 0.53905,-0.328122 1.05858,-0.722653 1.5586,-1.183594 0.49998,-0.460933 0.96287,-0.98437 1.38867,-1.570312 0.42576,-0.585932 0.80467,-1.22265 1.13672,-1.910156 0.33201,-0.687493 0.59959,-1.417961 0.80273,-2.191407 0.0781,-0.28124 0.13475,-0.574208 0.16992,-0.878906 0.0351,-0.304677 0.0527,-0.597645 0.0527,-0.878906 -2e-5,-0.453114 -0.0508,-0.886707 -0.15235,-1.300781 -0.10157,-0.41405 -0.26954,-0.781237 -0.5039,-1.101563 -0.23439,-0.320299 -0.54299,-0.576158 -0.92578,-0.767578 -0.38283,-0.191392 -0.85158,-0.287095 -1.40625,-0.287109 -0.0781,1.4e-5 -0.13869,0.03322 -0.18164,0.09961 -0.043,0.06642 -0.0879,0.150405 -0.13477,0.251953 -0.0391,0.08595 -0.084,0.175795 -0.13477,0.269531 -0.0508,0.09376 -0.1172,0.177749 -0.19921,0.251954 -0.082,0.07423 -0.18361,0.134779 -0.30469,0.18164 -0.12111,0.04689 -0.2715,0.07033 -0.45117,0.07031 -0.13283,1.3e-5 -0.25002,-0.02928 -0.35157,-0.08789 -0.10157,-0.05858 -0.20313,-0.138658 -0.30468,-0.240234 -0.0469,-0.04686 -0.086,-0.08397 -0.11719,-0.111328 -0.0313,-0.02733 -0.0664,-0.041 -0.10547,-0.04102 -0.0703,1.4e-5 -0.16212,0.03126 -0.27539,0.09375 -0.11329,0.06251 -0.23048,0.136732 -0.35156,0.222656 -0.12111,0.08595 -0.23829,0.175795 -0.35157,0.269531 -0.11329,0.09376 -0.20118,0.175795 -0.26367,0.246094 -0.53126,0.546888 -1.06055,1.14259 -1.58789,1.78711 -0.52735,0.644541 -1.01368,1.310556 -1.45898,1.998046 -0.44532,0.687509 -0.83399,1.380868 -1.16602,2.080079 -0.33203,0.699225 -0.57227,1.373052 -0.7207,2.021484 z"
       style=""
       id="path3243" />
    <path
       d="m 279.15568,31.049389 c 0.44531,-1.789059 0.90625,-3.556636 1.38282,-5.302734 0.47655,-1.746086 0.93749,-3.513662 1.38281,-5.302735 0.0547,-0.234363 0.10937,-0.457019 0.16406,-0.667969 0.0547,-0.210924 0.10546,-0.421861 0.15234,-0.632812 0.0469,-0.210924 0.084,-0.423814 0.11133,-0.638672 0.0273,-0.21483 0.041,-0.439439 0.041,-0.673828 -1e-5,-0.179673 -0.0117,-0.343735 -0.0352,-0.492188 -0.0234,-0.148422 -0.0352,-0.31639 -0.0351,-0.503906 -10e-6,-0.179671 0.0234,-0.371078 0.0703,-0.574219 0.11718,-0.476545 0.2832,-0.832014 0.49805,-1.066406 0.21483,-0.234357 0.541,-0.351545 0.97851,-0.351562 0.17968,1.7e-5 0.35351,0.0176 0.52149,0.05273 0.16796,0.03517 0.33397,0.07619 0.49804,0.123047 0.17968,0.05471 0.36523,0.10158 0.55664,0.140625 0.1914,0.03908 0.38476,0.05861 0.58008,0.05859 0.15624,1.7e-5 0.30858,-0.0078 0.45703,-0.02344 0.14843,-0.01561 0.31835,-0.03123 0.50977,-0.04687 0.19139,-0.01561 0.41796,-0.03123 0.67969,-0.04687 0.2617,-0.01561 0.59178,-0.02342 0.99023,-0.02344 0.21874,1.7e-5 0.47655,0.0078 0.77344,0.02344 0.29686,0.01564 0.60545,0.0508 0.92578,0.105469 0.3203,0.05471 0.64452,0.134783 0.97265,0.240234 0.32811,0.105486 0.63475,0.248064 0.91993,0.427735 0.28514,0.179704 0.53709,0.400407 0.75586,0.662109 0.21873,0.261734 0.38279,0.576187 0.49218,0.943359 0.0547,0.179703 0.0918,0.343765 0.11133,0.492188 0.0195,0.148452 0.0293,0.292983 0.0293,0.433594 -2e-5,0.476576 -0.12111,0.945325 -0.36328,1.40625 -0.27346,0.523449 -0.6426,1.013683 -1.10742,1.470703 -0.46486,0.457042 -1.00588,0.888682 -1.62305,1.294922 -0.2422,0.164072 -0.52345,0.333994 -0.84375,0.509765 -0.32033,0.175791 -0.63478,0.343759 -0.94336,0.503907 -0.30861,0.160165 -0.58595,0.306649 -0.83203,0.439453 -0.24611,0.13282 -0.41603,0.234383 -0.50977,0.304687 0.27343,0.132821 0.54687,0.271492 0.82031,0.416016 0.27343,0.144539 0.55273,0.318367 0.8379,0.521484 0.28514,0.203132 0.5742,0.449226 0.86718,0.738281 0.29296,0.289069 0.59764,0.642584 0.91407,1.060547 0.31639,0.417974 0.64451,0.912114 0.98437,1.482422 0.33983,0.570316 0.69334,1.24219 1.06055,2.015625 0.0937,0.187502 0.14061,0.38672 0.14062,0.597656 -10e-6,0.164064 -0.0332,0.328126 -0.0996,0.492188 -0.0664,0.164063 -0.15626,0.3125 -0.26953,0.445312 -0.1133,0.132813 -0.24806,0.240235 -0.4043,0.322266 -0.15626,0.08203 -0.32423,0.123047 -0.5039,0.123047 -0.27345,0 -0.50002,-0.101563 -0.67969,-0.304688 -0.1797,-0.203124 -0.35158,-0.468749 -0.51562,-0.796875 -0.16408,-0.328123 -0.334,-0.699217 -0.50977,-1.113281 -0.17579,-0.41406 -0.39259,-0.832028 -0.65039,-1.253906 -0.28126,-0.453121 -0.59181,-0.882808 -0.93164,-1.289063 -0.33986,-0.406244 -0.70118,-0.757807 -1.08399,-1.054687 -0.38282,-0.296869 -0.77735,-0.533197 -1.18359,-0.708984 -0.40626,-0.175775 -0.81251,-0.263666 -1.21875,-0.263672 l -0.17578,0 c -0.2422,6e-6 -0.45899,0.02149 -0.65039,0.06445 -0.19141,0.04297 -0.37696,0.08009 -0.55664,0.111328 -0.2422,-0.08593 -0.41798,-0.226556 -0.52735,-0.421875 -0.10938,-0.195305 -0.16406,-0.414055 -0.16406,-0.65625 l 0,-0.164063 -0.9375,3.691407 c -0.0312,0.117191 -0.0742,0.277347 -0.1289,0.480468 -0.0547,0.203129 -0.1172,0.425785 -0.1875,0.667969 -0.0703,0.24219 -0.14259,0.496096 -0.2168,0.761719 -0.0742,0.265627 -0.14454,0.515627 -0.21094,0.75 -0.0664,0.234376 -0.125,0.445313 -0.17578,0.632812 -0.0508,0.187501 -0.0879,0.328126 -0.11133,0.421875 -0.10938,0.195313 -0.24805,0.34961 -0.41601,0.462891 -0.16798,0.113281 -0.34962,0.169922 -0.54493,0.169922 -0.34375,0 -0.58203,-0.103516 -0.71484,-0.310547 -0.13281,-0.207031 -0.19922,-0.447265 -0.19922,-0.720703 0,-0.109374 0.008,-0.220702 0.0234,-0.333984 0.0156,-0.11328 0.0352,-0.220702 0.0586,-0.322266 z m 5.75391,-13.21875 c -0.0469,0.156264 -0.11524,0.382827 -0.20508,0.679687 -0.0899,0.296889 -0.18946,0.632826 -0.29883,1.007813 -0.10938,0.375013 -0.22657,0.777356 -0.35156,1.207031 -0.12501,0.429699 -0.25001,0.861339 -0.375,1.294922 -0.12501,0.433604 -0.2461,0.853525 -0.36328,1.259766 -0.11719,0.406258 -0.22266,0.769539 -0.31641,1.089843 0.15625,-0.203116 0.39062,-0.384757 0.70313,-0.544921 0.31249,-0.160148 0.66405,-0.310538 1.05469,-0.451172 0.30467,-0.109366 0.67967,-0.263663 1.125,-0.462891 0.4453,-0.199209 0.91209,-0.427724 1.40039,-0.685547 0.48827,-0.257802 0.97655,-0.537098 1.46484,-0.83789 0.48827,-0.30077 0.92577,-0.609364 1.3125,-0.925782 0.38671,-0.316394 0.70116,-0.6328 0.94336,-0.949218 0.24217,-0.316393 0.36327,-0.623034 0.36328,-0.919922 -1e-5,-0.289049 -0.10158,-0.517564 -0.30469,-0.685547 -0.20314,-0.167954 -0.45704,-0.294907 -0.76172,-0.38086 -0.3047,-0.08592 -0.63868,-0.142563 -1.00195,-0.169921 -0.36329,-0.02733 -0.70118,-0.041 -1.01367,-0.04102 -0.56251,1.5e-5 -1.12501,0.03517 -1.6875,0.105469 -0.56251,0.07033 -1.12501,0.207046 -1.6875,0.410156 z"
       style=""
       id="path3245" />
    <path
       d="m 300.64787,30.639233 c 0.29687,-1.296872 0.63085,-2.605465 1.00195,-3.925782 0.37109,-1.320305 0.73242,-2.628897 1.08399,-3.925781 0.14843,-0.539052 0.27929,-1.029286 0.39258,-1.470703 0.11327,-0.441395 0.20897,-0.841785 0.28711,-1.201172 0.0781,-0.359362 0.1367,-0.685534 0.17578,-0.978515 0.0391,-0.292956 0.0586,-0.56444 0.0586,-0.814454 -1e-5,-0.04686 -1e-5,-0.0996 0,-0.158203 -1e-5,-0.05858 -0.004,-0.130845 -0.0117,-0.216797 -0.0781,1.5e-5 -0.25196,0.04298 -0.52148,0.128907 -0.26954,0.08595 -0.58595,0.199233 -0.94922,0.339843 -0.36329,0.140639 -0.7461,0.298842 -1.14844,0.47461 -0.40235,0.175794 -0.7754,0.353529 -1.11914,0.533203 -0.27344,0.140638 -0.50196,0.257825 -0.68555,0.351562 -0.1836,0.09376 -0.3418,0.166029 -0.47461,0.216797 -0.13281,0.05079 -0.25391,0.08595 -0.36328,0.105469 -0.10938,0.01954 -0.22266,0.02931 -0.33984,0.0293 -0.24219,1.2e-5 -0.45118,-0.09374 -0.62695,-0.28125 -0.17579,-0.187487 -0.26368,-0.429675 -0.26368,-0.726563 0,-0.171861 0.0176,-0.322252 0.0527,-0.451171 0.0351,-0.128893 0.0898,-0.244127 0.16406,-0.345704 0.0742,-0.101548 0.17383,-0.197251 0.29883,-0.287109 0.125,-0.08983 0.27734,-0.181626 0.45703,-0.275391 1.97656,-1.031234 3.97655,-1.787092 6,-2.267578 2.02343,-0.480451 4.05467,-0.720685 6.09375,-0.720703 0.16405,1.8e-5 0.35936,0.0039 0.58594,0.01172 0.22654,0.0078 0.45896,0.0215 0.69726,0.04102 0.23827,0.01955 0.47069,0.04689 0.69727,0.08203 0.22654,0.03517 0.42576,0.07619 0.59766,0.123047 0.17966,0.0547 0.33591,0.167986 0.46875,0.339843 0.13279,0.171892 0.19919,0.355486 0.19921,0.550782 -2e-5,0.156266 -0.0137,0.30861 -0.041,0.457031 -0.0274,0.148453 -0.0762,0.27736 -0.14649,0.386719 -0.0703,0.10939 -0.16212,0.197281 -0.27539,0.263672 -0.1133,0.06642 -0.25197,0.09962 -0.41601,0.09961 -0.28127,-0.03124 -0.60354,-0.0703 -0.9668,-0.117188 -0.3633,-0.04686 -0.72853,-0.0703 -1.0957,-0.07031 -0.73439,1.5e-5 -1.46681,0.01759 -2.19727,0.05273 -0.73048,0.03517 -1.47853,0.138688 -2.24414,0.310547 -0.0391,0.01564 -0.0645,0.05666 -0.0762,0.123047 -0.0117,0.06642 -0.0215,0.150406 -0.0293,0.251953 -0.0235,0.42189 -0.0586,0.792983 -0.10547,1.113281 -0.0469,0.320326 -0.11134,0.640638 -0.19335,0.960938 -0.082,0.320325 -0.18166,0.666028 -0.29883,1.037109 -0.1172,0.371105 -0.25392,0.816417 -0.41016,1.335938 -0.15626,0.519541 -0.3379,1.140634 -0.54492,1.863281 -0.20704,0.722664 -0.43556,1.59571 -0.68555,2.619141 l -0.5625,2.273437 c -0.13282,0.523441 -0.23634,0.994143 -0.31054,1.41211 -0.0742,0.41797 -0.13869,0.830079 -0.19336,1.236328 -0.0313,0.132813 -0.1504,0.257813 -0.35743,0.375 -0.20704,0.117188 -0.45118,0.175781 -0.73242,0.175781 -0.16407,0 -0.31251,-0.04492 -0.44531,-0.134766 -0.13282,-0.08984 -0.2422,-0.205077 -0.32813,-0.345703 -0.0859,-0.140624 -0.14453,-0.294921 -0.17578,-0.46289 -0.0312,-0.167968 -0.0234,-0.333983 0.0234,-0.498047 z"
       style=""
       id="path3247" />
    <path
       d="m 312.226,26.889233 c 0.17187,-0.789056 0.35741,-1.494134 0.55664,-2.115235 0.19921,-0.621085 0.39648,-1.19921 0.59179,-1.734375 0.19531,-0.535146 0.38086,-1.046864 0.55664,-1.535156 0.17578,-0.48827 0.33008,-0.994129 0.46289,-1.517578 l 0.14063,-0.5625 c 0.0312,-0.140612 0.0586,-0.316393 0.082,-0.527344 0.0234,-0.210924 0.0488,-0.431626 0.0762,-0.662109 0.0273,-0.230454 0.0645,-0.45897 0.11133,-0.685547 0.0469,-0.226547 0.11523,-0.429672 0.20508,-0.609375 0.0898,-0.179672 0.20507,-0.326156 0.3457,-0.439453 0.14062,-0.113265 0.32031,-0.169906 0.53906,-0.169922 0.24218,1.6e-5 0.44726,0.04298 0.61524,0.128906 0.16796,0.08595 0.30273,0.199235 0.4043,0.339844 0.10155,0.14064 0.17577,0.30275 0.22265,0.486328 0.0469,0.183609 0.0703,0.373062 0.0703,0.568359 0,0.164077 -0.01,0.32814 -0.0293,0.492188 -0.0195,0.164076 -0.0488,0.31642 -0.0879,0.457031 -0.0859,0.351576 -0.22657,0.761732 -0.42188,1.230469 -0.19532,0.468762 -0.41016,0.98634 -0.64453,1.552734 -0.23438,0.566417 -0.47266,1.179698 -0.71484,1.839844 -0.2422,0.660165 -0.45704,1.35743 -0.64453,2.091797 -0.10939,0.414069 -0.20509,0.867194 -0.28711,1.359375 -0.082,0.492193 -0.12306,0.937505 -0.12305,1.335937 -10e-6,0.320317 0.0273,0.623051 0.082,0.908204 0.0547,0.285159 0.15234,0.535159 0.29297,0.75 0.14062,0.214846 0.33007,0.384767 0.56836,0.509765 0.23827,0.125002 0.54101,0.187502 0.9082,0.1875 0.28124,2e-6 0.57226,-0.02343 0.87305,-0.07031 0.30077,-0.04687 0.65819,-0.160154 1.07226,-0.339844 0.60937,-0.273435 1.18554,-0.62695 1.72852,-1.060547 0.54296,-0.43359 1.04686,-0.92773 1.51172,-1.482422 0.46483,-0.554682 0.89452,-1.152338 1.28906,-1.792969 0.39452,-0.640617 0.75194,-1.304679 1.07227,-1.992187 0.32029,-0.687491 0.6035,-1.382803 0.84961,-2.085938 0.24607,-0.703113 0.45506,-1.394519 0.62695,-2.074218 0.0703,-0.28905 0.12498,-0.560534 0.16406,-0.814453 0.0391,-0.253893 0.0683,-0.513658 0.0879,-0.779297 0.0195,-0.265611 0.0351,-0.550767 0.0469,-0.855469 0.0117,-0.304672 0.0332,-0.652328 0.0645,-1.042969 0.0234,-0.312483 0.11131,-0.583967 0.26367,-0.814453 0.15233,-0.230451 0.38475,-0.345686 0.69727,-0.345703 0.19529,1.7e-5 0.36521,0.07814 0.50976,0.234375 0.14452,0.156267 0.26366,0.349626 0.35743,0.580078 0.0937,0.230485 0.16404,0.474626 0.21093,0.732422 0.0469,0.257828 0.0703,0.488297 0.0703,0.691406 -2e-5,0.39064 -0.0391,0.812515 -0.11719,1.265625 -0.0781,0.453139 -0.1719,0.886732 -0.28125,1.300781 -0.22658,0.89845 -0.49807,1.800793 -0.81445,2.707032 -0.31643,0.906259 -0.69338,1.792977 -1.13086,2.660156 -0.43752,0.867194 -0.94729,1.70899 -1.5293,2.525391 -0.58205,0.81641 -1.25197,1.580081 -2.00977,2.291015 -0.37501,0.351565 -0.78126,0.697268 -1.21875,1.03711 -0.43751,0.339844 -0.89454,0.646485 -1.37109,0.919921 -0.47657,0.273438 -0.96485,0.494141 -1.46484,0.66211 -0.50001,0.167968 -0.99611,0.251953 -1.48829,0.251953 -0.71094,0 -1.32813,-0.09961 -1.85156,-0.298828 -0.52344,-0.199219 -0.95899,-0.478515 -1.30664,-0.837891 -0.34766,-0.359374 -0.60742,-0.787108 -0.7793,-1.283203 -0.17187,-0.496091 -0.25781,-1.041013 -0.25781,-1.634766 0,-0.281246 0.0234,-0.591792 0.0703,-0.93164 0.0469,-0.339839 0.10547,-0.673823 0.17579,-1.001953 z"
       style=""
       id="path3249" />
    <path
       d="m 331.5385,18.346264 c 0.0469,-0.203111 0.10546,-0.419907 0.17578,-0.650391 0.0703,-0.230453 0.16405,-0.441391 0.28125,-0.632812 0.11718,-0.191391 0.26952,-0.351547 0.45703,-0.480469 0.18749,-0.12889 0.42577,-0.193343 0.71484,-0.193359 0.27343,1.6e-5 0.51757,0.07619 0.73242,0.228515 0.21484,0.15236 0.4082,0.306656 0.58008,0.462891 0.20312,0.132828 0.39843,0.402359 0.58594,0.808594 0.18749,0.406264 0.38085,0.906263 0.58008,1.5 0.19921,0.593762 0.41405,1.265637 0.64453,2.015625 0.23046,0.75001 0.48436,1.535165 0.76172,2.355468 0.27733,0.820321 0.58788,1.658211 0.93164,2.513672 0.34374,0.855474 0.73436,1.689458 1.17187,2.501953 0.0703,0.125004 0.15233,0.271488 0.2461,0.439454 0.0937,0.167971 0.18944,0.326174 0.28711,0.474609 0.0976,0.14844 0.18748,0.27344 0.26953,0.375 0.082,0.101565 0.14256,0.152346 0.18164,0.152344 0.0234,2e-6 0.0508,-0.05859 0.082,-0.175782 0.0312,-0.117185 0.0664,-0.257809 0.10547,-0.421875 0.039,-0.164059 0.0801,-0.332028 0.12305,-0.503906 0.043,-0.171871 0.084,-0.312496 0.12304,-0.421875 0.14842,-0.359371 0.31053,-0.77148 0.48633,-1.236328 0.17577,-0.464838 0.37108,-1.027338 0.58594,-1.6875 0.21483,-0.660149 0.45115,-1.443351 0.70898,-2.349609 0.2578,-0.90624 0.54295,-1.980458 0.85547,-3.222657 0.0781,-0.304674 0.16209,-0.650377 0.25195,-1.037109 0.0898,-0.386705 0.17577,-0.781236 0.25782,-1.183594 0.082,-0.402329 0.15428,-0.794906 0.21679,-1.177734 0.0625,-0.382797 0.10545,-0.714827 0.12891,-0.996094 -2e-5,-0.04686 0.004,-0.128889 0.0117,-0.246094 0.008,-0.11717 0.0215,-0.249982 0.041,-0.398437 0.0195,-0.14842 0.0449,-0.302717 0.0762,-0.462891 0.0312,-0.160138 0.0722,-0.306622 0.12304,-0.439453 0.0508,-0.132794 0.11522,-0.242169 0.19336,-0.328125 0.0781,-0.08592 0.17186,-0.128887 0.28125,-0.128906 0.10936,1.9e-5 0.24412,0.01564 0.4043,0.04687 0.16014,0.03127 0.30662,0.07814 0.43945,0.140625 0.14842,0.203143 0.28318,0.447284 0.4043,0.732422 0.12107,0.285174 0.18162,0.669939 0.18164,1.154297 -2e-5,0.304703 -0.0313,0.669937 -0.0937,1.095703 -0.0625,0.425796 -0.1426,0.882827 -0.24023,1.371094 -0.0977,0.488294 -0.20706,0.990247 -0.32813,1.505859 -0.12111,0.515637 -0.24416,1.009777 -0.36914,1.482422 -0.12502,0.472667 -0.24416,0.90626 -0.35742,1.300781 -0.1133,0.394541 -0.20901,0.720712 -0.28711,0.978516 -0.14065,0.453133 -0.28713,0.91993 -0.43945,1.40039 -0.15237,0.480476 -0.32034,0.984382 -0.50391,1.511719 -0.18361,0.527349 -0.38283,1.085942 -0.59766,1.675781 -0.21486,0.589848 -0.45509,1.220706 -0.7207,1.892578 -0.1172,0.30469 -0.25197,0.609377 -0.4043,0.914063 -0.15236,0.304689 -0.32619,0.580079 -0.52148,0.826172 -0.19533,0.246094 -0.41603,0.445313 -0.66211,0.597656 -0.24611,0.152344 -0.5215,0.228516 -0.82617,0.228516 -0.1797,0 -0.36525,-0.02539 -0.55664,-0.07617 -0.19142,-0.05078 -0.35353,-0.154297 -0.48633,-0.310547 -0.64064,-0.742187 -1.21095,-1.583983 -1.71094,-2.525391 -0.50001,-0.941402 -0.94728,-1.925776 -1.3418,-2.953125 -0.39454,-1.027337 -0.74415,-2.066398 -1.04882,-3.117187 -0.3047,-1.050772 -0.58204,-2.05663 -0.83204,-3.017578 l -0.0703,-0.269532 c -0.0313,-0.109362 -0.0605,-0.22069 -0.0879,-0.333984 -0.0274,-0.113269 -0.0547,-0.216784 -0.082,-0.310547 -0.0274,-0.09374 -0.0586,-0.169909 -0.0937,-0.228515 -0.0352,-0.05858 -0.0762,-0.08788 -0.12305,-0.08789 -0.0469,1.3e-5 -0.10547,0.08595 -0.17578,0.257812 -0.0703,0.171888 -0.14063,0.365247 -0.21094,0.580079 -0.0703,0.214855 -0.13477,0.423839 -0.19335,0.626953 -0.0586,0.203136 -0.0957,0.332042 -0.11133,0.386718 -0.0547,0.203136 -0.13673,0.494152 -0.2461,0.873047 -0.10938,0.378917 -0.23243,0.80665 -0.36914,1.283203 -0.13672,0.476572 -0.28516,0.980477 -0.44531,1.511719 -0.16016,0.531257 -0.31446,1.044929 -0.46289,1.541016 -0.14844,0.496099 -0.28907,0.955083 -0.42188,1.376953 -0.13281,0.421879 -0.24219,0.761723 -0.32812,1.019531 -0.0703,0.203129 -0.15626,0.464847 -0.25781,0.785156 -0.10157,0.320315 -0.20313,0.642581 -0.30469,0.966797 -0.10157,0.324221 -0.19532,0.619142 -0.28125,0.884766 -0.0859,0.265626 -0.14063,0.441407 -0.16406,0.527344 -0.0938,0.296875 -0.23243,0.521484 -0.41602,0.673828 -0.1836,0.152343 -0.36914,0.228515 -0.55664,0.228515 -0.11719,0 -0.23438,-0.04102 -0.35156,-0.123046 -0.11719,-0.08203 -0.22071,-0.181641 -0.31055,-0.298829 -0.0898,-0.117187 -0.16406,-0.24414 -0.22265,-0.380859 -0.0586,-0.136718 -0.0879,-0.259765 -0.0879,-0.369141 0,-0.0625 0.0195,-0.162108 0.0586,-0.298828 0.0391,-0.136717 0.10156,-0.369139 0.1875,-0.697265 l 0.30469,-1.207032 z"
       style=""
       id="path3251" />
    <path
       d="m 348.3549,25.799389 c 0.0703,-0.304681 0.15429,-0.642571 0.25196,-1.013672 0.0977,-0.371086 0.20312,-0.755851 0.3164,-1.154297 0.11328,-0.398428 0.22851,-0.800771 0.3457,-1.207031 0.11719,-0.40624 0.23242,-0.796864 0.34571,-1.171875 0.11327,-0.374988 0.21679,-0.724597 0.31054,-1.048828 0.0937,-0.324206 0.17578,-0.599597 0.2461,-0.826172 0.14843,-0.507799 0.28905,-1.017564 0.42187,-1.529297 0.13281,-0.511704 0.26172,-1.048812 0.38672,-1.611328 0.15625,-0.304671 0.36718,-0.521468 0.63281,-0.650391 0.26562,-0.128889 0.55468,-0.193342 0.86719,-0.193359 0.24999,0.132829 0.44726,0.31447 0.5918,0.544922 0.14452,0.230485 0.21679,0.49025 0.2168,0.779297 -10e-6,0.20314 -0.0332,0.435562 -0.0996,0.697265 -0.0664,0.261734 -0.1504,0.542984 -0.25196,0.84375 -0.10157,0.300795 -0.21485,0.617201 -0.33984,0.949219 -0.12501,0.332044 -0.2461,0.673841 -0.36328,1.025391 -0.21876,0.640636 -0.43751,1.281261 -0.65625,1.921875 -0.21876,0.640634 -0.4336,1.316415 -0.64453,2.027343 -0.0547,0.187509 -0.11329,0.375008 -0.17578,0.5625 -0.0625,0.187508 -0.12696,0.390633 -0.19336,0.609375 -0.0664,0.218757 -0.13868,0.462898 -0.2168,0.732422 -0.0781,0.269538 -0.15626,0.580084 -0.23438,0.931641 -0.0937,0.414067 -0.17578,0.830083 -0.24609,1.248047 -0.0703,0.417972 -0.13672,0.837894 -0.19922,1.259765 -0.0625,0.421878 -0.13282,0.847659 -0.21094,1.277344 -0.0781,0.429689 -0.17188,0.863282 -0.28125,1.300781 -0.0391,0.156251 -0.10742,0.294922 -0.20507,0.416016 -0.0977,0.121094 -0.20899,0.224609 -0.33399,0.310547 -0.125,0.08594 -0.25781,0.152343 -0.39844,0.199219 -0.14062,0.04687 -0.27344,0.07031 -0.39843,0.07031 -0.12501,0 -0.24415,-0.0098 -0.35742,-0.0293 -0.11329,-0.01953 -0.20118,-0.06445 -0.26368,-0.134765 -0.0937,-0.101563 -0.16797,-0.214844 -0.22265,-0.339844 -0.0547,-0.125 -0.082,-0.257812 -0.082,-0.398438 -10e-6,-0.03906 0.002,-0.07617 0.006,-0.111328 0.004,-0.03516 0.01,-0.07227 0.0176,-0.111328 z"
       style=""
       id="path3253" />
    <path
       d="m 358.9135,30.639233 c 0.29686,-1.296872 0.63085,-2.605465 1.00195,-3.925782 0.37108,-1.320305 0.73241,-2.628897 1.08398,-3.925781 0.14843,-0.539052 0.27929,-1.029286 0.39258,-1.470703 0.11327,-0.441395 0.20898,-0.841785 0.28711,-1.201172 0.0781,-0.359362 0.13671,-0.685534 0.17578,-0.978515 0.0391,-0.292956 0.0586,-0.56444 0.0586,-0.814454 -10e-6,-0.04686 -10e-6,-0.0996 0,-0.158203 -10e-6,-0.05858 -0.004,-0.130845 -0.0117,-0.216797 -0.0781,1.5e-5 -0.25197,0.04298 -0.52149,0.128907 -0.26954,0.08595 -0.58594,0.199233 -0.94922,0.339843 -0.36329,0.140639 -0.7461,0.298842 -1.14843,0.47461 -0.40235,0.175794 -0.7754,0.353529 -1.11914,0.533203 -0.27345,0.140638 -0.50196,0.257825 -0.68555,0.351562 -0.1836,0.09376 -0.3418,0.166029 -0.47461,0.216797 -0.13282,0.05079 -0.25391,0.08595 -0.36328,0.105469 -0.10938,0.01954 -0.22266,0.02931 -0.33985,0.0293 -0.24219,1.2e-5 -0.45117,-0.09374 -0.62695,-0.28125 -0.17578,-0.187487 -0.26367,-0.429675 -0.26367,-0.726563 0,-0.171861 0.0176,-0.322252 0.0527,-0.451171 0.0352,-0.128893 0.0898,-0.244127 0.16407,-0.345704 0.0742,-0.101548 0.17382,-0.197251 0.29882,-0.287109 0.125,-0.08983 0.27734,-0.181626 0.45704,-0.275391 1.97655,-1.031234 3.97655,-1.787092 6,-2.267578 2.02342,-0.480451 4.05467,-0.720685 6.09375,-0.720703 0.16404,1.8e-5 0.35935,0.0039 0.58593,0.01172 0.22655,0.0078 0.45897,0.0215 0.69727,0.04102 0.23826,0.01955 0.47068,0.04689 0.69726,0.08203 0.22655,0.03517 0.42577,0.07619 0.59766,0.123047 0.17967,0.0547 0.33592,0.167986 0.46875,0.339843 0.13279,0.171892 0.1992,0.355486 0.19922,0.550782 -2e-5,0.156266 -0.0137,0.30861 -0.041,0.457031 -0.0274,0.148453 -0.0762,0.27736 -0.14648,0.386719 -0.0703,0.10939 -0.16213,0.197281 -0.27539,0.263672 -0.1133,0.06642 -0.25197,0.09962 -0.41602,0.09961 -0.28127,-0.03124 -0.60353,-0.0703 -0.96679,-0.117188 -0.3633,-0.04686 -0.72854,-0.0703 -1.09571,-0.07031 -0.73439,1.5e-5 -1.46681,0.01759 -2.19726,0.05273 -0.73049,0.03517 -1.47853,0.138688 -2.24414,0.310547 -0.0391,0.01564 -0.0645,0.05666 -0.0762,0.123047 -0.0117,0.06642 -0.0215,0.150406 -0.0293,0.251953 -0.0235,0.42189 -0.0586,0.792983 -0.10547,1.113281 -0.0469,0.320326 -0.11134,0.640638 -0.19336,0.960938 -0.082,0.320325 -0.18165,0.666028 -0.29883,1.037109 -0.1172,0.371105 -0.25392,0.816417 -0.41015,1.335938 -0.15627,0.519541 -0.33791,1.140634 -0.54493,1.863281 -0.20704,0.722664 -0.43555,1.59571 -0.68554,2.619141 l -0.5625,2.273437 c -0.13283,0.523441 -0.23634,0.994143 -0.31055,1.41211 -0.0742,0.41797 -0.13868,0.830079 -0.19336,1.236328 -0.0313,0.132813 -0.1504,0.257813 -0.35742,0.375 -0.20704,0.117188 -0.45118,0.175781 -0.73242,0.175781 -0.16407,0 -0.31251,-0.04492 -0.44532,-0.134766 -0.13282,-0.08984 -0.24219,-0.205077 -0.32812,-0.345703 -0.0859,-0.140624 -0.14454,-0.294921 -0.17578,-0.46289 -0.0313,-0.167968 -0.0235,-0.333983 0.0234,-0.498047 z"
       style=""
       id="path3255" />
    <path
       d="m 370.14006,34.31892 c 0,-0.187501 0.0488,-0.376954 0.14648,-0.568359 0.0977,-0.191408 0.23047,-0.390626 0.39844,-0.597656 0.16797,-0.207032 0.36328,-0.423829 0.58594,-0.650391 0.22265,-0.226562 0.45507,-0.464843 0.69726,-0.714844 0.46094,-0.468749 0.94531,-0.957029 1.45313,-1.464844 0.5078,-0.507809 0.99218,-1.031246 1.45312,-1.570312 0.19531,-0.234371 0.35156,-0.425777 0.46875,-0.574219 0.11718,-0.148433 0.20507,-0.27148 0.26368,-0.36914 0.0586,-0.09765 0.0976,-0.181636 0.11718,-0.251954 0.0195,-0.07031 0.0332,-0.14062 0.041,-0.210937 -0.32814,-0.42187 -0.61915,-0.8789 -0.87305,-1.371094 -0.25391,-0.49218 -0.48047,-1.005852 -0.67969,-1.541015 -0.19922,-0.535148 -0.37891,-1.076163 -0.53906,-1.623047 -0.16016,-0.546865 -0.31055,-1.082021 -0.45117,-1.605469 -0.13282,-0.476551 -0.25977,-0.957019 -0.38086,-1.441406 -0.1211,-0.484362 -0.2793,-0.90233 -0.47461,-1.253907 -0.14844,-0.26561 -0.27539,-0.541001 -0.38086,-0.826171 -0.10547,-0.285142 -0.15821,-0.599594 -0.1582,-0.94336 -1e-5,-0.148421 0.0176,-0.322249 0.0527,-0.521484 0.0351,-0.199202 0.0976,-0.384749 0.1875,-0.556641 0.0898,-0.171858 0.20703,-0.318342 0.35157,-0.439453 0.14452,-0.121076 0.32226,-0.181623 0.5332,-0.181641 0.22655,1.8e-5 0.43749,0.07814 0.63281,0.234375 0.19531,0.156267 0.37109,0.353533 0.52734,0.591797 0.15625,0.238298 0.28906,0.49611 0.39844,0.773438 0.10937,0.277359 0.19531,0.533218 0.25781,0.767578 0.0781,0.335952 0.17382,0.75392 0.28711,1.253906 0.11328,0.500013 0.22656,1.011732 0.33985,1.535156 0.11327,0.52345 0.2246,1.019543 0.33398,1.488282 0.10937,0.46876 0.20702,0.84376 0.29297,1.125 0.10155,0.351571 0.21093,0.681649 0.32813,0.990234 0.11717,0.308602 0.23436,0.574227 0.35156,0.796875 0.11718,0.222664 0.23241,0.398445 0.3457,0.527344 0.11327,0.128913 0.22069,0.193366 0.32227,0.193359 0.0781,7e-6 0.19921,-0.105461 0.36328,-0.316406 0.64061,-0.851554 1.30663,-1.763663 1.99805,-2.736328 0.69139,-0.972645 1.36522,-1.935535 2.02148,-2.888672 0.24217,-0.351549 0.45702,-0.675768 0.64453,-0.972656 0.18749,-0.296861 0.35741,-0.580064 0.50977,-0.84961 0.15232,-0.269516 0.291,-0.531234 0.41601,-0.785156 0.12499,-0.25389 0.24217,-0.509749 0.35156,-0.767578 l 0.30469,-1.230469 c 0.0312,-0.124982 0.084,-0.251935 0.15821,-0.380859 0.0742,-0.128888 0.16013,-0.246076 0.25781,-0.351563 0.0976,-0.10545 0.21092,-0.191387 0.33984,-0.257812 0.12889,-0.06639 0.27147,-0.09959 0.42774,-0.09961 0.2031,1.9e-5 0.37888,0.04104 0.52734,0.123047 0.14842,0.08205 0.26951,0.189472 0.36328,0.322266 0.0937,0.132831 0.16404,0.287127 0.21094,0.462891 0.0469,0.175799 0.0703,0.357439 0.0703,0.544921 -2e-5,0.210955 -0.041,0.453142 -0.12305,0.726563 -0.082,0.273454 -0.18947,0.554703 -0.32226,0.84375 -0.13283,0.289078 -0.28127,0.574234 -0.44531,0.855469 -0.16409,0.281264 -0.32424,0.53517 -0.48047,0.761718 -1.11721,1.593763 -2.25197,3.208996 -3.4043,4.845704 -1.15236,1.636726 -2.32228,3.205084 -3.50977,4.705078 -1.05469,1.33594 -2.0879,2.57422 -3.0996,3.714843 -1.01173,1.140625 -1.93556,2.136718 -2.77149,2.988282 -0.17969,0.179685 -0.38282,0.347653 -0.60937,0.503906 -0.22657,0.156247 -0.46485,0.234372 -0.71485,0.234375 -0.13281,-3e-6 -0.24414,-0.0293 -0.33398,-0.08789 -0.0899,-0.0586 -0.16212,-0.134768 -0.2168,-0.228515 -0.0547,-0.09375 -0.0957,-0.201175 -0.12305,-0.322266 -0.0273,-0.121096 -0.041,-0.240236 -0.041,-0.357422 z"
       style=""
       id="path3257" />
  </g>
</svg>
